<mxfile host="app.diagrams.net" modified="2022-01-06T06:43:03.803Z" agent="5.0 (Windows NT 10.0; WOW64) AppleWebKit/537.36 (KHTML, like Gecko) Chrome/94.0.4606.81 Safari/537.36" etag="FuP2yMHyp55H-5eVv7_c" version="16.0.0" type="github">
  <diagram id="u0_twf8YNsRj_HJE-j4O" name="Page-1">
    <mxGraphModel dx="3318" dy="4935" grid="1" gridSize="10" guides="1" tooltips="1" connect="1" arrows="1" fold="1" page="0" pageScale="1" pageWidth="827" pageHeight="1169" math="0" shadow="0">
      <root>
        <mxCell id="0" />
        <mxCell id="1" parent="0" />
        <mxCell id="g4sBY3vQFwJTmv0VMaXS-16" style="edgeStyle=orthogonalEdgeStyle;rounded=0;orthogonalLoop=1;jettySize=auto;html=1;exitX=1;exitY=0.3333333333333333;exitDx=0;exitDy=0;exitPerimeter=0;entryX=0;entryY=0.5;entryDx=0;entryDy=0;" parent="1" source="g4sBY3vQFwJTmv0VMaXS-1" target="g4sBY3vQFwJTmv0VMaXS-15" edge="1">
          <mxGeometry relative="1" as="geometry" />
        </mxCell>
        <mxCell id="g4sBY3vQFwJTmv0VMaXS-1" value="主播" style="shape=umlActor;verticalLabelPosition=bottom;verticalAlign=top;html=1;outlineConnect=0;" parent="1" vertex="1">
          <mxGeometry x="160" y="200" width="30" height="60" as="geometry" />
        </mxCell>
        <mxCell id="g4sBY3vQFwJTmv0VMaXS-10" value="1.呼叫接口" style="edgeStyle=orthogonalEdgeStyle;rounded=0;orthogonalLoop=1;jettySize=auto;html=1;exitX=0.5;exitY=0.5;exitDx=0;exitDy=0;exitPerimeter=0;entryX=1;entryY=0.5;entryDx=0;entryDy=0;" parent="1" source="g4sBY3vQFwJTmv0VMaXS-2" target="g4sBY3vQFwJTmv0VMaXS-4" edge="1">
          <mxGeometry relative="1" as="geometry" />
        </mxCell>
        <mxCell id="g4sBY3vQFwJTmv0VMaXS-2" value="用户A" style="shape=umlActor;verticalLabelPosition=bottom;verticalAlign=top;html=1;outlineConnect=0;" parent="1" vertex="1">
          <mxGeometry x="690" y="200" width="30" height="60" as="geometry" />
        </mxCell>
        <mxCell id="g4sBY3vQFwJTmv0VMaXS-11" value="" style="edgeStyle=orthogonalEdgeStyle;rounded=0;orthogonalLoop=1;jettySize=auto;html=1;exitX=0.5;exitY=1;exitDx=0;exitDy=0;" parent="1" source="g4sBY3vQFwJTmv0VMaXS-4" target="g4sBY3vQFwJTmv0VMaXS-7" edge="1">
          <mxGeometry relative="1" as="geometry" />
        </mxCell>
        <mxCell id="g4sBY3vQFwJTmv0VMaXS-12" value="2.消息发送接口" style="edgeLabel;html=1;align=center;verticalAlign=middle;resizable=0;points=[];" parent="g4sBY3vQFwJTmv0VMaXS-11" vertex="1" connectable="0">
          <mxGeometry x="0.1355" relative="1" as="geometry">
            <mxPoint as="offset" />
          </mxGeometry>
        </mxCell>
        <mxCell id="g4sBY3vQFwJTmv0VMaXS-25" style="edgeStyle=orthogonalEdgeStyle;rounded=0;orthogonalLoop=1;jettySize=auto;html=1;exitX=0.75;exitY=1;exitDx=0;exitDy=0;entryX=0;entryY=0.5;entryDx=0;entryDy=0;entryPerimeter=0;" parent="1" source="g4sBY3vQFwJTmv0VMaXS-4" target="g4sBY3vQFwJTmv0VMaXS-5" edge="1">
          <mxGeometry relative="1" as="geometry">
            <Array as="points">
              <mxPoint x="469" y="320" />
              <mxPoint x="590" y="320" />
              <mxPoint x="590" y="437" />
            </Array>
          </mxGeometry>
        </mxCell>
        <mxCell id="g4sBY3vQFwJTmv0VMaXS-26" value="5.调用深网创建房间" style="edgeLabel;html=1;align=center;verticalAlign=middle;resizable=0;points=[];" parent="g4sBY3vQFwJTmv0VMaXS-25" vertex="1" connectable="0">
          <mxGeometry x="-0.4547" y="-1" relative="1" as="geometry">
            <mxPoint x="73" y="59" as="offset" />
          </mxGeometry>
        </mxCell>
        <mxCell id="g4sBY3vQFwJTmv0VMaXS-4" value="服务端" style="aspect=fixed;perimeter=ellipsePerimeter;html=1;align=center;shadow=0;dashed=0;spacingTop=3;image;image=img/lib/active_directory/web_server.svg;" parent="1" vertex="1">
          <mxGeometry x="440" y="205" width="40" height="50" as="geometry" />
        </mxCell>
        <mxCell id="g4sBY3vQFwJTmv0VMaXS-27" style="edgeStyle=orthogonalEdgeStyle;rounded=0;orthogonalLoop=1;jettySize=auto;html=1;exitX=0.145;exitY=0.145;exitDx=0;exitDy=0;exitPerimeter=0;entryX=1;entryY=1;entryDx=0;entryDy=0;" parent="1" source="g4sBY3vQFwJTmv0VMaXS-5" target="g4sBY3vQFwJTmv0VMaXS-4" edge="1">
          <mxGeometry relative="1" as="geometry">
            <Array as="points">
              <mxPoint x="600" y="422" />
              <mxPoint x="600" y="310" />
              <mxPoint x="474" y="310" />
            </Array>
          </mxGeometry>
        </mxCell>
        <mxCell id="g4sBY3vQFwJTmv0VMaXS-5" value="深网" style="fillColor=#28A8E0;verticalLabelPosition=bottom;sketch=0;html=1;strokeColor=#ffffff;verticalAlign=top;align=center;points=[[0.145,0.145,0],[0.5,0,0],[0.855,0.145,0],[1,0.5,0],[0.855,0.855,0],[0.5,1,0],[0.145,0.855,0],[0,0.5,0]];pointerEvents=1;shape=mxgraph.cisco_safe.compositeIcon;bgIcon=ellipse;resIcon=mxgraph.cisco_safe.capability.video;" parent="1" vertex="1">
          <mxGeometry x="710" y="415.5" width="43" height="43" as="geometry" />
        </mxCell>
        <mxCell id="g4sBY3vQFwJTmv0VMaXS-13" style="edgeStyle=orthogonalEdgeStyle;rounded=0;orthogonalLoop=1;jettySize=auto;html=1;" parent="1" source="g4sBY3vQFwJTmv0VMaXS-7" target="g4sBY3vQFwJTmv0VMaXS-1" edge="1">
          <mxGeometry relative="1" as="geometry" />
        </mxCell>
        <mxCell id="g4sBY3vQFwJTmv0VMaXS-14" value="3.WS通知" style="edgeLabel;html=1;align=center;verticalAlign=middle;resizable=0;points=[];" parent="g4sBY3vQFwJTmv0VMaXS-13" vertex="1" connectable="0">
          <mxGeometry x="-0.2673" relative="1" as="geometry">
            <mxPoint as="offset" />
          </mxGeometry>
        </mxCell>
        <mxCell id="g4sBY3vQFwJTmv0VMaXS-7" value="IM" style="sketch=0;pointerEvents=1;shadow=0;dashed=0;html=1;strokeColor=none;fillColor=#505050;labelPosition=center;verticalLabelPosition=bottom;verticalAlign=top;outlineConnect=0;align=center;shape=mxgraph.office.communications.im_workload;" parent="1" vertex="1">
          <mxGeometry x="432" y="410" width="56" height="54" as="geometry" />
        </mxCell>
        <mxCell id="g4sBY3vQFwJTmv0VMaXS-8" value="用户B" style="shape=umlActor;verticalLabelPosition=bottom;verticalAlign=top;html=1;outlineConnect=0;" parent="1" vertex="1">
          <mxGeometry x="800" y="200" width="30" height="60" as="geometry" />
        </mxCell>
        <mxCell id="g4sBY3vQFwJTmv0VMaXS-19" style="edgeStyle=orthogonalEdgeStyle;rounded=0;orthogonalLoop=1;jettySize=auto;html=1;exitX=1;exitY=0.5;exitDx=0;exitDy=0;entryX=0.5;entryY=0;entryDx=0;entryDy=0;" parent="1" source="g4sBY3vQFwJTmv0VMaXS-15" target="g4sBY3vQFwJTmv0VMaXS-4" edge="1">
          <mxGeometry relative="1" as="geometry" />
        </mxCell>
        <mxCell id="g4sBY3vQFwJTmv0VMaXS-20" value="4.接受" style="edgeLabel;html=1;align=center;verticalAlign=middle;resizable=0;points=[];" parent="g4sBY3vQFwJTmv0VMaXS-19" vertex="1" connectable="0">
          <mxGeometry x="-0.0578" relative="1" as="geometry">
            <mxPoint as="offset" />
          </mxGeometry>
        </mxCell>
        <mxCell id="g4sBY3vQFwJTmv0VMaXS-22" style="edgeStyle=orthogonalEdgeStyle;rounded=0;orthogonalLoop=1;jettySize=auto;html=1;exitX=0.5;exitY=1;exitDx=0;exitDy=0;entryX=0;entryY=0.5;entryDx=0;entryDy=0;" parent="1" source="g4sBY3vQFwJTmv0VMaXS-15" target="g4sBY3vQFwJTmv0VMaXS-4" edge="1">
          <mxGeometry relative="1" as="geometry" />
        </mxCell>
        <mxCell id="g4sBY3vQFwJTmv0VMaXS-23" value="4.1&amp;nbsp;拒绝" style="edgeLabel;html=1;align=center;verticalAlign=middle;resizable=0;points=[];" parent="g4sBY3vQFwJTmv0VMaXS-22" vertex="1" connectable="0">
          <mxGeometry x="-0.0261" relative="1" as="geometry">
            <mxPoint as="offset" />
          </mxGeometry>
        </mxCell>
        <mxCell id="g4sBY3vQFwJTmv0VMaXS-15" value="应答" style="rhombus;whiteSpace=wrap;html=1;" parent="1" vertex="1">
          <mxGeometry x="260" y="60" width="80" height="80" as="geometry" />
        </mxCell>
        <mxCell id="g4sBY3vQFwJTmv0VMaXS-18" value="1.1记录呼叫信息" style="text;html=1;strokeColor=none;fillColor=none;align=center;verticalAlign=middle;whiteSpace=wrap;rounded=0;" parent="1" vertex="1">
          <mxGeometry x="560" y="180" width="100" height="30" as="geometry" />
        </mxCell>
        <mxCell id="g4sBY3vQFwJTmv0VMaXS-29" value="Pool" style="swimlane;childLayout=stackLayout;resizeParent=1;resizeParentMax=0;startSize=20;horizontal=0;horizontalStack=1;strokeColor=#E6E6E6;dashed=1;dashPattern=1 1;fillColor=default;fontColor=default;" parent="1" vertex="1">
          <mxGeometry x="200" y="720" width="790" height="1490" as="geometry" />
        </mxCell>
        <mxCell id="g4sBY3vQFwJTmv0VMaXS-30" value="主播" style="swimlane;startSize=20;strokeColor=#808080;dashed=1;dashPattern=1 1;" parent="g4sBY3vQFwJTmv0VMaXS-29" vertex="1">
          <mxGeometry x="20" width="120" height="1490" as="geometry" />
        </mxCell>
        <mxCell id="g4sBY3vQFwJTmv0VMaXS-46" value="主播" style="shape=umlActor;verticalLabelPosition=bottom;verticalAlign=top;html=1;outlineConnect=0;" parent="g4sBY3vQFwJTmv0VMaXS-30" vertex="1">
          <mxGeometry x="45" y="160" width="30" height="60" as="geometry" />
        </mxCell>
        <mxCell id="bjaMCamKSF5sM4Zxcl0b-6" value="发起频道创建" style="rounded=0;whiteSpace=wrap;html=1;" parent="g4sBY3vQFwJTmv0VMaXS-30" vertex="1">
          <mxGeometry x="15" y="530" width="90" height="40" as="geometry" />
        </mxCell>
        <mxCell id="z2xvUa6bOidR-Bl0gTQm-137" value="加入频道回调" style="rounded=0;whiteSpace=wrap;html=1;" parent="g4sBY3vQFwJTmv0VMaXS-30" vertex="1">
          <mxGeometry x="15" y="660" width="90" height="40" as="geometry" />
        </mxCell>
        <mxCell id="z2xvUa6bOidR-Bl0gTQm-191" value="加入频道回调" style="rounded=0;whiteSpace=wrap;html=1;" parent="g4sBY3vQFwJTmv0VMaXS-30" vertex="1">
          <mxGeometry x="15" y="860" width="90" height="40" as="geometry" />
        </mxCell>
        <mxCell id="g4sBY3vQFwJTmv0VMaXS-31" value="客户" style="swimlane;startSize=20;strokeColor=#808080;dashed=1;dashPattern=1 1;" parent="g4sBY3vQFwJTmv0VMaXS-29" vertex="1">
          <mxGeometry x="140" width="120" height="1490" as="geometry" />
        </mxCell>
        <mxCell id="g4sBY3vQFwJTmv0VMaXS-40" value="用户A" style="shape=umlActor;verticalLabelPosition=bottom;verticalAlign=top;html=1;outlineConnect=0;" parent="g4sBY3vQFwJTmv0VMaXS-31" vertex="1">
          <mxGeometry x="40" y="50" width="30" height="60" as="geometry" />
        </mxCell>
        <mxCell id="z2xvUa6bOidR-Bl0gTQm-132" value="取消呼叫" style="rounded=0;whiteSpace=wrap;html=1;" parent="g4sBY3vQFwJTmv0VMaXS-31" vertex="1">
          <mxGeometry x="15" y="280" width="90" height="40" as="geometry" />
        </mxCell>
        <mxCell id="z2xvUa6bOidR-Bl0gTQm-143" value="发起加入频道" style="rounded=0;whiteSpace=wrap;html=1;" parent="g4sBY3vQFwJTmv0VMaXS-31" vertex="1">
          <mxGeometry x="15" y="740" width="90" height="40" as="geometry" />
        </mxCell>
        <mxCell id="g4sBY3vQFwJTmv0VMaXS-32" value="服务端" style="swimlane;startSize=20;strokeColor=#808080;dashed=1;dashPattern=1 1;" parent="g4sBY3vQFwJTmv0VMaXS-29" vertex="1">
          <mxGeometry x="260" width="170" height="1490" as="geometry" />
        </mxCell>
        <mxCell id="g4sBY3vQFwJTmv0VMaXS-42" value="呼叫接口" style="rounded=0;whiteSpace=wrap;html=1;" parent="g4sBY3vQFwJTmv0VMaXS-32" vertex="1">
          <mxGeometry x="25" y="130" width="90" height="40" as="geometry" />
        </mxCell>
        <mxCell id="t0FxqeCYsKIWs9JOHYrU-2" value="是" style="edgeStyle=orthogonalEdgeStyle;rounded=0;orthogonalLoop=1;jettySize=auto;html=1;exitX=0.5;exitY=1;exitDx=0;exitDy=0;" parent="g4sBY3vQFwJTmv0VMaXS-32" source="g4sBY3vQFwJTmv0VMaXS-55" target="g4sBY3vQFwJTmv0VMaXS-42" edge="1">
          <mxGeometry relative="1" as="geometry" />
        </mxCell>
        <mxCell id="g4sBY3vQFwJTmv0VMaXS-55" value="余额检测" style="rhombus;whiteSpace=wrap;html=1;" parent="g4sBY3vQFwJTmv0VMaXS-32" vertex="1">
          <mxGeometry x="40" y="40" width="60" height="60" as="geometry" />
        </mxCell>
        <mxCell id="t0FxqeCYsKIWs9JOHYrU-12" style="edgeStyle=orthogonalEdgeStyle;rounded=0;orthogonalLoop=1;jettySize=auto;html=1;exitX=0.5;exitY=1;exitDx=0;exitDy=0;strokeColor=default;labelBackgroundColor=default;fontColor=default;entryX=0.5;entryY=0;entryDx=0;entryDy=0;" parent="g4sBY3vQFwJTmv0VMaXS-32" source="z2xvUa6bOidR-Bl0gTQm-128" target="pI7oZdxJtOxQLC7SE2ko-5" edge="1">
          <mxGeometry relative="1" as="geometry">
            <mxPoint x="90" y="278" as="targetPoint" />
          </mxGeometry>
        </mxCell>
        <mxCell id="z2xvUa6bOidR-Bl0gTQm-128" value="应答" style="rhombus;whiteSpace=wrap;html=1;" parent="g4sBY3vQFwJTmv0VMaXS-32" vertex="1">
          <mxGeometry x="55" y="190" width="60" height="60" as="geometry" />
        </mxCell>
        <mxCell id="pI7oZdxJtOxQLC7SE2ko-2" style="edgeStyle=orthogonalEdgeStyle;rounded=0;orthogonalLoop=1;jettySize=auto;html=1;exitX=0.5;exitY=1;exitDx=0;exitDy=0;labelBackgroundColor=default;fontColor=default;strokeColor=default;" parent="g4sBY3vQFwJTmv0VMaXS-32" source="z2xvUa6bOidR-Bl0gTQm-139" target="z2xvUa6bOidR-Bl0gTQm-187" edge="1">
          <mxGeometry relative="1" as="geometry" />
        </mxCell>
        <mxCell id="z2xvUa6bOidR-Bl0gTQm-139" value="邀请加入" style="rounded=0;whiteSpace=wrap;html=1;" parent="g4sBY3vQFwJTmv0VMaXS-32" vertex="1">
          <mxGeometry x="45" y="660" width="85" height="40" as="geometry" />
        </mxCell>
        <mxCell id="z2xvUa6bOidR-Bl0gTQm-187" value="申请声网TOKEN" style="rounded=0;whiteSpace=wrap;html=1;fillColor=default;strokeColor=default;fontColor=default;" parent="g4sBY3vQFwJTmv0VMaXS-32" vertex="1">
          <mxGeometry x="42.5" y="732" width="90" height="40" as="geometry" />
        </mxCell>
        <mxCell id="z2xvUa6bOidR-Bl0gTQm-193" value="状态维护" style="rounded=0;whiteSpace=wrap;html=1;" parent="g4sBY3vQFwJTmv0VMaXS-32" vertex="1">
          <mxGeometry x="40" y="860" width="90" height="40" as="geometry" />
        </mxCell>
        <mxCell id="t0FxqeCYsKIWs9JOHYrU-11" value="是否处于&lt;br&gt;频道内" style="rhombus;whiteSpace=wrap;html=1;" parent="g4sBY3vQFwJTmv0VMaXS-32" vertex="1">
          <mxGeometry x="50" y="370" width="70" height="70" as="geometry" />
        </mxCell>
        <mxCell id="pI7oZdxJtOxQLC7SE2ko-6" style="edgeStyle=orthogonalEdgeStyle;rounded=0;orthogonalLoop=1;jettySize=auto;html=1;exitX=0.5;exitY=1;exitDx=0;exitDy=0;labelBackgroundColor=default;fontColor=default;strokeColor=default;" parent="g4sBY3vQFwJTmv0VMaXS-32" source="pI7oZdxJtOxQLC7SE2ko-5" target="t0FxqeCYsKIWs9JOHYrU-11" edge="1">
          <mxGeometry relative="1" as="geometry" />
        </mxCell>
        <mxCell id="pI7oZdxJtOxQLC7SE2ko-5" value="申请声网TOKEN" style="rounded=0;whiteSpace=wrap;html=1;fillColor=default;strokeColor=default;fontColor=default;" parent="g4sBY3vQFwJTmv0VMaXS-32" vertex="1">
          <mxGeometry x="40" y="312" width="90" height="40" as="geometry" />
        </mxCell>
        <mxCell id="g4sBY3vQFwJTmv0VMaXS-38" value="IM" style="swimlane;startSize=20;strokeColor=#808080;dashed=1;dashPattern=1 1;fillColor=default;fontColor=default;" parent="g4sBY3vQFwJTmv0VMaXS-29" vertex="1">
          <mxGeometry x="430" width="240" height="1490" as="geometry" />
        </mxCell>
        <mxCell id="g4sBY3vQFwJTmv0VMaXS-45" value="消息发送接口" style="rounded=0;whiteSpace=wrap;html=1;" parent="g4sBY3vQFwJTmv0VMaXS-38" vertex="1">
          <mxGeometry x="90" y="40" width="90" height="40" as="geometry" />
        </mxCell>
        <mxCell id="z2xvUa6bOidR-Bl0gTQm-129" value="消息发送接口" style="rounded=0;whiteSpace=wrap;html=1;" parent="g4sBY3vQFwJTmv0VMaXS-38" vertex="1">
          <mxGeometry x="140" y="200" width="90" height="40" as="geometry" />
        </mxCell>
        <mxCell id="z2xvUa6bOidR-Bl0gTQm-141" value="消息发送接口" style="rounded=0;whiteSpace=wrap;html=1;" parent="g4sBY3vQFwJTmv0VMaXS-38" vertex="1">
          <mxGeometry x="50" y="660" width="90" height="40" as="geometry" />
        </mxCell>
        <mxCell id="g4sBY3vQFwJTmv0VMaXS-41" style="edgeStyle=orthogonalEdgeStyle;rounded=0;orthogonalLoop=1;jettySize=auto;html=1;exitX=1;exitY=0.3333333333333333;exitDx=0;exitDy=0;exitPerimeter=0;entryX=0;entryY=0.5;entryDx=0;entryDy=0;" parent="g4sBY3vQFwJTmv0VMaXS-29" source="g4sBY3vQFwJTmv0VMaXS-40" target="g4sBY3vQFwJTmv0VMaXS-55" edge="1">
          <mxGeometry relative="1" as="geometry">
            <mxPoint x="290" y="70.14285714285711" as="targetPoint" />
          </mxGeometry>
        </mxCell>
        <mxCell id="g4sBY3vQFwJTmv0VMaXS-47" style="edgeStyle=orthogonalEdgeStyle;rounded=0;orthogonalLoop=1;jettySize=auto;html=1;exitX=1;exitY=0.5;exitDx=0;exitDy=0;entryX=1;entryY=0.3333333333333333;entryDx=0;entryDy=0;entryPerimeter=0;" parent="g4sBY3vQFwJTmv0VMaXS-29" source="g4sBY3vQFwJTmv0VMaXS-45" target="g4sBY3vQFwJTmv0VMaXS-46" edge="1">
          <mxGeometry relative="1" as="geometry" />
        </mxCell>
        <mxCell id="g4sBY3vQFwJTmv0VMaXS-48" style="edgeStyle=orthogonalEdgeStyle;rounded=0;orthogonalLoop=1;jettySize=auto;html=1;exitX=1;exitY=1;exitDx=0;exitDy=0;exitPerimeter=0;entryX=0;entryY=0.5;entryDx=0;entryDy=0;" parent="g4sBY3vQFwJTmv0VMaXS-29" source="g4sBY3vQFwJTmv0VMaXS-46" target="z2xvUa6bOidR-Bl0gTQm-128" edge="1">
          <mxGeometry relative="1" as="geometry">
            <mxPoint x="300" y="220" as="targetPoint" />
            <Array as="points">
              <mxPoint x="150" y="220" />
              <mxPoint x="150" y="220" />
            </Array>
          </mxGeometry>
        </mxCell>
        <mxCell id="bjaMCamKSF5sM4Zxcl0b-8" style="edgeStyle=orthogonalEdgeStyle;rounded=0;orthogonalLoop=1;jettySize=auto;html=1;exitX=0.5;exitY=1;exitDx=0;exitDy=0;entryX=0;entryY=0.5;entryDx=0;entryDy=0;" parent="g4sBY3vQFwJTmv0VMaXS-29" source="bjaMCamKSF5sM4Zxcl0b-6" target="bjaMCamKSF5sM4Zxcl0b-7" edge="1">
          <mxGeometry relative="1" as="geometry">
            <Array as="points">
              <mxPoint x="80" y="600" />
              <mxPoint x="685" y="600" />
            </Array>
            <mxPoint x="80" y="719.9999999999998" as="sourcePoint" />
          </mxGeometry>
        </mxCell>
        <mxCell id="z2xvUa6bOidR-Bl0gTQm-130" value="拒绝" style="edgeStyle=orthogonalEdgeStyle;rounded=0;orthogonalLoop=1;jettySize=auto;html=1;exitX=1;exitY=0.5;exitDx=0;exitDy=0;entryX=0;entryY=0.5;entryDx=0;entryDy=0;" parent="g4sBY3vQFwJTmv0VMaXS-29" source="z2xvUa6bOidR-Bl0gTQm-128" target="z2xvUa6bOidR-Bl0gTQm-129" edge="1">
          <mxGeometry relative="1" as="geometry" />
        </mxCell>
        <mxCell id="z2xvUa6bOidR-Bl0gTQm-133" style="edgeStyle=orthogonalEdgeStyle;rounded=0;orthogonalLoop=1;jettySize=auto;html=1;exitX=0.5;exitY=1;exitDx=0;exitDy=0;entryX=1;entryY=0.5;entryDx=0;entryDy=0;" parent="g4sBY3vQFwJTmv0VMaXS-29" source="z2xvUa6bOidR-Bl0gTQm-129" target="z2xvUa6bOidR-Bl0gTQm-132" edge="1">
          <mxGeometry relative="1" as="geometry" />
        </mxCell>
        <mxCell id="z2xvUa6bOidR-Bl0gTQm-138" style="edgeStyle=orthogonalEdgeStyle;rounded=0;orthogonalLoop=1;jettySize=auto;html=1;exitX=0.5;exitY=1;exitDx=0;exitDy=0;entryX=0.5;entryY=0;entryDx=0;entryDy=0;" parent="g4sBY3vQFwJTmv0VMaXS-29" source="bjaMCamKSF5sM4Zxcl0b-7" target="z2xvUa6bOidR-Bl0gTQm-137" edge="1">
          <mxGeometry relative="1" as="geometry" />
        </mxCell>
        <mxCell id="t0FxqeCYsKIWs9JOHYrU-9" value="Text" style="edgeLabel;html=1;align=center;verticalAlign=middle;resizable=0;points=[];" parent="z2xvUa6bOidR-Bl0gTQm-138" vertex="1" connectable="0">
          <mxGeometry x="0.3565" relative="1" as="geometry">
            <mxPoint as="offset" />
          </mxGeometry>
        </mxCell>
        <mxCell id="z2xvUa6bOidR-Bl0gTQm-140" style="edgeStyle=orthogonalEdgeStyle;rounded=0;orthogonalLoop=1;jettySize=auto;html=1;exitX=1;exitY=0.5;exitDx=0;exitDy=0;entryX=0;entryY=0.5;entryDx=0;entryDy=0;" parent="g4sBY3vQFwJTmv0VMaXS-29" source="z2xvUa6bOidR-Bl0gTQm-137" target="z2xvUa6bOidR-Bl0gTQm-139" edge="1">
          <mxGeometry relative="1" as="geometry" />
        </mxCell>
        <mxCell id="z2xvUa6bOidR-Bl0gTQm-189" style="edgeStyle=orthogonalEdgeStyle;rounded=0;orthogonalLoop=1;jettySize=auto;html=1;exitX=0.5;exitY=1;exitDx=0;exitDy=0;fontColor=#CC0000;" parent="g4sBY3vQFwJTmv0VMaXS-29" source="z2xvUa6bOidR-Bl0gTQm-143" target="z2xvUa6bOidR-Bl0gTQm-145" edge="1">
          <mxGeometry relative="1" as="geometry" />
        </mxCell>
        <mxCell id="g4sBY3vQFwJTmv0VMaXS-39" value="深网" style="swimlane;startSize=20;strokeColor=#808080;dashed=1;dashPattern=1 1;" parent="g4sBY3vQFwJTmv0VMaXS-29" vertex="1">
          <mxGeometry x="670" width="120" height="1490" as="geometry" />
        </mxCell>
        <mxCell id="bjaMCamKSF5sM4Zxcl0b-7" value="加入频道" style="rounded=0;whiteSpace=wrap;html=1;" parent="g4sBY3vQFwJTmv0VMaXS-39" vertex="1">
          <mxGeometry x="15" y="580" width="90" height="40" as="geometry" />
        </mxCell>
        <mxCell id="z2xvUa6bOidR-Bl0gTQm-145" value="加入频道" style="rounded=0;whiteSpace=wrap;html=1;fillColor=#f8cecc;strokeColor=#b85450;" parent="g4sBY3vQFwJTmv0VMaXS-39" vertex="1">
          <mxGeometry x="15" y="780" width="90" height="40" as="geometry" />
        </mxCell>
        <mxCell id="z2xvUa6bOidR-Bl0gTQm-190" style="edgeStyle=orthogonalEdgeStyle;rounded=0;orthogonalLoop=1;jettySize=auto;html=1;exitX=0.5;exitY=1;exitDx=0;exitDy=0;fontColor=#CC0000;entryX=0.5;entryY=0;entryDx=0;entryDy=0;" parent="g4sBY3vQFwJTmv0VMaXS-29" source="z2xvUa6bOidR-Bl0gTQm-145" target="z2xvUa6bOidR-Bl0gTQm-191" edge="1">
          <mxGeometry relative="1" as="geometry">
            <mxPoint x="80.00000000000023" y="890" as="targetPoint" />
          </mxGeometry>
        </mxCell>
        <mxCell id="t0FxqeCYsKIWs9JOHYrU-3" style="edgeStyle=orthogonalEdgeStyle;rounded=0;orthogonalLoop=1;jettySize=auto;html=1;exitX=1;exitY=0.5;exitDx=0;exitDy=0;entryX=0;entryY=0.5;entryDx=0;entryDy=0;" parent="g4sBY3vQFwJTmv0VMaXS-29" source="g4sBY3vQFwJTmv0VMaXS-42" target="g4sBY3vQFwJTmv0VMaXS-45" edge="1">
          <mxGeometry relative="1" as="geometry" />
        </mxCell>
        <mxCell id="t0FxqeCYsKIWs9JOHYrU-5" value="是" style="edgeLabel;html=1;align=center;verticalAlign=middle;resizable=0;points=[];" parent="t0FxqeCYsKIWs9JOHYrU-3" vertex="1" connectable="0">
          <mxGeometry x="-0.5676" y="-1" relative="1" as="geometry">
            <mxPoint as="offset" />
          </mxGeometry>
        </mxCell>
        <mxCell id="t0FxqeCYsKIWs9JOHYrU-4" value="否" style="edgeStyle=orthogonalEdgeStyle;rounded=0;orthogonalLoop=1;jettySize=auto;html=1;exitX=1;exitY=0.5;exitDx=0;exitDy=0;entryX=0.5;entryY=0;entryDx=0;entryDy=0;entryPerimeter=0;" parent="g4sBY3vQFwJTmv0VMaXS-29" source="g4sBY3vQFwJTmv0VMaXS-55" target="g4sBY3vQFwJTmv0VMaXS-40" edge="1">
          <mxGeometry relative="1" as="geometry">
            <mxPoint x="195" y="40" as="targetPoint" />
            <Array as="points">
              <mxPoint x="380" y="70" />
              <mxPoint x="380" y="30" />
              <mxPoint x="195" y="30" />
            </Array>
          </mxGeometry>
        </mxCell>
        <mxCell id="t0FxqeCYsKIWs9JOHYrU-15" style="edgeStyle=orthogonalEdgeStyle;rounded=0;orthogonalLoop=1;jettySize=auto;html=1;exitX=1;exitY=0.5;exitDx=0;exitDy=0;" parent="g4sBY3vQFwJTmv0VMaXS-29" source="t0FxqeCYsKIWs9JOHYrU-11" target="z2xvUa6bOidR-Bl0gTQm-141" edge="1">
          <mxGeometry relative="1" as="geometry" />
        </mxCell>
        <mxCell id="t0FxqeCYsKIWs9JOHYrU-16" value="是" style="edgeLabel;html=1;align=center;verticalAlign=middle;resizable=0;points=[];" parent="t0FxqeCYsKIWs9JOHYrU-15" vertex="1" connectable="0">
          <mxGeometry x="-0.475" y="-2" relative="1" as="geometry">
            <mxPoint as="offset" />
          </mxGeometry>
        </mxCell>
        <mxCell id="pI7oZdxJtOxQLC7SE2ko-3" style="edgeStyle=orthogonalEdgeStyle;rounded=0;orthogonalLoop=1;jettySize=auto;html=1;exitX=1;exitY=0.5;exitDx=0;exitDy=0;entryX=0;entryY=0.5;entryDx=0;entryDy=0;labelBackgroundColor=default;fontColor=default;strokeColor=default;" parent="g4sBY3vQFwJTmv0VMaXS-29" source="z2xvUa6bOidR-Bl0gTQm-187" target="z2xvUa6bOidR-Bl0gTQm-141" edge="1">
          <mxGeometry relative="1" as="geometry" />
        </mxCell>
        <mxCell id="pI7oZdxJtOxQLC7SE2ko-4" style="edgeStyle=orthogonalEdgeStyle;rounded=0;orthogonalLoop=1;jettySize=auto;html=1;exitX=0.5;exitY=1;exitDx=0;exitDy=0;entryX=0.5;entryY=0;entryDx=0;entryDy=0;labelBackgroundColor=default;fontColor=default;strokeColor=default;" parent="g4sBY3vQFwJTmv0VMaXS-29" source="z2xvUa6bOidR-Bl0gTQm-141" target="z2xvUa6bOidR-Bl0gTQm-143" edge="1">
          <mxGeometry relative="1" as="geometry">
            <Array as="points">
              <mxPoint x="525" y="782" />
              <mxPoint x="256" y="782" />
              <mxPoint x="256" y="724" />
              <mxPoint x="200" y="724" />
            </Array>
          </mxGeometry>
        </mxCell>
        <mxCell id="t0FxqeCYsKIWs9JOHYrU-13" style="edgeStyle=orthogonalEdgeStyle;rounded=0;orthogonalLoop=1;jettySize=auto;html=1;exitX=0.5;exitY=1;exitDx=0;exitDy=0;entryX=0.5;entryY=0;entryDx=0;entryDy=0;strokeColor=default;labelBackgroundColor=default;fontColor=default;" parent="g4sBY3vQFwJTmv0VMaXS-29" source="t0FxqeCYsKIWs9JOHYrU-11" target="bjaMCamKSF5sM4Zxcl0b-6" edge="1">
          <mxGeometry relative="1" as="geometry">
            <mxPoint x="345" y="480" as="targetPoint" />
          </mxGeometry>
        </mxCell>
        <mxCell id="t0FxqeCYsKIWs9JOHYrU-14" value="否" style="edgeLabel;html=1;align=center;verticalAlign=middle;resizable=0;points=[];" parent="t0FxqeCYsKIWs9JOHYrU-13" vertex="1" connectable="0">
          <mxGeometry x="-0.1455" y="-3" relative="1" as="geometry">
            <mxPoint as="offset" />
          </mxGeometry>
        </mxCell>
        <mxCell id="bjaMCamKSF5sM4Zxcl0b-14" value="" style="endArrow=classic;html=1;rounded=0;" parent="1" edge="1">
          <mxGeometry width="50" height="50" relative="1" as="geometry">
            <mxPoint x="200" y="2240" as="sourcePoint" />
            <mxPoint x="960" y="2240" as="targetPoint" />
          </mxGeometry>
        </mxCell>
        <mxCell id="bjaMCamKSF5sM4Zxcl0b-15" value="用户A加入" style="text;html=1;strokeColor=none;fillColor=none;align=center;verticalAlign=middle;whiteSpace=wrap;rounded=0;dashed=1;dashPattern=1 1;" parent="1" vertex="1">
          <mxGeometry x="250" y="2210" width="60" height="30" as="geometry" />
        </mxCell>
        <mxCell id="bjaMCamKSF5sM4Zxcl0b-16" value="主播加入" style="text;html=1;strokeColor=none;fillColor=none;align=center;verticalAlign=middle;whiteSpace=wrap;rounded=0;dashed=1;dashPattern=1 1;" parent="1" vertex="1">
          <mxGeometry x="410" y="2210" width="60" height="30" as="geometry" />
        </mxCell>
        <mxCell id="bjaMCamKSF5sM4Zxcl0b-17" value="用户B加入" style="text;html=1;strokeColor=none;fillColor=none;align=center;verticalAlign=middle;whiteSpace=wrap;rounded=0;dashed=1;dashPattern=1 1;" parent="1" vertex="1">
          <mxGeometry x="560" y="2210" width="60" height="30" as="geometry" />
        </mxCell>
        <mxCell id="bjaMCamKSF5sM4Zxcl0b-18" value="0" style="text;html=1;strokeColor=none;fillColor=none;align=center;verticalAlign=middle;whiteSpace=wrap;rounded=0;dashed=1;dashPattern=1 1;" parent="1" vertex="1">
          <mxGeometry x="250" y="2240" width="60" height="30" as="geometry" />
        </mxCell>
        <mxCell id="bjaMCamKSF5sM4Zxcl0b-19" value="20" style="text;html=1;strokeColor=none;fillColor=none;align=center;verticalAlign=middle;whiteSpace=wrap;rounded=0;dashed=1;dashPattern=1 1;" parent="1" vertex="1">
          <mxGeometry x="410" y="2240" width="60" height="30" as="geometry" />
        </mxCell>
        <mxCell id="bjaMCamKSF5sM4Zxcl0b-20" value="40" style="text;html=1;strokeColor=none;fillColor=none;align=center;verticalAlign=middle;whiteSpace=wrap;rounded=0;dashed=1;dashPattern=1 1;" parent="1" vertex="1">
          <mxGeometry x="560" y="2240" width="60" height="30" as="geometry" />
        </mxCell>
        <mxCell id="bjaMCamKSF5sM4Zxcl0b-21" value="用户A计费时间点" style="text;html=1;strokeColor=none;fillColor=none;align=center;verticalAlign=middle;whiteSpace=wrap;rounded=0;dashed=1;dashPattern=1 1;" parent="1" vertex="1">
          <mxGeometry x="410" y="2270" width="60" height="40" as="geometry" />
        </mxCell>
        <mxCell id="bjaMCamKSF5sM4Zxcl0b-22" value="用户B计费时间点" style="text;html=1;strokeColor=none;fillColor=none;align=center;verticalAlign=middle;whiteSpace=wrap;rounded=0;dashed=1;dashPattern=1 1;" parent="1" vertex="1">
          <mxGeometry x="560" y="2270" width="60" height="40" as="geometry" />
        </mxCell>
        <mxCell id="z2xvUa6bOidR-Bl0gTQm-1" value="Pool" style="swimlane;childLayout=stackLayout;resizeParent=1;resizeParentMax=0;startSize=20;horizontal=0;horizontalStack=1;strokeColor=#b85450;dashed=1;dashPattern=1 1;fillColor=#f8cecc;fontColor=default;" parent="1" vertex="1">
          <mxGeometry x="1210" y="670" width="940" height="1510" as="geometry" />
        </mxCell>
        <mxCell id="z2xvUa6bOidR-Bl0gTQm-2" value="主播" style="swimlane;startSize=20;strokeColor=#808080;dashed=1;dashPattern=1 1;" parent="z2xvUa6bOidR-Bl0gTQm-1" vertex="1">
          <mxGeometry x="20" width="120" height="1510" as="geometry" />
        </mxCell>
        <mxCell id="z2xvUa6bOidR-Bl0gTQm-3" value="应答方" style="shape=umlActor;verticalLabelPosition=bottom;verticalAlign=top;html=1;outlineConnect=0;" parent="z2xvUa6bOidR-Bl0gTQm-2" vertex="1">
          <mxGeometry x="45" y="310" width="30" height="60" as="geometry" />
        </mxCell>
        <mxCell id="z2xvUa6bOidR-Bl0gTQm-110" value="加入成功" style="rounded=0;whiteSpace=wrap;html=1;" parent="z2xvUa6bOidR-Bl0gTQm-2" vertex="1">
          <mxGeometry x="15" y="510" width="90" height="40" as="geometry" />
        </mxCell>
        <mxCell id="z2xvUa6bOidR-Bl0gTQm-165" value="SDK加入频道" style="rounded=0;whiteSpace=wrap;html=1;" parent="z2xvUa6bOidR-Bl0gTQm-2" vertex="1">
          <mxGeometry x="15" y="430" width="90" height="40" as="geometry" />
        </mxCell>
        <mxCell id="z2xvUa6bOidR-Bl0gTQm-9" value="客户" style="swimlane;startSize=20;strokeColor=#808080;dashed=1;dashPattern=1 1;fillColor=default;fontColor=default;" parent="z2xvUa6bOidR-Bl0gTQm-1" vertex="1">
          <mxGeometry x="140" width="270" height="1510" as="geometry" />
        </mxCell>
        <mxCell id="z2xvUa6bOidR-Bl0gTQm-10" value="呼叫方" style="shape=umlActor;verticalLabelPosition=bottom;verticalAlign=top;html=1;outlineConnect=0;" parent="z2xvUa6bOidR-Bl0gTQm-9" vertex="1">
          <mxGeometry x="40" y="40" width="30" height="60" as="geometry" />
        </mxCell>
        <mxCell id="z2xvUa6bOidR-Bl0gTQm-88" value="SDK加入频道" style="rounded=0;whiteSpace=wrap;html=1;" parent="z2xvUa6bOidR-Bl0gTQm-9" vertex="1">
          <mxGeometry x="15" y="150" width="90" height="40" as="geometry" />
        </mxCell>
        <mxCell id="z2xvUa6bOidR-Bl0gTQm-94" value="加入成功" style="rounded=0;whiteSpace=wrap;html=1;" parent="z2xvUa6bOidR-Bl0gTQm-9" vertex="1">
          <mxGeometry x="15" y="210" width="90" height="40" as="geometry" />
        </mxCell>
        <mxCell id="pI7oZdxJtOxQLC7SE2ko-134" value="Pool" style="swimlane;childLayout=stackLayout;resizeParent=1;resizeParentMax=0;startSize=20;horizontal=0;horizontalStack=1;strokeColor=#E6E6E6;dashed=1;dashPattern=1 1;fillColor=default;fontColor=default;" parent="z2xvUa6bOidR-Bl0gTQm-9" vertex="1">
          <mxGeometry x="1360" y="-100" width="1080" height="1510" as="geometry" />
        </mxCell>
        <mxCell id="pI7oZdxJtOxQLC7SE2ko-135" value="用户A" style="swimlane;startSize=20;strokeColor=#808080;dashed=1;dashPattern=1 1;fontColor=default;fillColor=default;" parent="pI7oZdxJtOxQLC7SE2ko-134" vertex="1">
          <mxGeometry x="20" width="290" height="1510" as="geometry" />
        </mxCell>
        <mxCell id="pI7oZdxJtOxQLC7SE2ko-196" style="edgeStyle=orthogonalEdgeStyle;rounded=0;orthogonalLoop=1;jettySize=auto;html=1;entryX=0.5;entryY=0;entryDx=0;entryDy=0;labelBackgroundColor=default;fontColor=default;strokeColor=default;" parent="pI7oZdxJtOxQLC7SE2ko-135" source="pI7oZdxJtOxQLC7SE2ko-136" target="pI7oZdxJtOxQLC7SE2ko-195" edge="1">
          <mxGeometry relative="1" as="geometry" />
        </mxCell>
        <mxCell id="pI7oZdxJtOxQLC7SE2ko-136" value="用户A" style="shape=umlActor;verticalLabelPosition=bottom;verticalAlign=top;html=1;outlineConnect=0;fillColor=default;strokeColor=default;fontColor=default;" parent="pI7oZdxJtOxQLC7SE2ko-135" vertex="1">
          <mxGeometry x="75" y="350" width="30" height="60" as="geometry" />
        </mxCell>
        <mxCell id="pI7oZdxJtOxQLC7SE2ko-195" value="" style="rhombus;whiteSpace=wrap;html=1;labelBackgroundColor=default;fontColor=default;strokeColor=default;fillColor=default;" parent="pI7oZdxJtOxQLC7SE2ko-135" vertex="1">
          <mxGeometry x="70" y="470" width="40" height="40" as="geometry" />
        </mxCell>
        <mxCell id="pI7oZdxJtOxQLC7SE2ko-268" style="edgeStyle=orthogonalEdgeStyle;rounded=0;orthogonalLoop=1;jettySize=auto;html=1;exitX=0.5;exitY=1;exitDx=0;exitDy=0;labelBackgroundColor=default;fontColor=default;strokeColor=default;" parent="pI7oZdxJtOxQLC7SE2ko-135" source="pI7oZdxJtOxQLC7SE2ko-260" target="pI7oZdxJtOxQLC7SE2ko-267" edge="1">
          <mxGeometry relative="1" as="geometry" />
        </mxCell>
        <mxCell id="pI7oZdxJtOxQLC7SE2ko-260" value="通知呼叫方" style="rounded=0;whiteSpace=wrap;html=1;fillColor=default;strokeColor=default;fontColor=default;" parent="pI7oZdxJtOxQLC7SE2ko-135" vertex="1">
          <mxGeometry x="35" y="710" width="90" height="40" as="geometry" />
        </mxCell>
        <mxCell id="pI7oZdxJtOxQLC7SE2ko-273" value="已加入" style="edgeStyle=orthogonalEdgeStyle;rounded=0;orthogonalLoop=1;jettySize=auto;html=1;exitX=0.5;exitY=1;exitDx=0;exitDy=0;entryX=0.5;entryY=0;entryDx=0;entryDy=0;labelBackgroundColor=default;fontColor=default;strokeColor=default;" parent="pI7oZdxJtOxQLC7SE2ko-135" source="pI7oZdxJtOxQLC7SE2ko-267" target="pI7oZdxJtOxQLC7SE2ko-272" edge="1">
          <mxGeometry relative="1" as="geometry" />
        </mxCell>
        <mxCell id="pI7oZdxJtOxQLC7SE2ko-278" value="未加入" style="edgeStyle=orthogonalEdgeStyle;rounded=0;orthogonalLoop=1;jettySize=auto;html=1;exitX=1;exitY=0.5;exitDx=0;exitDy=0;entryX=0;entryY=0.5;entryDx=0;entryDy=0;labelBackgroundColor=default;fontColor=default;strokeColor=default;" parent="pI7oZdxJtOxQLC7SE2ko-135" source="pI7oZdxJtOxQLC7SE2ko-267" target="pI7oZdxJtOxQLC7SE2ko-277" edge="1">
          <mxGeometry relative="1" as="geometry" />
        </mxCell>
        <mxCell id="pI7oZdxJtOxQLC7SE2ko-267" value="" style="rhombus;whiteSpace=wrap;html=1;labelBackgroundColor=default;fontColor=default;strokeColor=default;fillColor=default;" parent="pI7oZdxJtOxQLC7SE2ko-135" vertex="1">
          <mxGeometry x="60" y="870" width="40" height="40" as="geometry" />
        </mxCell>
        <mxCell id="pI7oZdxJtOxQLC7SE2ko-272" value="建立链接" style="rounded=0;whiteSpace=wrap;html=1;fillColor=default;strokeColor=default;fontColor=default;" parent="pI7oZdxJtOxQLC7SE2ko-135" vertex="1">
          <mxGeometry x="35" y="1080" width="90" height="40" as="geometry" />
        </mxCell>
        <mxCell id="pI7oZdxJtOxQLC7SE2ko-277" value="申请加入" style="rounded=0;whiteSpace=wrap;html=1;fillColor=default;strokeColor=default;fontColor=default;" parent="pI7oZdxJtOxQLC7SE2ko-135" vertex="1">
          <mxGeometry x="180" y="870" width="90" height="40" as="geometry" />
        </mxCell>
        <mxCell id="pI7oZdxJtOxQLC7SE2ko-282" style="edgeStyle=orthogonalEdgeStyle;rounded=0;orthogonalLoop=1;jettySize=auto;html=1;exitX=0.5;exitY=1;exitDx=0;exitDy=0;entryX=0.5;entryY=0;entryDx=0;entryDy=0;labelBackgroundColor=default;fontColor=default;strokeColor=default;" parent="pI7oZdxJtOxQLC7SE2ko-135" source="pI7oZdxJtOxQLC7SE2ko-281" target="pI7oZdxJtOxQLC7SE2ko-272" edge="1">
          <mxGeometry relative="1" as="geometry" />
        </mxCell>
        <mxCell id="pI7oZdxJtOxQLC7SE2ko-281" value="同步通知" style="rounded=0;whiteSpace=wrap;html=1;fillColor=default;strokeColor=default;fontColor=default;" parent="pI7oZdxJtOxQLC7SE2ko-135" vertex="1">
          <mxGeometry x="180" y="950" width="90" height="40" as="geometry" />
        </mxCell>
        <mxCell id="pI7oZdxJtOxQLC7SE2ko-140" value="用户B" style="swimlane;startSize=20;strokeColor=#808080;dashed=1;dashPattern=1 1;fontColor=default;fillColor=default;" parent="pI7oZdxJtOxQLC7SE2ko-134" vertex="1">
          <mxGeometry x="310" width="190" height="1510" as="geometry" />
        </mxCell>
        <mxCell id="pI7oZdxJtOxQLC7SE2ko-141" value="用户B" style="shape=umlActor;verticalLabelPosition=bottom;verticalAlign=top;html=1;outlineConnect=0;fillColor=default;strokeColor=default;fontColor=default;" parent="pI7oZdxJtOxQLC7SE2ko-140" vertex="1">
          <mxGeometry x="85" y="50" width="30" height="60" as="geometry" />
        </mxCell>
        <mxCell id="pI7oZdxJtOxQLC7SE2ko-193" value="未通过" style="edgeStyle=orthogonalEdgeStyle;rounded=0;orthogonalLoop=1;jettySize=auto;html=1;exitX=0.5;exitY=1;exitDx=0;exitDy=0;labelBackgroundColor=default;fontColor=default;strokeColor=default;" parent="pI7oZdxJtOxQLC7SE2ko-140" source="pI7oZdxJtOxQLC7SE2ko-187" target="pI7oZdxJtOxQLC7SE2ko-192" edge="1">
          <mxGeometry relative="1" as="geometry" />
        </mxCell>
        <mxCell id="pI7oZdxJtOxQLC7SE2ko-187" value="" style="rhombus;whiteSpace=wrap;html=1;labelBackgroundColor=default;fontColor=default;strokeColor=default;fillColor=default;" parent="pI7oZdxJtOxQLC7SE2ko-140" vertex="1">
          <mxGeometry x="75" y="190" width="40" height="40" as="geometry" />
        </mxCell>
        <mxCell id="pI7oZdxJtOxQLC7SE2ko-192" value="退出" style="rounded=0;whiteSpace=wrap;html=1;fillColor=#f8cecc;strokeColor=#b85450;fontColor=default;" parent="pI7oZdxJtOxQLC7SE2ko-140" vertex="1">
          <mxGeometry x="50" y="270" width="90" height="40" as="geometry" />
        </mxCell>
        <mxCell id="pI7oZdxJtOxQLC7SE2ko-202" value="退出" style="rounded=0;whiteSpace=wrap;html=1;fillColor=#f8cecc;strokeColor=#b85450;fontColor=default;" parent="pI7oZdxJtOxQLC7SE2ko-140" vertex="1">
          <mxGeometry x="60" y="630" width="90" height="40" as="geometry" />
        </mxCell>
        <mxCell id="pI7oZdxJtOxQLC7SE2ko-263" value="申请加入" style="rounded=0;whiteSpace=wrap;html=1;fillColor=default;strokeColor=default;fontColor=default;" parent="pI7oZdxJtOxQLC7SE2ko-140" vertex="1">
          <mxGeometry x="60" y="790" width="90" height="40" as="geometry" />
        </mxCell>
        <mxCell id="pI7oZdxJtOxQLC7SE2ko-285" value="同步通知" style="rounded=0;whiteSpace=wrap;html=1;fillColor=default;strokeColor=default;fontColor=default;" parent="pI7oZdxJtOxQLC7SE2ko-140" vertex="1">
          <mxGeometry x="55" y="850" width="90" height="40" as="geometry" />
        </mxCell>
        <mxCell id="pI7oZdxJtOxQLC7SE2ko-144" value="服务端" style="swimlane;startSize=20;strokeColor=#808080;dashed=1;dashPattern=1 1;fillColor=default;fontColor=default;" parent="pI7oZdxJtOxQLC7SE2ko-134" vertex="1">
          <mxGeometry x="500" width="170" height="1510" as="geometry" />
        </mxCell>
        <mxCell id="pI7oZdxJtOxQLC7SE2ko-186" value="呼叫检测" style="rounded=0;whiteSpace=wrap;html=1;fillColor=default;strokeColor=default;fontColor=default;" parent="pI7oZdxJtOxQLC7SE2ko-144" vertex="1">
          <mxGeometry x="30" y="50" width="80" height="40" as="geometry" />
        </mxCell>
        <mxCell id="pI7oZdxJtOxQLC7SE2ko-205" value="获取房间信息" style="rounded=0;whiteSpace=wrap;html=1;fillColor=default;strokeColor=default;fontColor=default;" parent="pI7oZdxJtOxQLC7SE2ko-144" vertex="1">
          <mxGeometry x="40" y="470" width="90" height="40" as="geometry" />
        </mxCell>
        <mxCell id="pI7oZdxJtOxQLC7SE2ko-275" value="异步通知" style="rounded=0;whiteSpace=wrap;html=1;fillColor=default;strokeColor=default;fontColor=default;" parent="pI7oZdxJtOxQLC7SE2ko-144" vertex="1">
          <mxGeometry x="40" y="910" width="90" height="40" as="geometry" />
        </mxCell>
        <mxCell id="pI7oZdxJtOxQLC7SE2ko-283" value="异步通知" style="rounded=0;whiteSpace=wrap;html=1;fillColor=default;strokeColor=default;fontColor=default;" parent="pI7oZdxJtOxQLC7SE2ko-144" vertex="1">
          <mxGeometry x="40" y="830" width="90" height="40" as="geometry" />
        </mxCell>
        <mxCell id="pI7oZdxJtOxQLC7SE2ko-161" style="edgeStyle=orthogonalEdgeStyle;rounded=0;orthogonalLoop=1;jettySize=auto;html=1;exitX=1;exitY=0.3333333333333333;exitDx=0;exitDy=0;exitPerimeter=0;entryX=0;entryY=0.5;entryDx=0;entryDy=0;strokeColor=default;labelBackgroundColor=default;fontColor=default;" parent="pI7oZdxJtOxQLC7SE2ko-134" source="pI7oZdxJtOxQLC7SE2ko-141" target="pI7oZdxJtOxQLC7SE2ko-186" edge="1">
          <mxGeometry relative="1" as="geometry">
            <mxPoint x="315" y="70" as="targetPoint" />
          </mxGeometry>
        </mxCell>
        <mxCell id="pI7oZdxJtOxQLC7SE2ko-157" value="IM" style="swimlane;startSize=20;strokeColor=#808080;dashed=1;dashPattern=1 1;fillColor=default;fontColor=default;" parent="pI7oZdxJtOxQLC7SE2ko-134" vertex="1">
          <mxGeometry x="670" width="240" height="1510" as="geometry" />
        </mxCell>
        <mxCell id="pI7oZdxJtOxQLC7SE2ko-189" value="发起呼叫" style="rounded=0;whiteSpace=wrap;html=1;fillColor=default;strokeColor=default;fontColor=default;" parent="pI7oZdxJtOxQLC7SE2ko-157" vertex="1">
          <mxGeometry x="60" y="190" width="90" height="40" as="geometry" />
        </mxCell>
        <mxCell id="pI7oZdxJtOxQLC7SE2ko-201" value="挂断" style="rounded=0;whiteSpace=wrap;html=1;fillColor=default;strokeColor=default;fontColor=default;" parent="pI7oZdxJtOxQLC7SE2ko-157" vertex="1">
          <mxGeometry x="40" y="550" width="90" height="40" as="geometry" />
        </mxCell>
        <mxCell id="pI7oZdxJtOxQLC7SE2ko-261" value="就绪" style="rounded=0;whiteSpace=wrap;html=1;fillColor=default;strokeColor=default;fontColor=default;" parent="pI7oZdxJtOxQLC7SE2ko-157" vertex="1">
          <mxGeometry x="40" y="710" width="90" height="40" as="geometry" />
        </mxCell>
        <mxCell id="pI7oZdxJtOxQLC7SE2ko-190" style="edgeStyle=orthogonalEdgeStyle;rounded=0;orthogonalLoop=1;jettySize=auto;html=1;exitX=1;exitY=0.5;exitDx=0;exitDy=0;labelBackgroundColor=default;fontColor=default;strokeColor=default;fillColor=default;" parent="pI7oZdxJtOxQLC7SE2ko-134" source="pI7oZdxJtOxQLC7SE2ko-187" target="pI7oZdxJtOxQLC7SE2ko-189" edge="1">
          <mxGeometry relative="1" as="geometry" />
        </mxCell>
        <mxCell id="pI7oZdxJtOxQLC7SE2ko-191" value="通过" style="edgeLabel;html=1;align=center;verticalAlign=middle;resizable=0;points=[];fontColor=default;" parent="pI7oZdxJtOxQLC7SE2ko-190" vertex="1" connectable="0">
          <mxGeometry x="-0.1857" relative="1" as="geometry">
            <mxPoint as="offset" />
          </mxGeometry>
        </mxCell>
        <mxCell id="pI7oZdxJtOxQLC7SE2ko-194" style="edgeStyle=orthogonalEdgeStyle;rounded=0;orthogonalLoop=1;jettySize=auto;html=1;exitX=1;exitY=0.5;exitDx=0;exitDy=0;entryX=1;entryY=0.3333333333333333;entryDx=0;entryDy=0;entryPerimeter=0;labelBackgroundColor=default;fontColor=default;strokeColor=default;" parent="pI7oZdxJtOxQLC7SE2ko-134" source="pI7oZdxJtOxQLC7SE2ko-189" target="pI7oZdxJtOxQLC7SE2ko-136" edge="1">
          <mxGeometry relative="1" as="geometry" />
        </mxCell>
        <mxCell id="pI7oZdxJtOxQLC7SE2ko-198" style="edgeStyle=orthogonalEdgeStyle;rounded=0;orthogonalLoop=1;jettySize=auto;html=1;exitX=1;exitY=0.5;exitDx=0;exitDy=0;labelBackgroundColor=default;fontColor=default;strokeColor=default;" parent="pI7oZdxJtOxQLC7SE2ko-134" source="pI7oZdxJtOxQLC7SE2ko-195" target="pI7oZdxJtOxQLC7SE2ko-205" edge="1">
          <mxGeometry relative="1" as="geometry">
            <mxPoint x="410" y="490" as="targetPoint" />
          </mxGeometry>
        </mxCell>
        <mxCell id="pI7oZdxJtOxQLC7SE2ko-199" value="接听" style="edgeLabel;html=1;align=center;verticalAlign=middle;resizable=0;points=[];fontColor=default;" parent="pI7oZdxJtOxQLC7SE2ko-198" vertex="1" connectable="0">
          <mxGeometry x="-0.1875" y="1" relative="1" as="geometry">
            <mxPoint as="offset" />
          </mxGeometry>
        </mxCell>
        <mxCell id="pI7oZdxJtOxQLC7SE2ko-200" value="拒绝" style="edgeStyle=orthogonalEdgeStyle;rounded=0;orthogonalLoop=1;jettySize=auto;html=1;exitX=0.5;exitY=1;exitDx=0;exitDy=0;labelBackgroundColor=default;fontColor=default;strokeColor=default;entryX=0;entryY=0.5;entryDx=0;entryDy=0;" parent="pI7oZdxJtOxQLC7SE2ko-134" source="pI7oZdxJtOxQLC7SE2ko-195" target="pI7oZdxJtOxQLC7SE2ko-201" edge="1">
          <mxGeometry relative="1" as="geometry">
            <mxPoint x="570" y="610" as="targetPoint" />
          </mxGeometry>
        </mxCell>
        <mxCell id="pI7oZdxJtOxQLC7SE2ko-203" style="edgeStyle=orthogonalEdgeStyle;rounded=0;orthogonalLoop=1;jettySize=auto;html=1;exitX=1;exitY=0.5;exitDx=0;exitDy=0;entryX=1;entryY=0.5;entryDx=0;entryDy=0;labelBackgroundColor=default;fontColor=default;strokeColor=default;" parent="pI7oZdxJtOxQLC7SE2ko-134" source="pI7oZdxJtOxQLC7SE2ko-201" target="pI7oZdxJtOxQLC7SE2ko-202" edge="1">
          <mxGeometry relative="1" as="geometry" />
        </mxCell>
        <mxCell id="pI7oZdxJtOxQLC7SE2ko-206" style="edgeStyle=orthogonalEdgeStyle;rounded=0;orthogonalLoop=1;jettySize=auto;html=1;exitX=0.5;exitY=1;exitDx=0;exitDy=0;labelBackgroundColor=default;fontColor=default;strokeColor=default;" parent="pI7oZdxJtOxQLC7SE2ko-134" source="pI7oZdxJtOxQLC7SE2ko-205" edge="1">
          <mxGeometry relative="1" as="geometry">
            <mxPoint x="90" y="710" as="targetPoint" />
            <Array as="points">
              <mxPoint x="585" y="610" />
              <mxPoint x="90" y="610" />
            </Array>
          </mxGeometry>
        </mxCell>
        <mxCell id="pI7oZdxJtOxQLC7SE2ko-171" value="深网" style="swimlane;startSize=20;strokeColor=#808080;dashed=1;dashPattern=1 1;fillColor=default;fontColor=default;" parent="pI7oZdxJtOxQLC7SE2ko-134" vertex="1">
          <mxGeometry x="910" width="170" height="1510" as="geometry" />
        </mxCell>
        <mxCell id="pI7oZdxJtOxQLC7SE2ko-265" value="加入" style="rounded=0;whiteSpace=wrap;html=1;fillColor=default;strokeColor=default;fontColor=default;" parent="pI7oZdxJtOxQLC7SE2ko-171" vertex="1">
          <mxGeometry x="50" y="790" width="90" height="40" as="geometry" />
        </mxCell>
        <mxCell id="pI7oZdxJtOxQLC7SE2ko-269" value="加入" style="rounded=0;whiteSpace=wrap;html=1;fillColor=default;strokeColor=default;fontColor=default;" parent="pI7oZdxJtOxQLC7SE2ko-171" vertex="1">
          <mxGeometry x="40" y="870" width="90" height="40" as="geometry" />
        </mxCell>
        <mxCell id="pI7oZdxJtOxQLC7SE2ko-262" style="edgeStyle=orthogonalEdgeStyle;rounded=0;orthogonalLoop=1;jettySize=auto;html=1;exitX=1;exitY=0.5;exitDx=0;exitDy=0;labelBackgroundColor=default;fontColor=default;strokeColor=default;" parent="pI7oZdxJtOxQLC7SE2ko-134" source="pI7oZdxJtOxQLC7SE2ko-260" target="pI7oZdxJtOxQLC7SE2ko-261" edge="1">
          <mxGeometry relative="1" as="geometry" />
        </mxCell>
        <mxCell id="pI7oZdxJtOxQLC7SE2ko-264" style="edgeStyle=orthogonalEdgeStyle;rounded=0;orthogonalLoop=1;jettySize=auto;html=1;exitX=0.5;exitY=1;exitDx=0;exitDy=0;labelBackgroundColor=default;fontColor=default;strokeColor=default;" parent="pI7oZdxJtOxQLC7SE2ko-134" source="pI7oZdxJtOxQLC7SE2ko-261" target="pI7oZdxJtOxQLC7SE2ko-263" edge="1">
          <mxGeometry relative="1" as="geometry" />
        </mxCell>
        <mxCell id="pI7oZdxJtOxQLC7SE2ko-266" style="edgeStyle=orthogonalEdgeStyle;rounded=0;orthogonalLoop=1;jettySize=auto;html=1;exitX=1;exitY=0.5;exitDx=0;exitDy=0;labelBackgroundColor=default;fontColor=default;strokeColor=default;" parent="pI7oZdxJtOxQLC7SE2ko-134" source="pI7oZdxJtOxQLC7SE2ko-263" target="pI7oZdxJtOxQLC7SE2ko-265" edge="1">
          <mxGeometry relative="1" as="geometry" />
        </mxCell>
        <mxCell id="pI7oZdxJtOxQLC7SE2ko-276" style="edgeStyle=orthogonalEdgeStyle;rounded=0;orthogonalLoop=1;jettySize=auto;html=1;exitX=1;exitY=0.5;exitDx=0;exitDy=0;entryX=1;entryY=0.5;entryDx=0;entryDy=0;labelBackgroundColor=default;fontColor=default;strokeColor=default;dashed=1;" parent="pI7oZdxJtOxQLC7SE2ko-134" source="pI7oZdxJtOxQLC7SE2ko-269" target="pI7oZdxJtOxQLC7SE2ko-275" edge="1">
          <mxGeometry relative="1" as="geometry" />
        </mxCell>
        <mxCell id="pI7oZdxJtOxQLC7SE2ko-279" style="edgeStyle=orthogonalEdgeStyle;rounded=0;orthogonalLoop=1;jettySize=auto;html=1;exitX=1;exitY=0.5;exitDx=0;exitDy=0;entryX=0;entryY=0.5;entryDx=0;entryDy=0;labelBackgroundColor=default;fontColor=default;strokeColor=default;" parent="pI7oZdxJtOxQLC7SE2ko-134" source="pI7oZdxJtOxQLC7SE2ko-277" target="pI7oZdxJtOxQLC7SE2ko-269" edge="1">
          <mxGeometry relative="1" as="geometry" />
        </mxCell>
        <mxCell id="pI7oZdxJtOxQLC7SE2ko-280" style="edgeStyle=orthogonalEdgeStyle;rounded=0;orthogonalLoop=1;jettySize=auto;html=1;exitX=1;exitY=0.5;exitDx=0;exitDy=0;labelBackgroundColor=default;fontColor=default;strokeColor=default;entryX=1;entryY=0.5;entryDx=0;entryDy=0;" parent="pI7oZdxJtOxQLC7SE2ko-134" source="pI7oZdxJtOxQLC7SE2ko-269" target="pI7oZdxJtOxQLC7SE2ko-281" edge="1">
          <mxGeometry relative="1" as="geometry">
            <mxPoint x="140" y="990" as="targetPoint" />
          </mxGeometry>
        </mxCell>
        <mxCell id="pI7oZdxJtOxQLC7SE2ko-284" style="edgeStyle=orthogonalEdgeStyle;rounded=0;orthogonalLoop=1;jettySize=auto;html=1;exitX=1;exitY=0.5;exitDx=0;exitDy=0;labelBackgroundColor=default;fontColor=default;strokeColor=default;dashed=1;" parent="pI7oZdxJtOxQLC7SE2ko-134" source="pI7oZdxJtOxQLC7SE2ko-265" target="pI7oZdxJtOxQLC7SE2ko-283" edge="1">
          <mxGeometry relative="1" as="geometry" />
        </mxCell>
        <mxCell id="pI7oZdxJtOxQLC7SE2ko-286" style="edgeStyle=orthogonalEdgeStyle;rounded=0;orthogonalLoop=1;jettySize=auto;html=1;exitX=1;exitY=0.5;exitDx=0;exitDy=0;entryX=1;entryY=0.5;entryDx=0;entryDy=0;labelBackgroundColor=default;fontColor=default;strokeColor=default;" parent="pI7oZdxJtOxQLC7SE2ko-134" source="pI7oZdxJtOxQLC7SE2ko-265" target="pI7oZdxJtOxQLC7SE2ko-285" edge="1">
          <mxGeometry relative="1" as="geometry" />
        </mxCell>
        <mxCell id="pI7oZdxJtOxQLC7SE2ko-287" style="edgeStyle=orthogonalEdgeStyle;rounded=0;orthogonalLoop=1;jettySize=auto;html=1;exitX=1;exitY=0.5;exitDx=0;exitDy=0;entryX=0.5;entryY=0;entryDx=0;entryDy=0;labelBackgroundColor=default;fontColor=default;strokeColor=default;" parent="pI7oZdxJtOxQLC7SE2ko-134" source="pI7oZdxJtOxQLC7SE2ko-186" target="pI7oZdxJtOxQLC7SE2ko-187" edge="1">
          <mxGeometry relative="1" as="geometry" />
        </mxCell>
        <mxCell id="z2xvUa6bOidR-Bl0gTQm-11" value="服务端" style="swimlane;startSize=20;strokeColor=#808080;dashed=1;dashPattern=1 1;" parent="z2xvUa6bOidR-Bl0gTQm-1" vertex="1">
          <mxGeometry x="410" width="170" height="1510" as="geometry" />
        </mxCell>
        <mxCell id="z2xvUa6bOidR-Bl0gTQm-86" value="获取声网TOKEN" style="rounded=0;whiteSpace=wrap;html=1;" parent="z2xvUa6bOidR-Bl0gTQm-11" vertex="1">
          <mxGeometry x="50" y="40" width="90" height="40" as="geometry" />
        </mxCell>
        <mxCell id="z2xvUa6bOidR-Bl0gTQm-103" value="呼叫" style="rounded=0;whiteSpace=wrap;html=1;" parent="z2xvUa6bOidR-Bl0gTQm-11" vertex="1">
          <mxGeometry x="50" y="270" width="90" height="40" as="geometry" />
        </mxCell>
        <mxCell id="z2xvUa6bOidR-Bl0gTQm-162" value="获取声网TOKEN" style="rounded=0;whiteSpace=wrap;html=1;" parent="z2xvUa6bOidR-Bl0gTQm-11" vertex="1">
          <mxGeometry x="50" y="350" width="90" height="40" as="geometry" />
        </mxCell>
        <mxCell id="z2xvUa6bOidR-Bl0gTQm-170" value="修改在在线状态" style="rounded=0;whiteSpace=wrap;html=1;" parent="z2xvUa6bOidR-Bl0gTQm-11" vertex="1">
          <mxGeometry x="40" y="180" width="90" height="40" as="geometry" />
        </mxCell>
        <mxCell id="z2xvUa6bOidR-Bl0gTQm-172" value="修改在在线状态" style="rounded=0;whiteSpace=wrap;html=1;" parent="z2xvUa6bOidR-Bl0gTQm-11" vertex="1">
          <mxGeometry x="30" y="470" width="90" height="40" as="geometry" />
        </mxCell>
        <mxCell id="z2xvUa6bOidR-Bl0gTQm-179" value="修改在在线状态" style="rounded=0;whiteSpace=wrap;html=1;" parent="z2xvUa6bOidR-Bl0gTQm-11" vertex="1">
          <mxGeometry x="30" y="570" width="90" height="40" as="geometry" />
        </mxCell>
        <mxCell id="z2xvUa6bOidR-Bl0gTQm-28" value="IM" style="swimlane;startSize=20;strokeColor=#808080;dashed=1;dashPattern=1 1;fillColor=default;fontColor=default;" parent="z2xvUa6bOidR-Bl0gTQm-1" vertex="1">
          <mxGeometry x="580" width="240" height="1510" as="geometry" />
        </mxCell>
        <mxCell id="z2xvUa6bOidR-Bl0gTQm-99" value="IM通知" style="rounded=0;whiteSpace=wrap;html=1;" parent="z2xvUa6bOidR-Bl0gTQm-28" vertex="1">
          <mxGeometry x="75" y="270" width="90" height="40" as="geometry" />
        </mxCell>
        <mxCell id="z2xvUa6bOidR-Bl0gTQm-32" value="深网" style="swimlane;startSize=20;strokeColor=#808080;dashed=1;dashPattern=1 1;" parent="z2xvUa6bOidR-Bl0gTQm-1" vertex="1">
          <mxGeometry x="820" width="120" height="1510" as="geometry" />
        </mxCell>
        <mxCell id="z2xvUa6bOidR-Bl0gTQm-91" value="加入频道" style="rounded=0;whiteSpace=wrap;html=1;" parent="z2xvUa6bOidR-Bl0gTQm-32" vertex="1">
          <mxGeometry x="15" y="150" width="90" height="40" as="geometry" />
        </mxCell>
        <mxCell id="z2xvUa6bOidR-Bl0gTQm-108" value="加入频道" style="rounded=0;whiteSpace=wrap;html=1;" parent="z2xvUa6bOidR-Bl0gTQm-32" vertex="1">
          <mxGeometry x="30" y="430" width="90" height="40" as="geometry" />
        </mxCell>
        <mxCell id="z2xvUa6bOidR-Bl0gTQm-34" style="edgeStyle=orthogonalEdgeStyle;rounded=0;orthogonalLoop=1;jettySize=auto;html=1;exitX=1;exitY=0.3333333333333333;exitDx=0;exitDy=0;exitPerimeter=0;entryX=0;entryY=0.5;entryDx=0;entryDy=0;" parent="z2xvUa6bOidR-Bl0gTQm-1" source="z2xvUa6bOidR-Bl0gTQm-10" target="z2xvUa6bOidR-Bl0gTQm-86" edge="1">
          <mxGeometry relative="1" as="geometry">
            <mxPoint x="300" y="60" as="targetPoint" />
          </mxGeometry>
        </mxCell>
        <mxCell id="z2xvUa6bOidR-Bl0gTQm-89" style="edgeStyle=orthogonalEdgeStyle;rounded=0;orthogonalLoop=1;jettySize=auto;html=1;exitX=0.5;exitY=1;exitDx=0;exitDy=0;entryX=0.5;entryY=0;entryDx=0;entryDy=0;" parent="z2xvUa6bOidR-Bl0gTQm-1" source="z2xvUa6bOidR-Bl0gTQm-86" target="z2xvUa6bOidR-Bl0gTQm-88" edge="1">
          <mxGeometry relative="1" as="geometry">
            <Array as="points">
              <mxPoint x="355" y="130" />
              <mxPoint x="200" y="130" />
            </Array>
          </mxGeometry>
        </mxCell>
        <mxCell id="z2xvUa6bOidR-Bl0gTQm-90" style="edgeStyle=orthogonalEdgeStyle;rounded=0;orthogonalLoop=1;jettySize=auto;html=1;exitX=1;exitY=0.5;exitDx=0;exitDy=0;entryX=0;entryY=0.5;entryDx=0;entryDy=0;" parent="z2xvUa6bOidR-Bl0gTQm-1" source="z2xvUa6bOidR-Bl0gTQm-88" target="z2xvUa6bOidR-Bl0gTQm-91" edge="1">
          <mxGeometry relative="1" as="geometry">
            <mxPoint x="680" y="180" as="targetPoint" />
          </mxGeometry>
        </mxCell>
        <mxCell id="z2xvUa6bOidR-Bl0gTQm-95" style="edgeStyle=orthogonalEdgeStyle;rounded=0;orthogonalLoop=1;jettySize=auto;html=1;exitX=0.5;exitY=1;exitDx=0;exitDy=0;entryX=1;entryY=0.5;entryDx=0;entryDy=0;" parent="z2xvUa6bOidR-Bl0gTQm-1" source="z2xvUa6bOidR-Bl0gTQm-91" target="z2xvUa6bOidR-Bl0gTQm-94" edge="1">
          <mxGeometry relative="1" as="geometry" />
        </mxCell>
        <mxCell id="z2xvUa6bOidR-Bl0gTQm-104" style="edgeStyle=orthogonalEdgeStyle;rounded=0;orthogonalLoop=1;jettySize=auto;html=1;exitX=0.5;exitY=1;exitDx=0;exitDy=0;entryX=0;entryY=0.5;entryDx=0;entryDy=0;" parent="z2xvUa6bOidR-Bl0gTQm-1" source="z2xvUa6bOidR-Bl0gTQm-94" target="z2xvUa6bOidR-Bl0gTQm-103" edge="1">
          <mxGeometry relative="1" as="geometry" />
        </mxCell>
        <mxCell id="z2xvUa6bOidR-Bl0gTQm-107" style="edgeStyle=orthogonalEdgeStyle;rounded=0;orthogonalLoop=1;jettySize=auto;html=1;exitX=1;exitY=0.5;exitDx=0;exitDy=0;entryX=1;entryY=0.3333333333333333;entryDx=0;entryDy=0;entryPerimeter=0;" parent="z2xvUa6bOidR-Bl0gTQm-1" source="z2xvUa6bOidR-Bl0gTQm-99" target="z2xvUa6bOidR-Bl0gTQm-3" edge="1">
          <mxGeometry relative="1" as="geometry" />
        </mxCell>
        <mxCell id="z2xvUa6bOidR-Bl0gTQm-109" style="edgeStyle=orthogonalEdgeStyle;rounded=0;orthogonalLoop=1;jettySize=auto;html=1;exitX=1;exitY=1;exitDx=0;exitDy=0;exitPerimeter=0;entryX=0;entryY=0.5;entryDx=0;entryDy=0;" parent="z2xvUa6bOidR-Bl0gTQm-1" source="z2xvUa6bOidR-Bl0gTQm-3" target="z2xvUa6bOidR-Bl0gTQm-162" edge="1">
          <mxGeometry relative="1" as="geometry">
            <Array as="points">
              <mxPoint x="220" y="370" />
              <mxPoint x="220" y="370" />
            </Array>
          </mxGeometry>
        </mxCell>
        <mxCell id="z2xvUa6bOidR-Bl0gTQm-113" style="edgeStyle=orthogonalEdgeStyle;rounded=0;orthogonalLoop=1;jettySize=auto;html=1;exitX=0.5;exitY=1;exitDx=0;exitDy=0;entryX=1;entryY=0.5;entryDx=0;entryDy=0;" parent="z2xvUa6bOidR-Bl0gTQm-1" source="z2xvUa6bOidR-Bl0gTQm-108" target="z2xvUa6bOidR-Bl0gTQm-110" edge="1">
          <mxGeometry relative="1" as="geometry">
            <Array as="points">
              <mxPoint x="745" y="530" />
              <mxPoint x="125" y="530" />
            </Array>
          </mxGeometry>
        </mxCell>
        <mxCell id="z2xvUa6bOidR-Bl0gTQm-159" style="edgeStyle=orthogonalEdgeStyle;rounded=0;orthogonalLoop=1;jettySize=auto;html=1;exitX=1;exitY=0.5;exitDx=0;exitDy=0;entryX=0;entryY=0.5;entryDx=0;entryDy=0;fontColor=#CC0000;" parent="z2xvUa6bOidR-Bl0gTQm-1" source="z2xvUa6bOidR-Bl0gTQm-103" target="z2xvUa6bOidR-Bl0gTQm-99" edge="1">
          <mxGeometry relative="1" as="geometry" />
        </mxCell>
        <mxCell id="z2xvUa6bOidR-Bl0gTQm-163" style="edgeStyle=orthogonalEdgeStyle;rounded=0;orthogonalLoop=1;jettySize=auto;html=1;exitX=1;exitY=0.5;exitDx=0;exitDy=0;fontColor=#CC0000;entryX=0.5;entryY=0;entryDx=0;entryDy=0;" parent="z2xvUa6bOidR-Bl0gTQm-1" source="z2xvUa6bOidR-Bl0gTQm-162" target="z2xvUa6bOidR-Bl0gTQm-165" edge="1">
          <mxGeometry relative="1" as="geometry">
            <mxPoint x="110" y="499.9999999999998" as="targetPoint" />
            <Array as="points">
              <mxPoint x="420" y="370" />
              <mxPoint x="420" y="410" />
              <mxPoint x="80" y="410" />
            </Array>
          </mxGeometry>
        </mxCell>
        <mxCell id="z2xvUa6bOidR-Bl0gTQm-166" style="edgeStyle=orthogonalEdgeStyle;rounded=0;orthogonalLoop=1;jettySize=auto;html=1;exitX=1;exitY=0.5;exitDx=0;exitDy=0;fontColor=#CC0000;" parent="z2xvUa6bOidR-Bl0gTQm-1" source="z2xvUa6bOidR-Bl0gTQm-165" target="z2xvUa6bOidR-Bl0gTQm-108" edge="1">
          <mxGeometry relative="1" as="geometry" />
        </mxCell>
        <mxCell id="z2xvUa6bOidR-Bl0gTQm-171" style="edgeStyle=orthogonalEdgeStyle;rounded=0;orthogonalLoop=1;jettySize=auto;html=1;exitX=0.25;exitY=1;exitDx=0;exitDy=0;entryX=1;entryY=0.5;entryDx=0;entryDy=0;fontColor=#CC0000;dashed=1;" parent="z2xvUa6bOidR-Bl0gTQm-1" source="z2xvUa6bOidR-Bl0gTQm-91" target="z2xvUa6bOidR-Bl0gTQm-170" edge="1">
          <mxGeometry relative="1" as="geometry">
            <Array as="points">
              <mxPoint x="708" y="200" />
            </Array>
          </mxGeometry>
        </mxCell>
        <mxCell id="z2xvUa6bOidR-Bl0gTQm-173" style="edgeStyle=orthogonalEdgeStyle;rounded=0;orthogonalLoop=1;jettySize=auto;html=1;exitX=0.25;exitY=1;exitDx=0;exitDy=0;entryX=1;entryY=0.5;entryDx=0;entryDy=0;dashed=1;fontColor=#CC0000;" parent="z2xvUa6bOidR-Bl0gTQm-1" source="z2xvUa6bOidR-Bl0gTQm-108" target="z2xvUa6bOidR-Bl0gTQm-172" edge="1">
          <mxGeometry relative="1" as="geometry" />
        </mxCell>
        <mxCell id="z2xvUa6bOidR-Bl0gTQm-180" style="edgeStyle=orthogonalEdgeStyle;rounded=0;orthogonalLoop=1;jettySize=auto;html=1;exitX=0.5;exitY=1;exitDx=0;exitDy=0;entryX=0;entryY=0.5;entryDx=0;entryDy=0;fontColor=#CC0000;" parent="z2xvUa6bOidR-Bl0gTQm-1" source="z2xvUa6bOidR-Bl0gTQm-110" target="z2xvUa6bOidR-Bl0gTQm-179" edge="1">
          <mxGeometry relative="1" as="geometry" />
        </mxCell>
        <mxCell id="z2xvUa6bOidR-Bl0gTQm-167" value="离开" style="text;html=1;strokeColor=none;fillColor=none;align=center;verticalAlign=middle;whiteSpace=wrap;rounded=0;fontColor=#CC0000;" parent="1" vertex="1">
          <mxGeometry x="2106" y="728" width="60" height="30" as="geometry" />
        </mxCell>
        <mxCell id="z2xvUa6bOidR-Bl0gTQm-168" value="呼叫前调用声网接口检测用户是否在线，在线则更新状态" style="text;html=1;strokeColor=none;fillColor=none;align=center;verticalAlign=middle;whiteSpace=wrap;rounded=0;fontColor=#CC0000;" parent="1" vertex="1">
          <mxGeometry x="2100" y="930" width="134" height="54" as="geometry" />
        </mxCell>
        <mxCell id="z2xvUa6bOidR-Bl0gTQm-169" value="离开" style="text;html=1;strokeColor=none;fillColor=none;align=center;verticalAlign=middle;whiteSpace=wrap;rounded=0;fontColor=#CC0000;" parent="1" vertex="1">
          <mxGeometry x="2106" y="1040" width="60" height="30" as="geometry" />
        </mxCell>
        <mxCell id="z2xvUa6bOidR-Bl0gTQm-177" style="edgeStyle=orthogonalEdgeStyle;rounded=0;orthogonalLoop=1;jettySize=auto;html=1;exitX=0.25;exitY=1;exitDx=0;exitDy=0;dashed=1;fontColor=#CC0000;" parent="1" source="z2xvUa6bOidR-Bl0gTQm-174" target="z2xvUa6bOidR-Bl0gTQm-175" edge="1">
          <mxGeometry relative="1" as="geometry" />
        </mxCell>
        <mxCell id="z2xvUa6bOidR-Bl0gTQm-178" style="edgeStyle=orthogonalEdgeStyle;rounded=0;orthogonalLoop=1;jettySize=auto;html=1;exitX=0.75;exitY=1;exitDx=0;exitDy=0;dashed=1;fontColor=#CC0000;" parent="1" source="z2xvUa6bOidR-Bl0gTQm-174" target="z2xvUa6bOidR-Bl0gTQm-176" edge="1">
          <mxGeometry relative="1" as="geometry" />
        </mxCell>
        <mxCell id="z2xvUa6bOidR-Bl0gTQm-174" value="房间" style="rounded=0;whiteSpace=wrap;html=1;fontColor=#CC0000;" parent="1" vertex="1">
          <mxGeometry x="2140" y="1120" width="80" height="40" as="geometry" />
        </mxCell>
        <mxCell id="z2xvUa6bOidR-Bl0gTQm-175" value="成员1" style="rounded=0;whiteSpace=wrap;html=1;fontColor=#CC0000;" parent="1" vertex="1">
          <mxGeometry x="2080" y="1200" width="80" height="40" as="geometry" />
        </mxCell>
        <mxCell id="z2xvUa6bOidR-Bl0gTQm-176" value="成员2" style="rounded=0;whiteSpace=wrap;html=1;fontColor=#CC0000;" parent="1" vertex="1">
          <mxGeometry x="2200" y="1200" width="80" height="40" as="geometry" />
        </mxCell>
        <mxCell id="z2xvUa6bOidR-Bl0gTQm-192" style="edgeStyle=orthogonalEdgeStyle;rounded=0;orthogonalLoop=1;jettySize=auto;html=1;exitX=1;exitY=0.5;exitDx=0;exitDy=0;fontColor=#CC0000;" parent="1" source="z2xvUa6bOidR-Bl0gTQm-191" edge="1">
          <mxGeometry relative="1" as="geometry">
            <mxPoint x="500" y="1600.3333333333335" as="targetPoint" />
          </mxGeometry>
        </mxCell>
        <mxCell id="z2xvUa6bOidR-Bl0gTQm-194" value="ping" style="edgeLabel;html=1;align=center;verticalAlign=middle;resizable=0;points=[];fontColor=#CC0000;" parent="z2xvUa6bOidR-Bl0gTQm-192" vertex="1" connectable="0">
          <mxGeometry x="-0.1768" relative="1" as="geometry">
            <mxPoint as="offset" />
          </mxGeometry>
        </mxCell>
        <mxCell id="dQgIhdq-PcqJNBqw3Aq7-9" style="edgeStyle=orthogonalEdgeStyle;rounded=0;orthogonalLoop=1;jettySize=auto;html=1;exitX=1;exitY=0.5;exitDx=0;exitDy=0;labelBackgroundColor=default;fontColor=default;strokeColor=default;" parent="1" source="dQgIhdq-PcqJNBqw3Aq7-2" target="dQgIhdq-PcqJNBqw3Aq7-8" edge="1">
          <mxGeometry relative="1" as="geometry" />
        </mxCell>
        <mxCell id="dQgIhdq-PcqJNBqw3Aq7-2" value="启用APP" style="rounded=0;whiteSpace=wrap;html=1;fillColor=default;strokeColor=default;fontColor=default;labelBackgroundColor=default;" parent="1" vertex="1">
          <mxGeometry x="-1160" y="840" width="80" height="40" as="geometry" />
        </mxCell>
        <mxCell id="dQgIhdq-PcqJNBqw3Aq7-19" style="edgeStyle=orthogonalEdgeStyle;rounded=0;orthogonalLoop=1;jettySize=auto;html=1;exitX=1;exitY=0.5;exitDx=0;exitDy=0;labelBackgroundColor=default;fontColor=default;strokeColor=default;" parent="1" source="dQgIhdq-PcqJNBqw3Aq7-3" target="dQgIhdq-PcqJNBqw3Aq7-18" edge="1">
          <mxGeometry relative="1" as="geometry" />
        </mxCell>
        <mxCell id="dQgIhdq-PcqJNBqw3Aq7-3" value="开启上线模式" style="rounded=0;whiteSpace=wrap;html=1;fillColor=#f8cecc;strokeColor=#b85450;labelBackgroundColor=default;fontColor=default;" parent="1" vertex="1">
          <mxGeometry x="-920" y="840" width="80" height="40" as="geometry" />
        </mxCell>
        <mxCell id="dQgIhdq-PcqJNBqw3Aq7-5" value="" style="endArrow=none;dashed=1;html=1;dashPattern=1 3;strokeWidth=2;rounded=0;fontColor=default;strokeColor=default;labelBackgroundColor=default;" parent="1" edge="1">
          <mxGeometry width="50" height="50" relative="1" as="geometry">
            <mxPoint x="-1200" y="920" as="sourcePoint" />
            <mxPoint x="-160" y="920" as="targetPoint" />
          </mxGeometry>
        </mxCell>
        <mxCell id="dQgIhdq-PcqJNBqw3Aq7-6" value="用户离线" style="edgeLabel;html=1;align=center;verticalAlign=middle;resizable=0;points=[];fontColor=#FFFFFF;labelBackgroundColor=#B3B3B3;" parent="dQgIhdq-PcqJNBqw3Aq7-5" vertex="1" connectable="0">
          <mxGeometry x="-0.85" y="2" relative="1" as="geometry">
            <mxPoint x="1" as="offset" />
          </mxGeometry>
        </mxCell>
        <mxCell id="dQgIhdq-PcqJNBqw3Aq7-7" value="用户在线" style="edgeLabel;html=1;align=center;verticalAlign=middle;resizable=0;points=[];fontColor=#FFFFFF;labelBackgroundColor=#006600;" parent="dQgIhdq-PcqJNBqw3Aq7-5" vertex="1" connectable="0">
          <mxGeometry x="-0.5707" y="1" relative="1" as="geometry">
            <mxPoint x="93" y="-1" as="offset" />
          </mxGeometry>
        </mxCell>
        <mxCell id="dQgIhdq-PcqJNBqw3Aq7-12" value="用户离线" style="edgeLabel;html=1;align=center;verticalAlign=middle;resizable=0;points=[];fontColor=#FFFFFF;labelBackgroundColor=#B3B3B3;" parent="dQgIhdq-PcqJNBqw3Aq7-5" vertex="1" connectable="0">
          <mxGeometry x="-0.679" y="1" relative="1" as="geometry">
            <mxPoint x="29" y="-1" as="offset" />
          </mxGeometry>
        </mxCell>
        <mxCell id="dQgIhdq-PcqJNBqw3Aq7-10" style="edgeStyle=orthogonalEdgeStyle;rounded=0;orthogonalLoop=1;jettySize=auto;html=1;exitX=1;exitY=0.5;exitDx=0;exitDy=0;labelBackgroundColor=default;fontColor=default;strokeColor=default;" parent="1" source="dQgIhdq-PcqJNBqw3Aq7-8" target="dQgIhdq-PcqJNBqw3Aq7-3" edge="1">
          <mxGeometry relative="1" as="geometry" />
        </mxCell>
        <mxCell id="dQgIhdq-PcqJNBqw3Aq7-14" style="edgeStyle=orthogonalEdgeStyle;rounded=0;orthogonalLoop=1;jettySize=auto;html=1;exitX=1;exitY=0.5;exitDx=0;exitDy=0;entryX=0;entryY=0.5;entryDx=0;entryDy=0;labelBackgroundColor=default;fontColor=default;strokeColor=default;" parent="1" source="dQgIhdq-PcqJNBqw3Aq7-8" target="dQgIhdq-PcqJNBqw3Aq7-13" edge="1">
          <mxGeometry relative="1" as="geometry" />
        </mxCell>
        <mxCell id="dQgIhdq-PcqJNBqw3Aq7-8" value="IM连接" style="rounded=0;whiteSpace=wrap;html=1;fillColor=default;strokeColor=default;fontColor=default;labelBackgroundColor=default;" parent="1" vertex="1">
          <mxGeometry x="-1040" y="840" width="80" height="40" as="geometry" />
        </mxCell>
        <mxCell id="dQgIhdq-PcqJNBqw3Aq7-16" style="edgeStyle=orthogonalEdgeStyle;rounded=0;orthogonalLoop=1;jettySize=auto;html=1;exitX=1;exitY=0.5;exitDx=0;exitDy=0;entryX=0;entryY=0.5;entryDx=0;entryDy=0;labelBackgroundColor=default;fontColor=default;strokeColor=default;" parent="1" source="dQgIhdq-PcqJNBqw3Aq7-13" target="dQgIhdq-PcqJNBqw3Aq7-15" edge="1">
          <mxGeometry relative="1" as="geometry" />
        </mxCell>
        <mxCell id="dQgIhdq-PcqJNBqw3Aq7-13" value="呼叫用户" style="rounded=0;whiteSpace=wrap;html=1;fillColor=default;strokeColor=default;fontColor=default;labelBackgroundColor=default;" parent="1" vertex="1">
          <mxGeometry x="-920" y="760" width="80" height="40" as="geometry" />
        </mxCell>
        <mxCell id="dQgIhdq-PcqJNBqw3Aq7-17" style="edgeStyle=orthogonalEdgeStyle;rounded=0;orthogonalLoop=1;jettySize=auto;html=1;exitX=1;exitY=0.5;exitDx=0;exitDy=0;entryX=0.5;entryY=0;entryDx=0;entryDy=0;labelBackgroundColor=default;fontColor=default;strokeColor=default;" parent="1" source="dQgIhdq-PcqJNBqw3Aq7-15" target="dQgIhdq-PcqJNBqw3Aq7-3" edge="1">
          <mxGeometry relative="1" as="geometry" />
        </mxCell>
        <mxCell id="dQgIhdq-PcqJNBqw3Aq7-15" value="提醒打开上线" style="rounded=0;whiteSpace=wrap;html=1;fillColor=#f8cecc;strokeColor=#b85450;labelBackgroundColor=default;fontColor=default;" parent="1" vertex="1">
          <mxGeometry x="-800" y="760" width="80" height="40" as="geometry" />
        </mxCell>
        <mxCell id="dQgIhdq-PcqJNBqw3Aq7-22" style="edgeStyle=orthogonalEdgeStyle;rounded=0;orthogonalLoop=1;jettySize=auto;html=1;exitX=1;exitY=0.5;exitDx=0;exitDy=0;labelBackgroundColor=default;fontColor=default;strokeColor=default;" parent="1" source="dQgIhdq-PcqJNBqw3Aq7-18" target="dQgIhdq-PcqJNBqw3Aq7-21" edge="1">
          <mxGeometry relative="1" as="geometry" />
        </mxCell>
        <mxCell id="dQgIhdq-PcqJNBqw3Aq7-18" value="1V1通话" style="rounded=0;whiteSpace=wrap;html=1;fillColor=default;strokeColor=default;fontColor=default;labelBackgroundColor=default;" parent="1" vertex="1">
          <mxGeometry x="-800" y="840" width="80" height="40" as="geometry" />
        </mxCell>
        <mxCell id="dQgIhdq-PcqJNBqw3Aq7-20" value="用户在线" style="edgeLabel;html=1;align=center;verticalAlign=middle;resizable=0;points=[];fontColor=#FFFFFF;labelBackgroundColor=#006600;" parent="1" vertex="1" connectable="0">
          <mxGeometry x="-770" y="920" as="geometry" />
        </mxCell>
        <mxCell id="dQgIhdq-PcqJNBqw3Aq7-25" style="edgeStyle=orthogonalEdgeStyle;rounded=0;orthogonalLoop=1;jettySize=auto;html=1;exitX=1;exitY=0.5;exitDx=0;exitDy=0;labelBackgroundColor=default;fontColor=default;strokeColor=default;" parent="1" source="dQgIhdq-PcqJNBqw3Aq7-21" target="dQgIhdq-PcqJNBqw3Aq7-24" edge="1">
          <mxGeometry relative="1" as="geometry" />
        </mxCell>
        <mxCell id="dQgIhdq-PcqJNBqw3Aq7-21" value="1V3通话" style="rounded=0;whiteSpace=wrap;html=1;fillColor=default;strokeColor=default;fontColor=default;labelBackgroundColor=default;" parent="1" vertex="1">
          <mxGeometry x="-680" y="840" width="80" height="40" as="geometry" />
        </mxCell>
        <mxCell id="dQgIhdq-PcqJNBqw3Aq7-23" value="用户忙碌" style="edgeLabel;html=1;align=center;verticalAlign=middle;resizable=0;points=[];fontColor=#FFFFFF;labelBackgroundColor=#CC0000;" parent="1" vertex="1" connectable="0">
          <mxGeometry x="-640" y="920" as="geometry">
            <mxPoint x="2" y="-3" as="offset" />
          </mxGeometry>
        </mxCell>
        <mxCell id="dQgIhdq-PcqJNBqw3Aq7-28" style="edgeStyle=orthogonalEdgeStyle;rounded=0;orthogonalLoop=1;jettySize=auto;html=1;exitX=1;exitY=0.5;exitDx=0;exitDy=0;entryX=0;entryY=0.5;entryDx=0;entryDy=0;labelBackgroundColor=default;fontColor=default;strokeColor=default;" parent="1" source="dQgIhdq-PcqJNBqw3Aq7-24" target="dQgIhdq-PcqJNBqw3Aq7-27" edge="1">
          <mxGeometry relative="1" as="geometry" />
        </mxCell>
        <mxCell id="dQgIhdq-PcqJNBqw3Aq7-24" value="1V2通话" style="rounded=0;whiteSpace=wrap;html=1;fillColor=default;strokeColor=default;fontColor=default;labelBackgroundColor=default;" parent="1" vertex="1">
          <mxGeometry x="-560" y="840" width="80" height="40" as="geometry" />
        </mxCell>
        <mxCell id="dQgIhdq-PcqJNBqw3Aq7-26" value="用户在线" style="edgeLabel;html=1;align=center;verticalAlign=middle;resizable=0;points=[];fontColor=#FFFFFF;labelBackgroundColor=#006600;" parent="1" vertex="1" connectable="0">
          <mxGeometry x="-520" y="920" as="geometry" />
        </mxCell>
        <mxCell id="dQgIhdq-PcqJNBqw3Aq7-31" style="edgeStyle=orthogonalEdgeStyle;rounded=0;orthogonalLoop=1;jettySize=auto;html=1;exitX=1;exitY=0.5;exitDx=0;exitDy=0;entryX=0;entryY=0.5;entryDx=0;entryDy=0;labelBackgroundColor=default;fontColor=default;strokeColor=default;" parent="1" source="dQgIhdq-PcqJNBqw3Aq7-27" target="dQgIhdq-PcqJNBqw3Aq7-30" edge="1">
          <mxGeometry relative="1" as="geometry" />
        </mxCell>
        <mxCell id="dQgIhdq-PcqJNBqw3Aq7-34" style="edgeStyle=orthogonalEdgeStyle;rounded=0;orthogonalLoop=1;jettySize=auto;html=1;exitX=1;exitY=0.5;exitDx=0;exitDy=0;entryX=0;entryY=0.5;entryDx=0;entryDy=0;labelBackgroundColor=default;fontColor=default;strokeColor=default;" parent="1" source="dQgIhdq-PcqJNBqw3Aq7-27" target="dQgIhdq-PcqJNBqw3Aq7-33" edge="1">
          <mxGeometry relative="1" as="geometry" />
        </mxCell>
        <mxCell id="dQgIhdq-PcqJNBqw3Aq7-27" value="主播退出通话" style="rounded=0;whiteSpace=wrap;html=1;fillColor=default;strokeColor=default;fontColor=default;labelBackgroundColor=default;" parent="1" vertex="1">
          <mxGeometry x="-440" y="840" width="80" height="40" as="geometry" />
        </mxCell>
        <mxCell id="dQgIhdq-PcqJNBqw3Aq7-29" value="用户在线" style="edgeLabel;html=1;align=center;verticalAlign=middle;resizable=0;points=[];fontColor=#FFFFFF;labelBackgroundColor=#006600;" parent="1" vertex="1" connectable="0">
          <mxGeometry x="-400" y="920" as="geometry" />
        </mxCell>
        <mxCell id="dQgIhdq-PcqJNBqw3Aq7-30" value="下线模式" style="rounded=0;whiteSpace=wrap;html=1;fillColor=default;strokeColor=default;fontColor=default;labelBackgroundColor=default;" parent="1" vertex="1">
          <mxGeometry x="-203" y="840" width="80" height="40" as="geometry" />
        </mxCell>
        <mxCell id="dQgIhdq-PcqJNBqw3Aq7-32" value="用户离线" style="edgeLabel;html=1;align=center;verticalAlign=middle;resizable=0;points=[];fontColor=#FFFFFF;labelBackgroundColor=#B3B3B3;" parent="1" vertex="1" connectable="0">
          <mxGeometry x="-158" y="918" as="geometry" />
        </mxCell>
        <mxCell id="dQgIhdq-PcqJNBqw3Aq7-33" value="IM断开链接" style="rounded=0;whiteSpace=wrap;html=1;fillColor=default;strokeColor=default;fontColor=default;labelBackgroundColor=default;" parent="1" vertex="1">
          <mxGeometry x="-320" y="760" width="80" height="40" as="geometry" />
        </mxCell>
        <mxCell id="dQgIhdq-PcqJNBqw3Aq7-38" value="" style="shape=curlyBracket;whiteSpace=wrap;html=1;rounded=1;labelBackgroundColor=default;fontColor=default;strokeColor=default;fillColor=default;" parent="1" vertex="1">
          <mxGeometry x="-230" y="760" width="20" height="40" as="geometry" />
        </mxCell>
        <mxCell id="dQgIhdq-PcqJNBqw3Aq7-40" value="&lt;ul&gt;&lt;li&gt;主动注销&lt;/li&gt;&lt;li&gt;关闭APP&lt;/li&gt;&lt;li&gt;网络断开&lt;/li&gt;&lt;/ul&gt;" style="text;strokeColor=none;fillColor=none;html=1;whiteSpace=wrap;verticalAlign=middle;overflow=hidden;labelBackgroundColor=default;fontColor=default;" parent="1" vertex="1">
          <mxGeometry x="-206" y="741" width="100" height="70" as="geometry" />
        </mxCell>
        <mxCell id="dQgIhdq-PcqJNBqw3Aq7-41" value="主播状态" style="text;strokeColor=none;fillColor=none;html=1;fontSize=24;fontStyle=1;verticalAlign=middle;align=center;labelBackgroundColor=default;fontColor=default;" parent="1" vertex="1">
          <mxGeometry x="-757" y="680" width="100" height="40" as="geometry" />
        </mxCell>
        <mxCell id="dQgIhdq-PcqJNBqw3Aq7-76" style="edgeStyle=orthogonalEdgeStyle;rounded=0;orthogonalLoop=1;jettySize=auto;html=1;exitX=1;exitY=0.5;exitDx=0;exitDy=0;labelBackgroundColor=default;fontColor=default;strokeColor=default;" parent="1" source="dQgIhdq-PcqJNBqw3Aq7-77" target="dQgIhdq-PcqJNBqw3Aq7-86" edge="1">
          <mxGeometry relative="1" as="geometry" />
        </mxCell>
        <mxCell id="dQgIhdq-PcqJNBqw3Aq7-77" value="启用APP" style="rounded=0;whiteSpace=wrap;html=1;fillColor=default;strokeColor=default;fontColor=default;labelBackgroundColor=default;" parent="1" vertex="1">
          <mxGeometry x="-1160" y="1187" width="80" height="40" as="geometry" />
        </mxCell>
        <mxCell id="dQgIhdq-PcqJNBqw3Aq7-78" style="edgeStyle=orthogonalEdgeStyle;rounded=0;orthogonalLoop=1;jettySize=auto;html=1;exitX=1;exitY=0.5;exitDx=0;exitDy=0;labelBackgroundColor=default;fontColor=default;strokeColor=default;" parent="1" source="dQgIhdq-PcqJNBqw3Aq7-79" target="dQgIhdq-PcqJNBqw3Aq7-92" edge="1">
          <mxGeometry relative="1" as="geometry" />
        </mxCell>
        <mxCell id="dQgIhdq-PcqJNBqw3Aq7-79" value="开启应答模式" style="rounded=0;whiteSpace=wrap;html=1;fillColor=default;strokeColor=default;fontColor=default;labelBackgroundColor=default;" parent="1" vertex="1">
          <mxGeometry x="-920" y="1187" width="80" height="40" as="geometry" />
        </mxCell>
        <mxCell id="dQgIhdq-PcqJNBqw3Aq7-80" value="" style="endArrow=none;dashed=1;html=1;dashPattern=1 3;strokeWidth=2;rounded=0;fontColor=default;strokeColor=default;labelBackgroundColor=default;" parent="1" edge="1">
          <mxGeometry width="50" height="50" relative="1" as="geometry">
            <mxPoint x="-1200" y="1267" as="sourcePoint" />
            <mxPoint x="-235" y="1267" as="targetPoint" />
          </mxGeometry>
        </mxCell>
        <mxCell id="dQgIhdq-PcqJNBqw3Aq7-81" value="用户离线" style="edgeLabel;html=1;align=center;verticalAlign=middle;resizable=0;points=[];fontColor=#FFFFFF;labelBackgroundColor=#B3B3B3;" parent="dQgIhdq-PcqJNBqw3Aq7-80" vertex="1" connectable="0">
          <mxGeometry x="-0.85" y="2" relative="1" as="geometry">
            <mxPoint x="1" as="offset" />
          </mxGeometry>
        </mxCell>
        <mxCell id="dQgIhdq-PcqJNBqw3Aq7-82" value="用户在线" style="edgeLabel;html=1;align=center;verticalAlign=middle;resizable=0;points=[];fontColor=#FFFFFF;labelBackgroundColor=#006600;" parent="dQgIhdq-PcqJNBqw3Aq7-80" vertex="1" connectable="0">
          <mxGeometry x="-0.5707" y="1" relative="1" as="geometry">
            <mxPoint x="111" y="-2" as="offset" />
          </mxGeometry>
        </mxCell>
        <mxCell id="dQgIhdq-PcqJNBqw3Aq7-83" value="用户离线" style="edgeLabel;html=1;align=center;verticalAlign=middle;resizable=0;points=[];fontColor=#FFFFFF;labelBackgroundColor=#B3B3B3;" parent="dQgIhdq-PcqJNBqw3Aq7-80" vertex="1" connectable="0">
          <mxGeometry x="-0.679" y="1" relative="1" as="geometry">
            <mxPoint x="44" as="offset" />
          </mxGeometry>
        </mxCell>
        <mxCell id="dQgIhdq-PcqJNBqw3Aq7-84" style="edgeStyle=orthogonalEdgeStyle;rounded=0;orthogonalLoop=1;jettySize=auto;html=1;exitX=1;exitY=0.5;exitDx=0;exitDy=0;labelBackgroundColor=default;fontColor=default;strokeColor=default;" parent="1" source="dQgIhdq-PcqJNBqw3Aq7-86" target="dQgIhdq-PcqJNBqw3Aq7-79" edge="1">
          <mxGeometry relative="1" as="geometry" />
        </mxCell>
        <mxCell id="dQgIhdq-PcqJNBqw3Aq7-85" style="edgeStyle=orthogonalEdgeStyle;rounded=0;orthogonalLoop=1;jettySize=auto;html=1;exitX=1;exitY=0.5;exitDx=0;exitDy=0;entryX=0;entryY=0.5;entryDx=0;entryDy=0;labelBackgroundColor=default;fontColor=default;strokeColor=default;" parent="1" source="dQgIhdq-PcqJNBqw3Aq7-86" target="dQgIhdq-PcqJNBqw3Aq7-88" edge="1">
          <mxGeometry relative="1" as="geometry" />
        </mxCell>
        <mxCell id="dQgIhdq-PcqJNBqw3Aq7-86" value="IM连接" style="rounded=0;whiteSpace=wrap;html=1;fillColor=default;strokeColor=default;fontColor=default;labelBackgroundColor=default;" parent="1" vertex="1">
          <mxGeometry x="-1040" y="1187" width="80" height="40" as="geometry" />
        </mxCell>
        <mxCell id="dQgIhdq-PcqJNBqw3Aq7-87" style="edgeStyle=orthogonalEdgeStyle;rounded=0;orthogonalLoop=1;jettySize=auto;html=1;exitX=1;exitY=0.5;exitDx=0;exitDy=0;entryX=0;entryY=0.5;entryDx=0;entryDy=0;labelBackgroundColor=default;fontColor=default;strokeColor=default;" parent="1" source="dQgIhdq-PcqJNBqw3Aq7-88" target="dQgIhdq-PcqJNBqw3Aq7-90" edge="1">
          <mxGeometry relative="1" as="geometry" />
        </mxCell>
        <mxCell id="dQgIhdq-PcqJNBqw3Aq7-88" value="呼叫用户" style="rounded=0;whiteSpace=wrap;html=1;fillColor=default;strokeColor=default;fontColor=default;labelBackgroundColor=default;" parent="1" vertex="1">
          <mxGeometry x="-920" y="1107" width="80" height="40" as="geometry" />
        </mxCell>
        <mxCell id="dQgIhdq-PcqJNBqw3Aq7-89" style="edgeStyle=orthogonalEdgeStyle;rounded=0;orthogonalLoop=1;jettySize=auto;html=1;exitX=1;exitY=0.5;exitDx=0;exitDy=0;entryX=0.5;entryY=0;entryDx=0;entryDy=0;labelBackgroundColor=default;fontColor=default;strokeColor=default;" parent="1" source="dQgIhdq-PcqJNBqw3Aq7-90" target="dQgIhdq-PcqJNBqw3Aq7-79" edge="1">
          <mxGeometry relative="1" as="geometry" />
        </mxCell>
        <mxCell id="dQgIhdq-PcqJNBqw3Aq7-90" value="提醒打开应答" style="rounded=0;whiteSpace=wrap;html=1;fillColor=#f8cecc;strokeColor=#b85450;labelBackgroundColor=default;fontColor=default;" parent="1" vertex="1">
          <mxGeometry x="-800" y="1107" width="80" height="40" as="geometry" />
        </mxCell>
        <mxCell id="dQgIhdq-PcqJNBqw3Aq7-91" style="edgeStyle=orthogonalEdgeStyle;rounded=0;orthogonalLoop=1;jettySize=auto;html=1;exitX=1;exitY=0.5;exitDx=0;exitDy=0;labelBackgroundColor=default;fontColor=default;strokeColor=default;" parent="1" source="dQgIhdq-PcqJNBqw3Aq7-92" target="dQgIhdq-PcqJNBqw3Aq7-102" edge="1">
          <mxGeometry relative="1" as="geometry">
            <mxPoint x="-680" y="1207" as="targetPoint" />
          </mxGeometry>
        </mxCell>
        <mxCell id="dQgIhdq-PcqJNBqw3Aq7-92" value="1V1通话" style="rounded=0;whiteSpace=wrap;html=1;fillColor=default;strokeColor=default;fontColor=default;labelBackgroundColor=default;" parent="1" vertex="1">
          <mxGeometry x="-800" y="1187" width="80" height="40" as="geometry" />
        </mxCell>
        <mxCell id="dQgIhdq-PcqJNBqw3Aq7-96" value="用户在线" style="edgeLabel;html=1;align=center;verticalAlign=middle;resizable=0;points=[];fontColor=#FFFFFF;labelBackgroundColor=#006600;" parent="1" vertex="1" connectable="0">
          <mxGeometry x="-640" y="1267" as="geometry">
            <mxPoint x="2" y="-3" as="offset" />
          </mxGeometry>
        </mxCell>
        <mxCell id="dQgIhdq-PcqJNBqw3Aq7-100" style="edgeStyle=orthogonalEdgeStyle;rounded=0;orthogonalLoop=1;jettySize=auto;html=1;exitX=1;exitY=0.5;exitDx=0;exitDy=0;entryX=0;entryY=0.5;entryDx=0;entryDy=0;labelBackgroundColor=default;fontColor=default;strokeColor=default;" parent="1" source="dQgIhdq-PcqJNBqw3Aq7-102" target="dQgIhdq-PcqJNBqw3Aq7-104" edge="1">
          <mxGeometry relative="1" as="geometry" />
        </mxCell>
        <mxCell id="dQgIhdq-PcqJNBqw3Aq7-101" style="edgeStyle=orthogonalEdgeStyle;rounded=0;orthogonalLoop=1;jettySize=auto;html=1;exitX=1;exitY=0.5;exitDx=0;exitDy=0;entryX=0;entryY=0.5;entryDx=0;entryDy=0;labelBackgroundColor=default;fontColor=default;strokeColor=default;startArrow=none;" parent="1" source="dQgIhdq-PcqJNBqw3Aq7-102" target="dQgIhdq-PcqJNBqw3Aq7-106" edge="1">
          <mxGeometry relative="1" as="geometry" />
        </mxCell>
        <mxCell id="dQgIhdq-PcqJNBqw3Aq7-102" value="退出通话" style="rounded=0;whiteSpace=wrap;html=1;fillColor=default;strokeColor=default;fontColor=default;labelBackgroundColor=default;" parent="1" vertex="1">
          <mxGeometry x="-680" y="1187" width="80" height="40" as="geometry" />
        </mxCell>
        <mxCell id="dQgIhdq-PcqJNBqw3Aq7-105" value="用户离线" style="edgeLabel;html=1;align=center;verticalAlign=middle;resizable=0;points=[];fontColor=default;labelBackgroundColor=default;" parent="1" vertex="1" connectable="0">
          <mxGeometry x="-316" y="1267" as="geometry" />
        </mxCell>
        <mxCell id="dQgIhdq-PcqJNBqw3Aq7-106" value="IM断开链接" style="rounded=0;whiteSpace=wrap;html=1;fillColor=default;strokeColor=default;fontColor=default;labelBackgroundColor=default;" parent="1" vertex="1">
          <mxGeometry x="-550" y="1107" width="80" height="40" as="geometry" />
        </mxCell>
        <mxCell id="dQgIhdq-PcqJNBqw3Aq7-107" value="" style="shape=curlyBracket;whiteSpace=wrap;html=1;rounded=1;labelBackgroundColor=default;fontColor=default;strokeColor=default;fillColor=default;" parent="1" vertex="1">
          <mxGeometry x="-470" y="1109" width="20" height="40" as="geometry" />
        </mxCell>
        <mxCell id="dQgIhdq-PcqJNBqw3Aq7-108" value="&lt;ul&gt;&lt;li&gt;主动注销&lt;/li&gt;&lt;li&gt;关闭APP&lt;/li&gt;&lt;li&gt;网络断开&lt;/li&gt;&lt;/ul&gt;" style="text;strokeColor=none;fillColor=default;html=1;whiteSpace=wrap;verticalAlign=middle;overflow=hidden;labelBackgroundColor=default;fontColor=default;" parent="1" vertex="1">
          <mxGeometry x="-450" y="1094" width="100" height="70" as="geometry" />
        </mxCell>
        <mxCell id="dQgIhdq-PcqJNBqw3Aq7-109" value="用户状态" style="text;strokeColor=none;fillColor=none;html=1;fontSize=24;fontStyle=1;verticalAlign=middle;align=center;labelBackgroundColor=default;fontColor=default;" parent="1" vertex="1">
          <mxGeometry x="-757" y="1040" width="100" height="40" as="geometry" />
        </mxCell>
        <mxCell id="dQgIhdq-PcqJNBqw3Aq7-110" value="用户忙碌" style="edgeLabel;html=1;align=center;verticalAlign=middle;resizable=0;points=[];fontColor=#FFFFFF;labelBackgroundColor=#CC0000;" parent="1" vertex="1" connectable="0">
          <mxGeometry x="-760" y="1267" as="geometry">
            <mxPoint x="2" y="-3" as="offset" />
          </mxGeometry>
        </mxCell>
        <mxCell id="dQgIhdq-PcqJNBqw3Aq7-104" value="关闭应答模式" style="rounded=0;whiteSpace=wrap;html=1;fillColor=default;strokeColor=default;fontColor=default;labelBackgroundColor=default;" parent="1" vertex="1">
          <mxGeometry x="-371" y="1187" width="80" height="40" as="geometry" />
        </mxCell>
        <mxCell id="dQgIhdq-PcqJNBqw3Aq7-112" value="" style="edgeStyle=orthogonalEdgeStyle;rounded=0;orthogonalLoop=1;jettySize=auto;html=1;exitX=1;exitY=0.5;exitDx=0;exitDy=0;entryX=0;entryY=0.5;entryDx=0;entryDy=0;labelBackgroundColor=default;fontColor=default;strokeColor=default;endArrow=none;" parent="1" source="dQgIhdq-PcqJNBqw3Aq7-102" target="dQgIhdq-PcqJNBqw3Aq7-104" edge="1">
          <mxGeometry relative="1" as="geometry">
            <mxPoint x="-600" y="1207" as="sourcePoint" />
            <mxPoint x="-320" y="1127" as="targetPoint" />
          </mxGeometry>
        </mxCell>
        <mxCell id="dQgIhdq-PcqJNBqw3Aq7-113" value="用户在线" style="edgeLabel;html=1;align=center;verticalAlign=middle;resizable=0;points=[];fontColor=#FFFFFF;labelBackgroundColor=#006600;" parent="1" vertex="1" connectable="0">
          <mxGeometry x="-282" y="918" as="geometry" />
        </mxCell>
        <mxCell id="dQgIhdq-PcqJNBqw3Aq7-114" value="miss call 回拨时间限制、只能打一次" style="text;html=1;strokeColor=none;fillColor=none;align=center;verticalAlign=middle;whiteSpace=wrap;rounded=0;labelBackgroundColor=default;fontColor=default;" parent="1" vertex="1">
          <mxGeometry x="-1048" y="972" width="60" height="30" as="geometry" />
        </mxCell>
        <mxCell id="dQgIhdq-PcqJNBqw3Aq7-115" value="用户在线" style="edgeLabel;html=1;align=center;verticalAlign=middle;resizable=0;points=[];fontColor=#FFFFFF;labelBackgroundColor=#006600;" parent="1" vertex="1" connectable="0">
          <mxGeometry x="-487" y="1267" as="geometry">
            <mxPoint x="2" y="-3" as="offset" />
          </mxGeometry>
        </mxCell>
        <mxCell id="dQgIhdq-PcqJNBqw3Aq7-116" value="主播状态表" style="swimlane;fontStyle=0;childLayout=stackLayout;horizontal=1;startSize=30;horizontalStack=0;resizeParent=1;resizeParentMax=0;resizeLast=0;collapsible=1;marginBottom=0;labelBackgroundColor=default;fontColor=default;strokeColor=default;fillColor=default;" parent="1" vertex="1">
          <mxGeometry x="-101" y="1015" width="140" height="90" as="geometry" />
        </mxCell>
        <mxCell id="dQgIhdq-PcqJNBqw3Aq7-117" value="UID" style="text;strokeColor=none;fillColor=none;align=left;verticalAlign=middle;spacingLeft=4;spacingRight=4;overflow=hidden;points=[[0,0.5],[1,0.5]];portConstraint=eastwest;rotatable=0;labelBackgroundColor=default;fontColor=default;" parent="dQgIhdq-PcqJNBqw3Aq7-116" vertex="1">
          <mxGeometry y="30" width="140" height="30" as="geometry" />
        </mxCell>
        <mxCell id="dQgIhdq-PcqJNBqw3Aq7-118" value="状态" style="text;strokeColor=none;fillColor=none;align=left;verticalAlign=middle;spacingLeft=4;spacingRight=4;overflow=hidden;points=[[0,0.5],[1,0.5]];portConstraint=eastwest;rotatable=0;labelBackgroundColor=default;fontColor=default;" parent="dQgIhdq-PcqJNBqw3Aq7-116" vertex="1">
          <mxGeometry y="60" width="140" height="30" as="geometry" />
        </mxCell>
        <mxCell id="pI7oZdxJtOxQLC7SE2ko-9" style="edgeStyle=orthogonalEdgeStyle;rounded=0;orthogonalLoop=1;jettySize=auto;html=1;exitX=1;exitY=0.5;exitDx=0;exitDy=0;labelBackgroundColor=default;fontColor=default;strokeColor=default;" parent="1" source="pI7oZdxJtOxQLC7SE2ko-7" target="pI7oZdxJtOxQLC7SE2ko-8" edge="1">
          <mxGeometry relative="1" as="geometry" />
        </mxCell>
        <mxCell id="pI7oZdxJtOxQLC7SE2ko-7" value="用户" style="rounded=0;whiteSpace=wrap;html=1;fontColor=default;strokeColor=default;fillColor=default;labelBackgroundColor=default;" parent="1" vertex="1">
          <mxGeometry x="-400" y="2520" width="80" height="40" as="geometry" />
        </mxCell>
        <mxCell id="pI7oZdxJtOxQLC7SE2ko-11" style="edgeStyle=orthogonalEdgeStyle;rounded=0;orthogonalLoop=1;jettySize=auto;html=1;exitX=1;exitY=0.5;exitDx=0;exitDy=0;labelBackgroundColor=default;fontColor=default;strokeColor=default;" parent="1" source="pI7oZdxJtOxQLC7SE2ko-8" target="pI7oZdxJtOxQLC7SE2ko-10" edge="1">
          <mxGeometry relative="1" as="geometry" />
        </mxCell>
        <mxCell id="pI7oZdxJtOxQLC7SE2ko-8" value="赠送礼物" style="rounded=0;whiteSpace=wrap;html=1;fontColor=default;strokeColor=default;fillColor=default;labelBackgroundColor=default;" parent="1" vertex="1">
          <mxGeometry x="-280" y="2520" width="80" height="40" as="geometry" />
        </mxCell>
        <mxCell id="pI7oZdxJtOxQLC7SE2ko-15" style="edgeStyle=orthogonalEdgeStyle;rounded=0;orthogonalLoop=1;jettySize=auto;html=1;exitX=0.5;exitY=1;exitDx=0;exitDy=0;labelBackgroundColor=default;fontColor=default;strokeColor=default;" parent="1" source="pI7oZdxJtOxQLC7SE2ko-10" target="pI7oZdxJtOxQLC7SE2ko-14" edge="1">
          <mxGeometry relative="1" as="geometry" />
        </mxCell>
        <mxCell id="pI7oZdxJtOxQLC7SE2ko-10" value="用户金币减少" style="rounded=0;whiteSpace=wrap;html=1;fontColor=default;strokeColor=default;fillColor=default;labelBackgroundColor=default;" parent="1" vertex="1">
          <mxGeometry x="-158" y="2520" width="80" height="40" as="geometry" />
        </mxCell>
        <mxCell id="pI7oZdxJtOxQLC7SE2ko-20" style="edgeStyle=orthogonalEdgeStyle;rounded=0;orthogonalLoop=1;jettySize=auto;html=1;exitX=0.5;exitY=1;exitDx=0;exitDy=0;labelBackgroundColor=default;fontColor=default;strokeColor=default;" parent="1" source="pI7oZdxJtOxQLC7SE2ko-12" target="pI7oZdxJtOxQLC7SE2ko-19" edge="1">
          <mxGeometry relative="1" as="geometry" />
        </mxCell>
        <mxCell id="pI7oZdxJtOxQLC7SE2ko-12" value="正常待结算记录" style="rounded=0;whiteSpace=wrap;html=1;fontColor=default;strokeColor=default;fillColor=default;labelBackgroundColor=default;" parent="1" vertex="1">
          <mxGeometry x="-158" y="2720" width="80" height="40" as="geometry" />
        </mxCell>
        <mxCell id="pI7oZdxJtOxQLC7SE2ko-16" value="是" style="edgeStyle=orthogonalEdgeStyle;rounded=0;orthogonalLoop=1;jettySize=auto;html=1;exitX=0.5;exitY=1;exitDx=0;exitDy=0;entryX=0.5;entryY=0;entryDx=0;entryDy=0;labelBackgroundColor=default;fontColor=default;strokeColor=default;" parent="1" source="pI7oZdxJtOxQLC7SE2ko-14" target="pI7oZdxJtOxQLC7SE2ko-12" edge="1">
          <mxGeometry relative="1" as="geometry" />
        </mxCell>
        <mxCell id="pI7oZdxJtOxQLC7SE2ko-18" style="edgeStyle=orthogonalEdgeStyle;rounded=0;orthogonalLoop=1;jettySize=auto;html=1;exitX=1;exitY=0.5;exitDx=0;exitDy=0;labelBackgroundColor=default;fontColor=default;strokeColor=default;" parent="1" source="pI7oZdxJtOxQLC7SE2ko-14" target="pI7oZdxJtOxQLC7SE2ko-17" edge="1">
          <mxGeometry relative="1" as="geometry" />
        </mxCell>
        <mxCell id="pI7oZdxJtOxQLC7SE2ko-14" value="风控屏障" style="rhombus;whiteSpace=wrap;html=1;labelBackgroundColor=default;fontColor=default;strokeColor=default;fillColor=default;" parent="1" vertex="1">
          <mxGeometry x="-153" y="2605" width="70" height="70" as="geometry" />
        </mxCell>
        <mxCell id="pI7oZdxJtOxQLC7SE2ko-34" style="edgeStyle=orthogonalEdgeStyle;rounded=0;orthogonalLoop=1;jettySize=auto;html=1;exitX=1;exitY=0.5;exitDx=0;exitDy=0;labelBackgroundColor=default;fontColor=default;strokeColor=default;" parent="1" source="pI7oZdxJtOxQLC7SE2ko-17" target="pI7oZdxJtOxQLC7SE2ko-33" edge="1">
          <mxGeometry relative="1" as="geometry" />
        </mxCell>
        <mxCell id="pI7oZdxJtOxQLC7SE2ko-17" value="人工待结算记录" style="rounded=0;whiteSpace=wrap;html=1;fontColor=default;strokeColor=default;fillColor=default;labelBackgroundColor=default;" parent="1" vertex="1">
          <mxGeometry x="-40" y="2620" width="80" height="40" as="geometry" />
        </mxCell>
        <mxCell id="pI7oZdxJtOxQLC7SE2ko-22" style="edgeStyle=orthogonalEdgeStyle;rounded=0;orthogonalLoop=1;jettySize=auto;html=1;exitX=0.5;exitY=1;exitDx=0;exitDy=0;labelBackgroundColor=default;fontColor=default;strokeColor=default;" parent="1" source="pI7oZdxJtOxQLC7SE2ko-19" target="pI7oZdxJtOxQLC7SE2ko-21" edge="1">
          <mxGeometry relative="1" as="geometry" />
        </mxCell>
        <mxCell id="pI7oZdxJtOxQLC7SE2ko-19" value="直播结束结算" style="rounded=0;whiteSpace=wrap;html=1;labelBackgroundColor=default;fontColor=default;strokeColor=default;fillColor=default;" parent="1" vertex="1">
          <mxGeometry x="-157" y="2800" width="78" height="40" as="geometry" />
        </mxCell>
        <mxCell id="pI7oZdxJtOxQLC7SE2ko-24" value="满足" style="edgeStyle=orthogonalEdgeStyle;rounded=0;orthogonalLoop=1;jettySize=auto;html=1;exitX=0.5;exitY=1;exitDx=0;exitDy=0;labelBackgroundColor=default;fontColor=default;strokeColor=default;" parent="1" source="pI7oZdxJtOxQLC7SE2ko-21" target="pI7oZdxJtOxQLC7SE2ko-23" edge="1">
          <mxGeometry relative="1" as="geometry" />
        </mxCell>
        <mxCell id="pI7oZdxJtOxQLC7SE2ko-29" style="edgeStyle=orthogonalEdgeStyle;rounded=0;orthogonalLoop=1;jettySize=auto;html=1;exitX=1;exitY=0.5;exitDx=0;exitDy=0;entryX=0.5;entryY=0;entryDx=0;entryDy=0;labelBackgroundColor=default;fontColor=default;strokeColor=default;" parent="1" source="pI7oZdxJtOxQLC7SE2ko-21" target="pI7oZdxJtOxQLC7SE2ko-27" edge="1">
          <mxGeometry relative="1" as="geometry" />
        </mxCell>
        <mxCell id="pI7oZdxJtOxQLC7SE2ko-30" value="未满足" style="edgeLabel;html=1;align=center;verticalAlign=middle;resizable=0;points=[];fontColor=default;" parent="pI7oZdxJtOxQLC7SE2ko-29" vertex="1" connectable="0">
          <mxGeometry x="-0.0202" y="1" relative="1" as="geometry">
            <mxPoint as="offset" />
          </mxGeometry>
        </mxCell>
        <mxCell id="pI7oZdxJtOxQLC7SE2ko-21" value="最低时限" style="rhombus;whiteSpace=wrap;html=1;labelBackgroundColor=default;fontColor=default;strokeColor=default;fillColor=default;" parent="1" vertex="1">
          <mxGeometry x="-153" y="2880" width="70" height="70" as="geometry" />
        </mxCell>
        <mxCell id="pI7oZdxJtOxQLC7SE2ko-26" style="edgeStyle=orthogonalEdgeStyle;rounded=0;orthogonalLoop=1;jettySize=auto;html=1;exitX=0.5;exitY=1;exitDx=0;exitDy=0;labelBackgroundColor=default;fontColor=default;strokeColor=default;" parent="1" source="pI7oZdxJtOxQLC7SE2ko-23" target="pI7oZdxJtOxQLC7SE2ko-25" edge="1">
          <mxGeometry relative="1" as="geometry" />
        </mxCell>
        <mxCell id="pI7oZdxJtOxQLC7SE2ko-28" style="edgeStyle=orthogonalEdgeStyle;rounded=0;orthogonalLoop=1;jettySize=auto;html=1;exitX=0.5;exitY=1;exitDx=0;exitDy=0;entryX=0.5;entryY=0;entryDx=0;entryDy=0;labelBackgroundColor=default;fontColor=default;strokeColor=default;" parent="1" source="pI7oZdxJtOxQLC7SE2ko-23" target="pI7oZdxJtOxQLC7SE2ko-27" edge="1">
          <mxGeometry relative="1" as="geometry" />
        </mxCell>
        <mxCell id="pI7oZdxJtOxQLC7SE2ko-23" value="分润" style="rounded=0;whiteSpace=wrap;html=1;labelBackgroundColor=default;fontColor=default;strokeColor=default;fillColor=default;" parent="1" vertex="1">
          <mxGeometry x="-157" y="3000" width="78" height="40" as="geometry" />
        </mxCell>
        <mxCell id="pI7oZdxJtOxQLC7SE2ko-25" value="主播" style="rounded=0;whiteSpace=wrap;html=1;labelBackgroundColor=default;fontColor=default;strokeColor=default;fillColor=default;" parent="1" vertex="1">
          <mxGeometry x="-195" y="3080" width="78" height="40" as="geometry" />
        </mxCell>
        <mxCell id="pI7oZdxJtOxQLC7SE2ko-27" value="平台" style="rounded=0;whiteSpace=wrap;html=1;labelBackgroundColor=default;fontColor=default;strokeColor=default;fillColor=default;" parent="1" vertex="1">
          <mxGeometry x="-40" y="3080" width="78" height="40" as="geometry" />
        </mxCell>
        <mxCell id="pI7oZdxJtOxQLC7SE2ko-31" value="&lt;h1&gt;风控屏障&lt;/h1&gt;&lt;p&gt;1.连续X笔超过X的礼物&lt;/p&gt;&lt;p&gt;2.&lt;/p&gt;" style="text;html=1;strokeColor=none;fillColor=none;spacing=5;spacingTop=-20;whiteSpace=wrap;overflow=hidden;rounded=0;labelBackgroundColor=default;fontColor=default;" parent="1" vertex="1">
          <mxGeometry x="-430" y="2580" width="150" height="120" as="geometry" />
        </mxCell>
        <mxCell id="pI7oZdxJtOxQLC7SE2ko-32" value="" style="endArrow=none;dashed=1;html=1;dashPattern=1 3;strokeWidth=2;rounded=0;labelBackgroundColor=default;fontColor=default;strokeColor=default;entryX=0;entryY=0.5;entryDx=0;entryDy=0;" parent="1" source="pI7oZdxJtOxQLC7SE2ko-31" target="pI7oZdxJtOxQLC7SE2ko-14" edge="1">
          <mxGeometry width="50" height="50" relative="1" as="geometry">
            <mxPoint x="-180" y="2680" as="sourcePoint" />
            <mxPoint x="-130" y="2630" as="targetPoint" />
            <Array as="points">
              <mxPoint x="-220" y="2640" />
            </Array>
          </mxGeometry>
        </mxCell>
        <mxCell id="pI7oZdxJtOxQLC7SE2ko-37" style="edgeStyle=orthogonalEdgeStyle;rounded=0;orthogonalLoop=1;jettySize=auto;html=1;exitX=1;exitY=0.5;exitDx=0;exitDy=0;labelBackgroundColor=default;fontColor=default;strokeColor=default;" parent="1" source="pI7oZdxJtOxQLC7SE2ko-33" target="pI7oZdxJtOxQLC7SE2ko-35" edge="1">
          <mxGeometry relative="1" as="geometry" />
        </mxCell>
        <mxCell id="pI7oZdxJtOxQLC7SE2ko-33" value="后台审核结算" style="rounded=0;whiteSpace=wrap;html=1;fontColor=default;strokeColor=default;fillColor=default;labelBackgroundColor=default;" parent="1" vertex="1">
          <mxGeometry x="80" y="2620" width="80" height="40" as="geometry" />
        </mxCell>
        <mxCell id="pI7oZdxJtOxQLC7SE2ko-39" value="不通过" style="edgeStyle=orthogonalEdgeStyle;rounded=0;orthogonalLoop=1;jettySize=auto;html=1;exitX=1;exitY=0.5;exitDx=0;exitDy=0;labelBackgroundColor=default;fontColor=default;strokeColor=default;entryX=1;entryY=0.5;entryDx=0;entryDy=0;" parent="1" source="pI7oZdxJtOxQLC7SE2ko-35" target="pI7oZdxJtOxQLC7SE2ko-27" edge="1">
          <mxGeometry relative="1" as="geometry">
            <mxPoint x="320" y="2640" as="targetPoint" />
          </mxGeometry>
        </mxCell>
        <mxCell id="pI7oZdxJtOxQLC7SE2ko-41" value="通过" style="edgeStyle=orthogonalEdgeStyle;rounded=0;orthogonalLoop=1;jettySize=auto;html=1;exitX=0.5;exitY=1;exitDx=0;exitDy=0;labelBackgroundColor=default;fontColor=default;strokeColor=default;entryX=0.417;entryY=0;entryDx=0;entryDy=0;entryPerimeter=0;" parent="1" source="pI7oZdxJtOxQLC7SE2ko-35" target="pI7oZdxJtOxQLC7SE2ko-56" edge="1">
          <mxGeometry relative="1" as="geometry">
            <mxPoint x="80" y="2880" as="targetPoint" />
          </mxGeometry>
        </mxCell>
        <mxCell id="pI7oZdxJtOxQLC7SE2ko-35" value="审结结果" style="rhombus;whiteSpace=wrap;html=1;labelBackgroundColor=default;fontColor=default;strokeColor=default;fillColor=default;" parent="1" vertex="1">
          <mxGeometry x="200" y="2605" width="70" height="70" as="geometry" />
        </mxCell>
        <mxCell id="pI7oZdxJtOxQLC7SE2ko-47" style="edgeStyle=orthogonalEdgeStyle;rounded=0;orthogonalLoop=1;jettySize=auto;html=1;exitX=1;exitY=0.5;exitDx=0;exitDy=0;labelBackgroundColor=default;fontColor=default;strokeColor=default;" parent="1" source="pI7oZdxJtOxQLC7SE2ko-45" target="pI7oZdxJtOxQLC7SE2ko-46" edge="1">
          <mxGeometry relative="1" as="geometry" />
        </mxCell>
        <mxCell id="pI7oZdxJtOxQLC7SE2ko-45" value="选择支付方式" style="rounded=0;whiteSpace=wrap;html=1;labelBackgroundColor=default;fontColor=default;strokeColor=default;fillColor=default;" parent="1" vertex="1">
          <mxGeometry x="-760" y="3360" width="80" height="40" as="geometry" />
        </mxCell>
        <mxCell id="pI7oZdxJtOxQLC7SE2ko-49" style="edgeStyle=orthogonalEdgeStyle;rounded=0;orthogonalLoop=1;jettySize=auto;html=1;exitX=1;exitY=0.5;exitDx=0;exitDy=0;labelBackgroundColor=default;fontColor=default;strokeColor=default;entryX=0;entryY=0.5;entryDx=0;entryDy=0;" parent="1" source="pI7oZdxJtOxQLC7SE2ko-46" target="pI7oZdxJtOxQLC7SE2ko-50" edge="1">
          <mxGeometry relative="1" as="geometry">
            <mxPoint x="-440" y="3380" as="targetPoint" />
          </mxGeometry>
        </mxCell>
        <mxCell id="pI7oZdxJtOxQLC7SE2ko-46" value="获取套餐列表" style="rounded=0;whiteSpace=wrap;html=1;labelBackgroundColor=default;fontColor=default;strokeColor=default;fillColor=default;" parent="1" vertex="1">
          <mxGeometry x="-600" y="3360" width="80" height="40" as="geometry" />
        </mxCell>
        <mxCell id="pI7oZdxJtOxQLC7SE2ko-53" style="edgeStyle=orthogonalEdgeStyle;rounded=0;orthogonalLoop=1;jettySize=auto;html=1;exitX=1;exitY=0.5;exitDx=0;exitDy=0;labelBackgroundColor=default;fontColor=default;strokeColor=default;" parent="1" source="pI7oZdxJtOxQLC7SE2ko-50" target="pI7oZdxJtOxQLC7SE2ko-52" edge="1">
          <mxGeometry relative="1" as="geometry" />
        </mxCell>
        <mxCell id="pI7oZdxJtOxQLC7SE2ko-50" value="提交订单" style="rounded=0;whiteSpace=wrap;html=1;labelBackgroundColor=default;fontColor=default;strokeColor=default;fillColor=default;" parent="1" vertex="1">
          <mxGeometry x="-440" y="3360" width="80" height="40" as="geometry" />
        </mxCell>
        <mxCell id="pI7oZdxJtOxQLC7SE2ko-55" style="edgeStyle=orthogonalEdgeStyle;rounded=0;orthogonalLoop=1;jettySize=auto;html=1;exitX=1;exitY=0.5;exitDx=0;exitDy=0;labelBackgroundColor=default;fontColor=default;strokeColor=default;" parent="1" source="pI7oZdxJtOxQLC7SE2ko-52" target="pI7oZdxJtOxQLC7SE2ko-54" edge="1">
          <mxGeometry relative="1" as="geometry" />
        </mxCell>
        <mxCell id="pI7oZdxJtOxQLC7SE2ko-52" value="支付" style="rounded=0;whiteSpace=wrap;html=1;labelBackgroundColor=default;fontColor=default;strokeColor=default;fillColor=default;" parent="1" vertex="1">
          <mxGeometry x="-280" y="3360" width="80" height="40" as="geometry" />
        </mxCell>
        <mxCell id="pI7oZdxJtOxQLC7SE2ko-54" value="结果通知" style="rounded=0;whiteSpace=wrap;html=1;labelBackgroundColor=default;fontColor=default;strokeColor=default;fillColor=default;" parent="1" vertex="1">
          <mxGeometry x="-110" y="3360" width="80" height="40" as="geometry" />
        </mxCell>
        <mxCell id="pI7oZdxJtOxQLC7SE2ko-58" style="edgeStyle=orthogonalEdgeStyle;rounded=0;orthogonalLoop=1;jettySize=auto;html=1;exitX=0.5;exitY=1;exitDx=0;exitDy=0;labelBackgroundColor=default;fontColor=default;strokeColor=default;" parent="1" source="pI7oZdxJtOxQLC7SE2ko-56" target="pI7oZdxJtOxQLC7SE2ko-57" edge="1">
          <mxGeometry relative="1" as="geometry" />
        </mxCell>
        <mxCell id="pI7oZdxJtOxQLC7SE2ko-56" value="不提提现金额" style="rounded=0;whiteSpace=wrap;html=1;labelBackgroundColor=default;fontColor=default;strokeColor=default;fillColor=default;" parent="1" vertex="1">
          <mxGeometry x="120" y="2760" width="80" height="40" as="geometry" />
        </mxCell>
        <mxCell id="pI7oZdxJtOxQLC7SE2ko-57" value="指定日期到可提现金额" style="rounded=0;whiteSpace=wrap;html=1;labelBackgroundColor=default;fontColor=default;strokeColor=default;fillColor=default;" parent="1" vertex="1">
          <mxGeometry x="120" y="2840" width="80" height="40" as="geometry" />
        </mxCell>
        <mxCell id="pI7oZdxJtOxQLC7SE2ko-63" style="edgeStyle=orthogonalEdgeStyle;rounded=0;orthogonalLoop=1;jettySize=auto;html=1;exitX=1;exitY=0.5;exitDx=0;exitDy=0;labelBackgroundColor=default;fontColor=default;strokeColor=default;" parent="1" source="pI7oZdxJtOxQLC7SE2ko-59" target="pI7oZdxJtOxQLC7SE2ko-62" edge="1">
          <mxGeometry relative="1" as="geometry" />
        </mxCell>
        <mxCell id="pI7oZdxJtOxQLC7SE2ko-59" value="用户" style="rounded=0;whiteSpace=wrap;html=1;labelBackgroundColor=default;fontColor=default;strokeColor=default;fillColor=default;" parent="1" vertex="1">
          <mxGeometry x="-760" y="3840" width="80" height="40" as="geometry" />
        </mxCell>
        <mxCell id="pI7oZdxJtOxQLC7SE2ko-64" style="edgeStyle=orthogonalEdgeStyle;rounded=0;orthogonalLoop=1;jettySize=auto;html=1;exitX=0.5;exitY=1;exitDx=0;exitDy=0;labelBackgroundColor=default;fontColor=default;strokeColor=default;" parent="1" source="pI7oZdxJtOxQLC7SE2ko-61" edge="1">
          <mxGeometry relative="1" as="geometry">
            <mxPoint x="-600" y="3860" as="targetPoint" />
          </mxGeometry>
        </mxCell>
        <mxCell id="pI7oZdxJtOxQLC7SE2ko-61" value="获取在线状态" style="rounded=0;whiteSpace=wrap;html=1;labelBackgroundColor=default;fontColor=default;strokeColor=default;fillColor=default;" parent="1" vertex="1">
          <mxGeometry x="-640" y="3760" width="80" height="40" as="geometry" />
        </mxCell>
        <mxCell id="pI7oZdxJtOxQLC7SE2ko-66" style="edgeStyle=orthogonalEdgeStyle;rounded=0;orthogonalLoop=1;jettySize=auto;html=1;exitX=1;exitY=0.5;exitDx=0;exitDy=0;labelBackgroundColor=default;fontColor=default;strokeColor=default;" parent="1" source="pI7oZdxJtOxQLC7SE2ko-62" target="pI7oZdxJtOxQLC7SE2ko-65" edge="1">
          <mxGeometry relative="1" as="geometry" />
        </mxCell>
        <mxCell id="pI7oZdxJtOxQLC7SE2ko-62" value="IM" style="rounded=0;whiteSpace=wrap;html=1;labelBackgroundColor=default;fontColor=default;strokeColor=default;fillColor=default;" parent="1" vertex="1">
          <mxGeometry x="-520" y="3840" width="80" height="40" as="geometry" />
        </mxCell>
        <mxCell id="pI7oZdxJtOxQLC7SE2ko-68" style="edgeStyle=orthogonalEdgeStyle;rounded=0;orthogonalLoop=1;jettySize=auto;html=1;exitX=1;exitY=0.5;exitDx=0;exitDy=0;labelBackgroundColor=default;fontColor=default;strokeColor=default;" parent="1" source="pI7oZdxJtOxQLC7SE2ko-65" target="pI7oZdxJtOxQLC7SE2ko-67" edge="1">
          <mxGeometry relative="1" as="geometry" />
        </mxCell>
        <mxCell id="pI7oZdxJtOxQLC7SE2ko-74" style="edgeStyle=orthogonalEdgeStyle;rounded=0;orthogonalLoop=1;jettySize=auto;html=1;exitX=1;exitY=0.5;exitDx=0;exitDy=0;entryX=0;entryY=0.5;entryDx=0;entryDy=0;labelBackgroundColor=default;fontColor=default;strokeColor=default;" parent="1" source="pI7oZdxJtOxQLC7SE2ko-65" target="pI7oZdxJtOxQLC7SE2ko-73" edge="1">
          <mxGeometry relative="1" as="geometry">
            <Array as="points">
              <mxPoint x="-170" y="3860" />
              <mxPoint x="-170" y="3940" />
            </Array>
          </mxGeometry>
        </mxCell>
        <mxCell id="pI7oZdxJtOxQLC7SE2ko-76" style="edgeStyle=orthogonalEdgeStyle;rounded=0;orthogonalLoop=1;jettySize=auto;html=1;exitX=1;exitY=0.5;exitDx=0;exitDy=0;entryX=0;entryY=0.5;entryDx=0;entryDy=0;labelBackgroundColor=default;fontColor=default;strokeColor=default;" parent="1" source="pI7oZdxJtOxQLC7SE2ko-65" target="pI7oZdxJtOxQLC7SE2ko-75" edge="1">
          <mxGeometry relative="1" as="geometry">
            <Array as="points">
              <mxPoint x="-170" y="3860" />
              <mxPoint x="-170" y="4020" />
            </Array>
          </mxGeometry>
        </mxCell>
        <mxCell id="pI7oZdxJtOxQLC7SE2ko-80" style="edgeStyle=orthogonalEdgeStyle;rounded=0;orthogonalLoop=1;jettySize=auto;html=1;exitX=0.5;exitY=1;exitDx=0;exitDy=0;labelBackgroundColor=default;fontColor=default;strokeColor=default;" parent="1" source="pI7oZdxJtOxQLC7SE2ko-65" target="pI7oZdxJtOxQLC7SE2ko-79" edge="1">
          <mxGeometry relative="1" as="geometry" />
        </mxCell>
        <mxCell id="pI7oZdxJtOxQLC7SE2ko-65" value="用户" style="rounded=0;whiteSpace=wrap;html=1;labelBackgroundColor=default;fontColor=default;strokeColor=default;fillColor=default;" parent="1" vertex="1">
          <mxGeometry x="-280" y="3840" width="80" height="40" as="geometry" />
        </mxCell>
        <mxCell id="pI7oZdxJtOxQLC7SE2ko-71" style="edgeStyle=orthogonalEdgeStyle;rounded=0;orthogonalLoop=1;jettySize=auto;html=1;exitX=1;exitY=0.5;exitDx=0;exitDy=0;entryX=1;entryY=0.5;entryDx=0;entryDy=0;labelBackgroundColor=default;fontColor=default;strokeColor=default;" parent="1" source="pI7oZdxJtOxQLC7SE2ko-67" target="pI7oZdxJtOxQLC7SE2ko-70" edge="1">
          <mxGeometry relative="1" as="geometry">
            <Array as="points">
              <mxPoint x="20" y="3860" />
              <mxPoint x="20" y="3700" />
            </Array>
          </mxGeometry>
        </mxCell>
        <mxCell id="pI7oZdxJtOxQLC7SE2ko-67" value="挂断" style="rounded=0;whiteSpace=wrap;html=1;labelBackgroundColor=default;fontColor=default;strokeColor=default;fillColor=default;" parent="1" vertex="1">
          <mxGeometry x="-120" y="3840" width="80" height="40" as="geometry" />
        </mxCell>
        <mxCell id="pI7oZdxJtOxQLC7SE2ko-72" style="edgeStyle=orthogonalEdgeStyle;rounded=0;orthogonalLoop=1;jettySize=auto;html=1;exitX=0;exitY=0.5;exitDx=0;exitDy=0;labelBackgroundColor=default;fontColor=default;strokeColor=default;" parent="1" source="pI7oZdxJtOxQLC7SE2ko-70" target="pI7oZdxJtOxQLC7SE2ko-59" edge="1">
          <mxGeometry relative="1" as="geometry" />
        </mxCell>
        <mxCell id="pI7oZdxJtOxQLC7SE2ko-70" value="IM" style="rounded=0;whiteSpace=wrap;html=1;labelBackgroundColor=default;fontColor=default;strokeColor=default;fillColor=default;" parent="1" vertex="1">
          <mxGeometry x="-520" y="3680" width="80" height="40" as="geometry" />
        </mxCell>
        <mxCell id="pI7oZdxJtOxQLC7SE2ko-77" style="edgeStyle=orthogonalEdgeStyle;rounded=0;orthogonalLoop=1;jettySize=auto;html=1;exitX=1;exitY=0.5;exitDx=0;exitDy=0;entryX=1;entryY=0.5;entryDx=0;entryDy=0;labelBackgroundColor=default;fontColor=default;strokeColor=default;" parent="1" source="pI7oZdxJtOxQLC7SE2ko-73" target="pI7oZdxJtOxQLC7SE2ko-70" edge="1">
          <mxGeometry relative="1" as="geometry">
            <Array as="points">
              <mxPoint x="20" y="3940" />
              <mxPoint x="20" y="3700" />
            </Array>
          </mxGeometry>
        </mxCell>
        <mxCell id="pI7oZdxJtOxQLC7SE2ko-73" value="超时" style="rounded=0;whiteSpace=wrap;html=1;labelBackgroundColor=default;fontColor=default;strokeColor=default;fillColor=default;" parent="1" vertex="1">
          <mxGeometry x="-120" y="3920" width="80" height="40" as="geometry" />
        </mxCell>
        <mxCell id="pI7oZdxJtOxQLC7SE2ko-78" style="edgeStyle=orthogonalEdgeStyle;rounded=0;orthogonalLoop=1;jettySize=auto;html=1;exitX=1;exitY=0.5;exitDx=0;exitDy=0;labelBackgroundColor=default;fontColor=default;strokeColor=default;entryX=1;entryY=0.5;entryDx=0;entryDy=0;" parent="1" source="pI7oZdxJtOxQLC7SE2ko-75" target="pI7oZdxJtOxQLC7SE2ko-70" edge="1">
          <mxGeometry relative="1" as="geometry">
            <mxPoint x="-440" y="3700" as="targetPoint" />
            <Array as="points">
              <mxPoint x="20" y="4020" />
              <mxPoint x="20" y="3700" />
            </Array>
          </mxGeometry>
        </mxCell>
        <mxCell id="pI7oZdxJtOxQLC7SE2ko-75" value="异常退出" style="rounded=0;whiteSpace=wrap;html=1;labelBackgroundColor=default;fontColor=default;strokeColor=default;fillColor=default;" parent="1" vertex="1">
          <mxGeometry x="-123" y="4000" width="80" height="40" as="geometry" />
        </mxCell>
        <mxCell id="pI7oZdxJtOxQLC7SE2ko-83" style="edgeStyle=orthogonalEdgeStyle;rounded=0;orthogonalLoop=1;jettySize=auto;html=1;exitX=0.5;exitY=1;exitDx=0;exitDy=0;labelBackgroundColor=default;fontColor=default;strokeColor=default;" parent="1" source="pI7oZdxJtOxQLC7SE2ko-79" target="pI7oZdxJtOxQLC7SE2ko-82" edge="1">
          <mxGeometry relative="1" as="geometry" />
        </mxCell>
        <mxCell id="pI7oZdxJtOxQLC7SE2ko-79" value="接听" style="rounded=0;whiteSpace=wrap;html=1;labelBackgroundColor=default;fontColor=default;strokeColor=default;fillColor=default;" parent="1" vertex="1">
          <mxGeometry x="-280" y="4040" width="80" height="40" as="geometry" />
        </mxCell>
        <mxCell id="pI7oZdxJtOxQLC7SE2ko-82" value="主播" style="rhombus;whiteSpace=wrap;html=1;labelBackgroundColor=default;fontColor=default;strokeColor=default;fillColor=default;" parent="1" vertex="1">
          <mxGeometry x="-275" y="4130" width="70" height="70" as="geometry" />
        </mxCell>
        <mxCell id="ubsNrY5mBmW0XAo3okoH-3" style="edgeStyle=orthogonalEdgeStyle;rounded=0;orthogonalLoop=1;jettySize=auto;html=1;exitX=1;exitY=0.5;exitDx=0;exitDy=0;" parent="1" source="ubsNrY5mBmW0XAo3okoH-1" target="ubsNrY5mBmW0XAo3okoH-2" edge="1">
          <mxGeometry relative="1" as="geometry" />
        </mxCell>
        <mxCell id="ubsNrY5mBmW0XAo3okoH-1" value="hunting" style="rounded=0;whiteSpace=wrap;html=1;" parent="1" vertex="1">
          <mxGeometry x="-300" y="-190" width="80" height="40" as="geometry" />
        </mxCell>
        <mxCell id="ubsNrY5mBmW0XAo3okoH-8" style="edgeStyle=orthogonalEdgeStyle;rounded=0;orthogonalLoop=1;jettySize=auto;html=1;entryX=0;entryY=0.5;entryDx=0;entryDy=0;entryPerimeter=0;" parent="1" source="ubsNrY5mBmW0XAo3okoH-2" target="ubsNrY5mBmW0XAo3okoH-4" edge="1">
          <mxGeometry relative="1" as="geometry">
            <Array as="points">
              <mxPoint x="-100" y="10" />
            </Array>
          </mxGeometry>
        </mxCell>
        <mxCell id="ubsNrY5mBmW0XAo3okoH-2" value="筛选" style="rounded=0;whiteSpace=wrap;html=1;" parent="1" vertex="1">
          <mxGeometry x="-140" y="-190" width="80" height="40" as="geometry" />
        </mxCell>
        <mxCell id="ubsNrY5mBmW0XAo3okoH-9" style="edgeStyle=orthogonalEdgeStyle;rounded=0;orthogonalLoop=1;jettySize=auto;html=1;exitX=1;exitY=0.5;exitDx=0;exitDy=0;exitPerimeter=0;entryX=0.5;entryY=1;entryDx=0;entryDy=0;" parent="1" source="ubsNrY5mBmW0XAo3okoH-4" target="ubsNrY5mBmW0XAo3okoH-5" edge="1">
          <mxGeometry relative="1" as="geometry" />
        </mxCell>
        <mxCell id="ubsNrY5mBmW0XAo3okoH-4" value="数据库" style="shape=cylinder3;whiteSpace=wrap;html=1;boundedLbl=1;backgroundOutline=1;size=15;" parent="1" vertex="1">
          <mxGeometry x="-50" y="-30" width="60" height="80" as="geometry" />
        </mxCell>
        <mxCell id="ubsNrY5mBmW0XAo3okoH-5" value="结果" style="rounded=0;whiteSpace=wrap;html=1;" parent="1" vertex="1">
          <mxGeometry x="20" y="-190" width="80" height="40" as="geometry" />
        </mxCell>
        <mxCell id="ubsNrY5mBmW0XAo3okoH-11" style="edgeStyle=orthogonalEdgeStyle;rounded=0;orthogonalLoop=1;jettySize=auto;html=1;exitX=0.5;exitY=1;exitDx=0;exitDy=0;" parent="1" source="ubsNrY5mBmW0XAo3okoH-10" target="ubsNrY5mBmW0XAo3okoH-1" edge="1">
          <mxGeometry relative="1" as="geometry" />
        </mxCell>
        <mxCell id="ubsNrY5mBmW0XAo3okoH-13" style="edgeStyle=orthogonalEdgeStyle;rounded=0;orthogonalLoop=1;jettySize=auto;html=1;exitX=0.5;exitY=1;exitDx=0;exitDy=0;" parent="1" source="ubsNrY5mBmW0XAo3okoH-10" target="ubsNrY5mBmW0XAo3okoH-12" edge="1">
          <mxGeometry relative="1" as="geometry" />
        </mxCell>
        <mxCell id="ubsNrY5mBmW0XAo3okoH-10" value="用户" style="rounded=0;whiteSpace=wrap;html=1;" parent="1" vertex="1">
          <mxGeometry x="-60" y="-390" width="80" height="40" as="geometry" />
        </mxCell>
        <mxCell id="ubsNrY5mBmW0XAo3okoH-12" value="呼叫" style="rounded=0;whiteSpace=wrap;html=1;" parent="1" vertex="1">
          <mxGeometry x="180" y="-190" width="80" height="40" as="geometry" />
        </mxCell>
        <mxCell id="ubsNrY5mBmW0XAo3okoH-14" value="类型:hunting/普通" style="shape=curlyBracket;whiteSpace=wrap;html=1;rounded=1;size=0.10569105691056911;align=right;" parent="1" vertex="1">
          <mxGeometry x="267" y="-230" width="123" height="120" as="geometry" />
        </mxCell>
        <mxCell id="ubsNrY5mBmW0XAo3okoH-21" style="edgeStyle=orthogonalEdgeStyle;rounded=0;orthogonalLoop=1;jettySize=auto;html=1;exitX=1;exitY=0.5;exitDx=0;exitDy=0;entryX=0;entryY=0.5;entryDx=0;entryDy=0;" parent="1" source="ubsNrY5mBmW0XAo3okoH-16" target="ubsNrY5mBmW0XAo3okoH-20" edge="1">
          <mxGeometry relative="1" as="geometry" />
        </mxCell>
        <mxCell id="ubsNrY5mBmW0XAo3okoH-16" value="加入视频" style="rounded=0;whiteSpace=wrap;html=1;" parent="1" vertex="1">
          <mxGeometry x="-840" y="-1240" width="80" height="40" as="geometry" />
        </mxCell>
        <mxCell id="ubsNrY5mBmW0XAo3okoH-28" style="edgeStyle=orthogonalEdgeStyle;rounded=0;orthogonalLoop=1;jettySize=auto;html=1;exitX=1;exitY=0.5;exitDx=0;exitDy=0;" parent="1" source="ubsNrY5mBmW0XAo3okoH-18" target="ubsNrY5mBmW0XAo3okoH-27" edge="1">
          <mxGeometry relative="1" as="geometry" />
        </mxCell>
        <mxCell id="ubsNrY5mBmW0XAo3okoH-18" value="计费队列" style="shape=partialRectangle;whiteSpace=wrap;html=1;left=0;right=0;fillColor=none;align=center;" parent="1" vertex="1">
          <mxGeometry x="-600" y="-1120" width="240" height="40" as="geometry" />
        </mxCell>
        <mxCell id="ubsNrY5mBmW0XAo3okoH-22" style="edgeStyle=orthogonalEdgeStyle;rounded=0;orthogonalLoop=1;jettySize=auto;html=1;exitX=0.5;exitY=1;exitDx=0;exitDy=0;" parent="1" source="ubsNrY5mBmW0XAo3okoH-20" target="ubsNrY5mBmW0XAo3okoH-18" edge="1">
          <mxGeometry relative="1" as="geometry" />
        </mxCell>
        <mxCell id="ubsNrY5mBmW0XAo3okoH-20" value="更新Call" style="rounded=0;whiteSpace=wrap;html=1;" parent="1" vertex="1">
          <mxGeometry x="-520" y="-1240" width="80" height="40" as="geometry" />
        </mxCell>
        <mxCell id="ubsNrY5mBmW0XAo3okoH-24" style="edgeStyle=orthogonalEdgeStyle;rounded=0;orthogonalLoop=1;jettySize=auto;html=1;exitX=1;exitY=0.5;exitDx=0;exitDy=0;" parent="1" source="ubsNrY5mBmW0XAo3okoH-23" target="ubsNrY5mBmW0XAo3okoH-18" edge="1">
          <mxGeometry relative="1" as="geometry" />
        </mxCell>
        <mxCell id="ubsNrY5mBmW0XAo3okoH-23" value="加入视频" style="rounded=0;whiteSpace=wrap;html=1;" parent="1" vertex="1">
          <mxGeometry x="-840" y="-1120" width="80" height="40" as="geometry" />
        </mxCell>
        <mxCell id="ubsNrY5mBmW0XAo3okoH-29" style="edgeStyle=orthogonalEdgeStyle;rounded=0;orthogonalLoop=1;jettySize=auto;html=1;exitX=1;exitY=0.5;exitDx=0;exitDy=0;entryX=0;entryY=0.5;entryDx=0;entryDy=0;" parent="1" source="ubsNrY5mBmW0XAo3okoH-27" target="ubsNrY5mBmW0XAo3okoH-18" edge="1">
          <mxGeometry relative="1" as="geometry">
            <Array as="points">
              <mxPoint x="-160" y="-1100" />
              <mxPoint x="-160" y="-1010" />
              <mxPoint x="-640" y="-1010" />
              <mxPoint x="-640" y="-1100" />
            </Array>
          </mxGeometry>
        </mxCell>
        <mxCell id="ubsNrY5mBmW0XAo3okoH-30" value="全额充足" style="edgeLabel;html=1;align=center;verticalAlign=middle;resizable=0;points=[];" parent="ubsNrY5mBmW0XAo3okoH-29" vertex="1" connectable="0">
          <mxGeometry x="-0.7455" relative="1" as="geometry">
            <mxPoint as="offset" />
          </mxGeometry>
        </mxCell>
        <mxCell id="ubsNrY5mBmW0XAo3okoH-32" style="edgeStyle=orthogonalEdgeStyle;rounded=0;orthogonalLoop=1;jettySize=auto;html=1;exitX=1;exitY=0.5;exitDx=0;exitDy=0;" parent="1" source="ubsNrY5mBmW0XAo3okoH-27" target="ubsNrY5mBmW0XAo3okoH-31" edge="1">
          <mxGeometry relative="1" as="geometry" />
        </mxCell>
        <mxCell id="ubsNrY5mBmW0XAo3okoH-33" value="余额不足" style="edgeLabel;html=1;align=center;verticalAlign=middle;resizable=0;points=[];" parent="ubsNrY5mBmW0XAo3okoH-32" vertex="1" connectable="0">
          <mxGeometry x="0.2397" relative="1" as="geometry">
            <mxPoint as="offset" />
          </mxGeometry>
        </mxCell>
        <mxCell id="ubsNrY5mBmW0XAo3okoH-27" value="扣费" style="rounded=0;whiteSpace=wrap;html=1;" parent="1" vertex="1">
          <mxGeometry x="-239" y="-1120" width="39" height="40" as="geometry" />
        </mxCell>
        <mxCell id="ubsNrY5mBmW0XAo3okoH-34" style="edgeStyle=orthogonalEdgeStyle;rounded=0;orthogonalLoop=1;jettySize=auto;html=1;exitX=1;exitY=0.5;exitDx=0;exitDy=0;" parent="1" source="ubsNrY5mBmW0XAo3okoH-31" edge="1">
          <mxGeometry relative="1" as="geometry">
            <mxPoint x="80" y="-1100" as="targetPoint" />
          </mxGeometry>
        </mxCell>
        <mxCell id="ubsNrY5mBmW0XAo3okoH-31" value="挂断视频" style="rounded=0;whiteSpace=wrap;html=1;" parent="1" vertex="1">
          <mxGeometry x="-79" y="-1120" width="80" height="40" as="geometry" />
        </mxCell>
        <mxCell id="ubsNrY5mBmW0XAo3okoH-36" value="配置V" style="rounded=0;whiteSpace=wrap;html=1;" parent="1" vertex="1">
          <mxGeometry x="-800" y="-400" width="80" height="40" as="geometry" />
        </mxCell>
        <mxCell id="ubsNrY5mBmW0XAo3okoH-40" style="edgeStyle=orthogonalEdgeStyle;rounded=0;orthogonalLoop=1;jettySize=auto;html=1;exitX=0.5;exitY=1;exitDx=0;exitDy=0;" parent="1" source="ubsNrY5mBmW0XAo3okoH-37" target="ubsNrY5mBmW0XAo3okoH-36" edge="1">
          <mxGeometry relative="1" as="geometry" />
        </mxCell>
        <mxCell id="ubsNrY5mBmW0XAo3okoH-37" value="启动" style="rounded=0;whiteSpace=wrap;html=1;" parent="1" vertex="1">
          <mxGeometry x="-800" y="-480" width="80" height="40" as="geometry" />
        </mxCell>
        <mxCell id="ubsNrY5mBmW0XAo3okoH-39" style="edgeStyle=orthogonalEdgeStyle;rounded=0;orthogonalLoop=1;jettySize=auto;html=1;exitX=1;exitY=0.5;exitDx=0;exitDy=0;" parent="1" source="ubsNrY5mBmW0XAo3okoH-38" target="ubsNrY5mBmW0XAo3okoH-36" edge="1">
          <mxGeometry relative="1" as="geometry" />
        </mxCell>
        <mxCell id="ubsNrY5mBmW0XAo3okoH-38" value="Redis" style="rounded=0;whiteSpace=wrap;html=1;" parent="1" vertex="1">
          <mxGeometry x="-960" y="-400" width="80" height="40" as="geometry" />
        </mxCell>
        <mxCell id="ubsNrY5mBmW0XAo3okoH-45" style="edgeStyle=orthogonalEdgeStyle;rounded=0;orthogonalLoop=1;jettySize=auto;html=1;exitX=0.5;exitY=0;exitDx=0;exitDy=0;entryX=0.5;entryY=1;entryDx=0;entryDy=0;" parent="1" source="ubsNrY5mBmW0XAo3okoH-41" target="ubsNrY5mBmW0XAo3okoH-38" edge="1">
          <mxGeometry relative="1" as="geometry" />
        </mxCell>
        <mxCell id="ubsNrY5mBmW0XAo3okoH-41" value="修改" style="rounded=0;whiteSpace=wrap;html=1;" parent="1" vertex="1">
          <mxGeometry x="-960" y="-240" width="80" height="40" as="geometry" />
        </mxCell>
        <mxCell id="jFVIIc9-C8Rg7Aftfa8U-3" style="edgeStyle=orthogonalEdgeStyle;rounded=0;orthogonalLoop=1;jettySize=auto;html=1;exitX=1;exitY=0.5;exitDx=0;exitDy=0;" parent="1" source="jFVIIc9-C8Rg7Aftfa8U-1" target="jFVIIc9-C8Rg7Aftfa8U-2" edge="1">
          <mxGeometry relative="1" as="geometry" />
        </mxCell>
        <mxCell id="jFVIIc9-C8Rg7Aftfa8U-1" value="主播" style="rounded=0;whiteSpace=wrap;html=1;" parent="1" vertex="1">
          <mxGeometry x="-1160" y="-1670" width="80" height="40" as="geometry" />
        </mxCell>
        <mxCell id="jFVIIc9-C8Rg7Aftfa8U-5" style="edgeStyle=orthogonalEdgeStyle;rounded=0;orthogonalLoop=1;jettySize=auto;html=1;exitX=1;exitY=0.5;exitDx=0;exitDy=0;" parent="1" source="jFVIIc9-C8Rg7Aftfa8U-2" target="jFVIIc9-C8Rg7Aftfa8U-4" edge="1">
          <mxGeometry relative="1" as="geometry" />
        </mxCell>
        <mxCell id="jFVIIc9-C8Rg7Aftfa8U-13" style="edgeStyle=orthogonalEdgeStyle;rounded=0;orthogonalLoop=1;jettySize=auto;html=1;exitX=0.5;exitY=1;exitDx=0;exitDy=0;" parent="1" source="jFVIIc9-C8Rg7Aftfa8U-2" target="jFVIIc9-C8Rg7Aftfa8U-12" edge="1">
          <mxGeometry relative="1" as="geometry" />
        </mxCell>
        <mxCell id="jFVIIc9-C8Rg7Aftfa8U-2" value="hunting" style="rounded=0;whiteSpace=wrap;html=1;" parent="1" vertex="1">
          <mxGeometry x="-1000" y="-1670" width="80" height="40" as="geometry" />
        </mxCell>
        <mxCell id="jFVIIc9-C8Rg7Aftfa8U-8" style="edgeStyle=orthogonalEdgeStyle;rounded=0;orthogonalLoop=1;jettySize=auto;html=1;exitX=1;exitY=0.5;exitDx=0;exitDy=0;entryX=0;entryY=0.5;entryDx=0;entryDy=0;" parent="1" source="jFVIIc9-C8Rg7Aftfa8U-4" target="jFVIIc9-C8Rg7Aftfa8U-7" edge="1">
          <mxGeometry relative="1" as="geometry" />
        </mxCell>
        <mxCell id="jFVIIc9-C8Rg7Aftfa8U-9" style="edgeStyle=orthogonalEdgeStyle;rounded=0;orthogonalLoop=1;jettySize=auto;html=1;exitX=1;exitY=0.5;exitDx=0;exitDy=0;" parent="1" source="jFVIIc9-C8Rg7Aftfa8U-4" target="jFVIIc9-C8Rg7Aftfa8U-6" edge="1">
          <mxGeometry relative="1" as="geometry" />
        </mxCell>
        <mxCell id="jFVIIc9-C8Rg7Aftfa8U-4" value="呼叫" style="rounded=0;whiteSpace=wrap;html=1;" parent="1" vertex="1">
          <mxGeometry x="-840" y="-1670" width="80" height="40" as="geometry" />
        </mxCell>
        <mxCell id="jFVIIc9-C8Rg7Aftfa8U-11" style="edgeStyle=orthogonalEdgeStyle;rounded=0;orthogonalLoop=1;jettySize=auto;html=1;exitX=1;exitY=0.5;exitDx=0;exitDy=0;entryX=0.5;entryY=1;entryDx=0;entryDy=0;" parent="1" source="jFVIIc9-C8Rg7Aftfa8U-6" target="jFVIIc9-C8Rg7Aftfa8U-2" edge="1">
          <mxGeometry relative="1" as="geometry">
            <Array as="points">
              <mxPoint x="-580" y="-1610" />
              <mxPoint x="-580" y="-1550" />
              <mxPoint x="-960" y="-1550" />
            </Array>
          </mxGeometry>
        </mxCell>
        <mxCell id="jFVIIc9-C8Rg7Aftfa8U-18" style="edgeStyle=orthogonalEdgeStyle;rounded=0;orthogonalLoop=1;jettySize=auto;html=1;exitX=1;exitY=0.5;exitDx=0;exitDy=0;" parent="1" source="jFVIIc9-C8Rg7Aftfa8U-6" target="jFVIIc9-C8Rg7Aftfa8U-16" edge="1">
          <mxGeometry relative="1" as="geometry" />
        </mxCell>
        <mxCell id="jFVIIc9-C8Rg7Aftfa8U-6" value="拒听" style="rounded=0;whiteSpace=wrap;html=1;" parent="1" vertex="1">
          <mxGeometry x="-680" y="-1630" width="80" height="40" as="geometry" />
        </mxCell>
        <mxCell id="jFVIIc9-C8Rg7Aftfa8U-10" value="关闭" style="edgeStyle=orthogonalEdgeStyle;rounded=0;orthogonalLoop=1;jettySize=auto;html=1;exitX=1;exitY=0.5;exitDx=0;exitDy=0;entryX=0.5;entryY=0;entryDx=0;entryDy=0;" parent="1" source="jFVIIc9-C8Rg7Aftfa8U-7" target="jFVIIc9-C8Rg7Aftfa8U-2" edge="1">
          <mxGeometry relative="1" as="geometry">
            <Array as="points">
              <mxPoint x="-580" y="-1690" />
              <mxPoint x="-580" y="-1750" />
              <mxPoint x="-960" y="-1750" />
            </Array>
          </mxGeometry>
        </mxCell>
        <mxCell id="jFVIIc9-C8Rg7Aftfa8U-17" style="edgeStyle=orthogonalEdgeStyle;rounded=0;orthogonalLoop=1;jettySize=auto;html=1;exitX=1;exitY=0.5;exitDx=0;exitDy=0;" parent="1" source="jFVIIc9-C8Rg7Aftfa8U-7" target="jFVIIc9-C8Rg7Aftfa8U-16" edge="1">
          <mxGeometry relative="1" as="geometry" />
        </mxCell>
        <mxCell id="jFVIIc9-C8Rg7Aftfa8U-7" value="接听" style="rounded=0;whiteSpace=wrap;html=1;" parent="1" vertex="1">
          <mxGeometry x="-680" y="-1710" width="80" height="40" as="geometry" />
        </mxCell>
        <mxCell id="jFVIIc9-C8Rg7Aftfa8U-12" value="写入Reids" style="rounded=0;whiteSpace=wrap;html=1;" parent="1" vertex="1">
          <mxGeometry x="-1000" y="-1510" width="80" height="40" as="geometry" />
        </mxCell>
        <mxCell id="jFVIIc9-C8Rg7Aftfa8U-16" value="清除Reids" style="rounded=0;whiteSpace=wrap;html=1;" parent="1" vertex="1">
          <mxGeometry x="-520" y="-1670" width="80" height="40" as="geometry" />
        </mxCell>
        <mxCell id="jFVIIc9-C8Rg7Aftfa8U-19" value="anchor:hunting:211=&amp;gt;1" style="text;html=1;strokeColor=none;fillColor=none;align=center;verticalAlign=middle;whiteSpace=wrap;rounded=0;" parent="1" vertex="1">
          <mxGeometry x="-870" y="-1505" width="220" height="30" as="geometry" />
        </mxCell>
        <mxCell id="jFVIIc9-C8Rg7Aftfa8U-22" style="edgeStyle=orthogonalEdgeStyle;rounded=0;orthogonalLoop=1;jettySize=auto;html=1;exitX=1;exitY=0.5;exitDx=0;exitDy=0;" parent="1" source="jFVIIc9-C8Rg7Aftfa8U-20" target="jFVIIc9-C8Rg7Aftfa8U-21" edge="1">
          <mxGeometry relative="1" as="geometry" />
        </mxCell>
        <mxCell id="jFVIIc9-C8Rg7Aftfa8U-20" value="主播" style="rounded=0;whiteSpace=wrap;html=1;" parent="1" vertex="1">
          <mxGeometry x="-920" y="-2320" width="80" height="40" as="geometry" />
        </mxCell>
        <mxCell id="jFVIIc9-C8Rg7Aftfa8U-24" style="edgeStyle=orthogonalEdgeStyle;rounded=0;orthogonalLoop=1;jettySize=auto;html=1;exitX=1;exitY=0.5;exitDx=0;exitDy=0;" parent="1" source="jFVIIc9-C8Rg7Aftfa8U-21" target="jFVIIc9-C8Rg7Aftfa8U-23" edge="1">
          <mxGeometry relative="1" as="geometry" />
        </mxCell>
        <mxCell id="jFVIIc9-C8Rg7Aftfa8U-36" style="edgeStyle=orthogonalEdgeStyle;rounded=0;orthogonalLoop=1;jettySize=auto;html=1;exitX=0.5;exitY=1;exitDx=0;exitDy=0;" parent="1" source="jFVIIc9-C8Rg7Aftfa8U-21" target="jFVIIc9-C8Rg7Aftfa8U-35" edge="1">
          <mxGeometry relative="1" as="geometry" />
        </mxCell>
        <mxCell id="jFVIIc9-C8Rg7Aftfa8U-21" value="hunting" style="rounded=0;whiteSpace=wrap;html=1;" parent="1" vertex="1">
          <mxGeometry x="-800" y="-2320" width="80" height="40" as="geometry" />
        </mxCell>
        <mxCell id="jFVIIc9-C8Rg7Aftfa8U-26" style="edgeStyle=orthogonalEdgeStyle;rounded=0;orthogonalLoop=1;jettySize=auto;html=1;exitX=1;exitY=0.5;exitDx=0;exitDy=0;" parent="1" source="jFVIIc9-C8Rg7Aftfa8U-23" target="jFVIIc9-C8Rg7Aftfa8U-25" edge="1">
          <mxGeometry relative="1" as="geometry" />
        </mxCell>
        <mxCell id="jFVIIc9-C8Rg7Aftfa8U-23" value="找到人" style="rounded=0;whiteSpace=wrap;html=1;" parent="1" vertex="1">
          <mxGeometry x="-680" y="-2320" width="80" height="40" as="geometry" />
        </mxCell>
        <mxCell id="jFVIIc9-C8Rg7Aftfa8U-29" style="edgeStyle=orthogonalEdgeStyle;rounded=0;orthogonalLoop=1;jettySize=auto;html=1;exitX=1;exitY=0.5;exitDx=0;exitDy=0;" parent="1" source="jFVIIc9-C8Rg7Aftfa8U-25" target="jFVIIc9-C8Rg7Aftfa8U-28" edge="1">
          <mxGeometry relative="1" as="geometry" />
        </mxCell>
        <mxCell id="jFVIIc9-C8Rg7Aftfa8U-25" value="丢到hunting队列" style="rounded=0;whiteSpace=wrap;html=1;" parent="1" vertex="1">
          <mxGeometry x="-560" y="-2320" width="80" height="40" as="geometry" />
        </mxCell>
        <mxCell id="jFVIIc9-C8Rg7Aftfa8U-32" style="edgeStyle=orthogonalEdgeStyle;rounded=0;orthogonalLoop=1;jettySize=auto;html=1;exitX=1;exitY=0.5;exitDx=0;exitDy=0;" parent="1" source="jFVIIc9-C8Rg7Aftfa8U-28" target="jFVIIc9-C8Rg7Aftfa8U-30" edge="1">
          <mxGeometry relative="1" as="geometry" />
        </mxCell>
        <mxCell id="jFVIIc9-C8Rg7Aftfa8U-33" style="edgeStyle=orthogonalEdgeStyle;rounded=0;orthogonalLoop=1;jettySize=auto;html=1;exitX=1;exitY=0.5;exitDx=0;exitDy=0;" parent="1" source="jFVIIc9-C8Rg7Aftfa8U-28" target="jFVIIc9-C8Rg7Aftfa8U-31" edge="1">
          <mxGeometry relative="1" as="geometry" />
        </mxCell>
        <mxCell id="jFVIIc9-C8Rg7Aftfa8U-28" value="呼叫" style="rounded=0;whiteSpace=wrap;html=1;" parent="1" vertex="1">
          <mxGeometry x="-440" y="-2360" width="40" height="120" as="geometry" />
        </mxCell>
        <mxCell id="jFVIIc9-C8Rg7Aftfa8U-30" value="接听" style="rounded=0;whiteSpace=wrap;html=1;" parent="1" vertex="1">
          <mxGeometry x="-320" y="-2360" width="80" height="40" as="geometry" />
        </mxCell>
        <mxCell id="jFVIIc9-C8Rg7Aftfa8U-38" style="edgeStyle=orthogonalEdgeStyle;rounded=0;orthogonalLoop=1;jettySize=auto;html=1;exitX=0.5;exitY=1;exitDx=0;exitDy=0;" parent="1" source="jFVIIc9-C8Rg7Aftfa8U-31" target="jFVIIc9-C8Rg7Aftfa8U-37" edge="1">
          <mxGeometry relative="1" as="geometry" />
        </mxCell>
        <mxCell id="jFVIIc9-C8Rg7Aftfa8U-31" value="拒听" style="rounded=0;whiteSpace=wrap;html=1;" parent="1" vertex="1">
          <mxGeometry x="-319" y="-2280" width="80" height="40" as="geometry" />
        </mxCell>
        <mxCell id="jFVIIc9-C8Rg7Aftfa8U-35" value="anchor:hunting:211" style="text;html=1;strokeColor=none;fillColor=none;align=center;verticalAlign=middle;whiteSpace=wrap;rounded=0;" parent="1" vertex="1">
          <mxGeometry x="-820" y="-2195" width="120" height="30" as="geometry" />
        </mxCell>
        <mxCell id="jFVIIc9-C8Rg7Aftfa8U-39" style="edgeStyle=orthogonalEdgeStyle;rounded=0;orthogonalLoop=1;jettySize=auto;html=1;exitX=0;exitY=0.5;exitDx=0;exitDy=0;" parent="1" source="jFVIIc9-C8Rg7Aftfa8U-37" target="jFVIIc9-C8Rg7Aftfa8U-35" edge="1">
          <mxGeometry relative="1" as="geometry" />
        </mxCell>
        <mxCell id="jFVIIc9-C8Rg7Aftfa8U-41" style="edgeStyle=orthogonalEdgeStyle;rounded=0;orthogonalLoop=1;jettySize=auto;html=1;exitX=0.5;exitY=1;exitDx=0;exitDy=0;" parent="1" source="jFVIIc9-C8Rg7Aftfa8U-37" target="jFVIIc9-C8Rg7Aftfa8U-40" edge="1">
          <mxGeometry relative="1" as="geometry" />
        </mxCell>
        <mxCell id="jFVIIc9-C8Rg7Aftfa8U-37" value="检测hunting" style="rounded=0;whiteSpace=wrap;html=1;" parent="1" vertex="1">
          <mxGeometry x="-319" y="-2200" width="80" height="40" as="geometry" />
        </mxCell>
        <mxCell id="jFVIIc9-C8Rg7Aftfa8U-43" style="edgeStyle=orthogonalEdgeStyle;rounded=0;orthogonalLoop=1;jettySize=auto;html=1;exitX=1;exitY=0.5;exitDx=0;exitDy=0;entryX=0.5;entryY=0;entryDx=0;entryDy=0;" parent="1" source="jFVIIc9-C8Rg7Aftfa8U-40" target="jFVIIc9-C8Rg7Aftfa8U-21" edge="1">
          <mxGeometry relative="1" as="geometry">
            <mxPoint x="-280" y="-2040" as="targetPoint" />
            <Array as="points">
              <mxPoint x="-90" y="-2090" />
              <mxPoint x="-90" y="-2460" />
              <mxPoint x="-760" y="-2460" />
            </Array>
          </mxGeometry>
        </mxCell>
        <mxCell id="jFVIIc9-C8Rg7Aftfa8U-44" value="是" style="edgeLabel;html=1;align=center;verticalAlign=middle;resizable=0;points=[];" parent="jFVIIc9-C8Rg7Aftfa8U-43" vertex="1" connectable="0">
          <mxGeometry x="-0.4712" relative="1" as="geometry">
            <mxPoint as="offset" />
          </mxGeometry>
        </mxCell>
        <mxCell id="jFVIIc9-C8Rg7Aftfa8U-46" value="否" style="edgeStyle=orthogonalEdgeStyle;rounded=0;orthogonalLoop=1;jettySize=auto;html=1;exitX=0.5;exitY=1;exitDx=0;exitDy=0;" parent="1" source="jFVIIc9-C8Rg7Aftfa8U-40" target="jFVIIc9-C8Rg7Aftfa8U-45" edge="1">
          <mxGeometry relative="1" as="geometry" />
        </mxCell>
        <mxCell id="jFVIIc9-C8Rg7Aftfa8U-40" value="" style="rhombus;whiteSpace=wrap;html=1;" parent="1" vertex="1">
          <mxGeometry x="-309" y="-2120" width="60" height="60" as="geometry" />
        </mxCell>
        <mxCell id="jFVIIc9-C8Rg7Aftfa8U-45" value="退出" style="rounded=0;whiteSpace=wrap;html=1;" parent="1" vertex="1">
          <mxGeometry x="-319" y="-2000" width="80" height="40" as="geometry" />
        </mxCell>
        <mxCell id="RSxFT3Ya3_d7Uc0WyS-f-88" style="edgeStyle=orthogonalEdgeStyle;rounded=0;orthogonalLoop=1;jettySize=auto;html=1;exitX=1;exitY=0.5;exitDx=0;exitDy=0;entryX=0;entryY=0.5;entryDx=0;entryDy=0;dashed=1;labelBackgroundColor=#B3B3B3;fontColor=#000000;startArrow=none;startFill=0;endArrow=classic;endFill=1;" parent="1" source="RSxFT3Ya3_d7Uc0WyS-f-1" target="RSxFT3Ya3_d7Uc0WyS-f-20" edge="1">
          <mxGeometry relative="1" as="geometry" />
        </mxCell>
        <mxCell id="RSxFT3Ya3_d7Uc0WyS-f-100" value="IM推送" style="edgeLabel;html=1;align=center;verticalAlign=middle;resizable=0;points=[];fontColor=#000000;labelBackgroundColor=#B3B3B3;" parent="RSxFT3Ya3_d7Uc0WyS-f-88" vertex="1" connectable="0">
          <mxGeometry x="-0.8064" relative="1" as="geometry">
            <mxPoint as="offset" />
          </mxGeometry>
        </mxCell>
        <mxCell id="RSxFT3Ya3_d7Uc0WyS-f-92" style="edgeStyle=orthogonalEdgeStyle;rounded=0;orthogonalLoop=1;jettySize=auto;html=1;exitX=0.5;exitY=1;exitDx=0;exitDy=0;dashed=1;labelBackgroundColor=#B3B3B3;fontColor=#000000;startArrow=none;startFill=0;endArrow=classic;endFill=1;" parent="1" source="RSxFT3Ya3_d7Uc0WyS-f-1" target="RSxFT3Ya3_d7Uc0WyS-f-3" edge="1">
          <mxGeometry relative="1" as="geometry" />
        </mxCell>
        <mxCell id="RSxFT3Ya3_d7Uc0WyS-f-94" style="edgeStyle=orthogonalEdgeStyle;rounded=0;orthogonalLoop=1;jettySize=auto;html=1;exitX=1;exitY=0.75;exitDx=0;exitDy=0;entryX=1;entryY=0.5;entryDx=0;entryDy=0;entryPerimeter=0;dashed=1;labelBackgroundColor=#B3B3B3;fontColor=#000000;startArrow=none;startFill=0;endArrow=classic;endFill=1;" parent="1" source="RSxFT3Ya3_d7Uc0WyS-f-1" target="RSxFT3Ya3_d7Uc0WyS-f-62" edge="1">
          <mxGeometry relative="1" as="geometry">
            <Array as="points">
              <mxPoint x="-168" y="-3425" />
              <mxPoint x="-168" y="-3146" />
            </Array>
          </mxGeometry>
        </mxCell>
        <mxCell id="RSxFT3Ya3_d7Uc0WyS-f-97" value="订阅信息" style="edgeLabel;html=1;align=center;verticalAlign=middle;resizable=0;points=[];fontColor=#000000;labelBackgroundColor=#B3B3B3;" parent="RSxFT3Ya3_d7Uc0WyS-f-94" vertex="1" connectable="0">
          <mxGeometry x="-0.4234" y="2" relative="1" as="geometry">
            <mxPoint as="offset" />
          </mxGeometry>
        </mxCell>
        <mxCell id="RSxFT3Ya3_d7Uc0WyS-f-1" value="API服务" style="rounded=1;whiteSpace=wrap;html=1;fillColor=#dae8fc;strokeColor=#6c8ebf;fontStyle=1" parent="1" vertex="1">
          <mxGeometry x="-422" y="-3470" width="120" height="60" as="geometry" />
        </mxCell>
        <mxCell id="RSxFT3Ya3_d7Uc0WyS-f-89" style="edgeStyle=orthogonalEdgeStyle;rounded=0;orthogonalLoop=1;jettySize=auto;html=1;exitX=0.5;exitY=0;exitDx=0;exitDy=0;entryX=0;entryY=0.5;entryDx=0;entryDy=0;dashed=1;labelBackgroundColor=#B3B3B3;fontColor=#000000;startArrow=none;startFill=0;endArrow=classic;endFill=1;" parent="1" source="RSxFT3Ya3_d7Uc0WyS-f-2" target="RSxFT3Ya3_d7Uc0WyS-f-20" edge="1">
          <mxGeometry relative="1" as="geometry">
            <Array as="points">
              <mxPoint x="-510" y="-3392" />
              <mxPoint x="-230" y="-3392" />
              <mxPoint x="-230" y="-3440" />
            </Array>
          </mxGeometry>
        </mxCell>
        <mxCell id="RSxFT3Ya3_d7Uc0WyS-f-99" value="IM推送" style="edgeLabel;html=1;align=center;verticalAlign=middle;resizable=0;points=[];fontColor=#000000;labelBackgroundColor=#B3B3B3;" parent="RSxFT3Ya3_d7Uc0WyS-f-89" vertex="1" connectable="0">
          <mxGeometry x="-0.6469" y="-1" relative="1" as="geometry">
            <mxPoint as="offset" />
          </mxGeometry>
        </mxCell>
        <mxCell id="RSxFT3Ya3_d7Uc0WyS-f-2" value="定时任务服务" style="rounded=1;whiteSpace=wrap;html=1;fillColor=#dae8fc;strokeColor=#6c8ebf;fontStyle=1" parent="1" vertex="1">
          <mxGeometry x="-570" y="-3350" width="120" height="60" as="geometry" />
        </mxCell>
        <mxCell id="RSxFT3Ya3_d7Uc0WyS-f-86" style="edgeStyle=orthogonalEdgeStyle;rounded=0;orthogonalLoop=1;jettySize=auto;html=1;exitX=0.75;exitY=0;exitDx=0;exitDy=0;entryX=0;entryY=0.5;entryDx=0;entryDy=0;dashed=1;labelBackgroundColor=#B3B3B3;fontColor=#000000;startArrow=none;startFill=0;endArrow=classic;endFill=1;" parent="1" source="RSxFT3Ya3_d7Uc0WyS-f-3" target="RSxFT3Ya3_d7Uc0WyS-f-20" edge="1">
          <mxGeometry relative="1" as="geometry">
            <Array as="points">
              <mxPoint x="-310" y="-3378" />
              <mxPoint x="-63" y="-3378" />
              <mxPoint x="-63" y="-3440" />
            </Array>
          </mxGeometry>
        </mxCell>
        <mxCell id="RSxFT3Ya3_d7Uc0WyS-f-3" value="系统通知服务" style="rounded=1;whiteSpace=wrap;html=1;fillColor=#dae8fc;strokeColor=#6c8ebf;fontStyle=1" parent="1" vertex="1">
          <mxGeometry x="-400" y="-3350" width="120" height="60" as="geometry" />
        </mxCell>
        <mxCell id="RSxFT3Ya3_d7Uc0WyS-f-4" value="OSS文件分片上传" style="rounded=1;whiteSpace=wrap;html=1;fillColor=#dae8fc;strokeColor=#6c8ebf;fontStyle=1" parent="1" vertex="1">
          <mxGeometry x="-251" y="-3350" width="120" height="60" as="geometry" />
        </mxCell>
        <mxCell id="RSxFT3Ya3_d7Uc0WyS-f-115" style="edgeStyle=orthogonalEdgeStyle;rounded=0;orthogonalLoop=1;jettySize=auto;html=1;dashed=1;labelBackgroundColor=#B3B3B3;fontColor=#000000;startArrow=classic;startFill=1;endArrow=classic;endFill=1;strokeWidth=1;" parent="1" source="RSxFT3Ya3_d7Uc0WyS-f-5" edge="1">
          <mxGeometry relative="1" as="geometry">
            <mxPoint x="-306" y="-3503" as="targetPoint" />
            <Array as="points">
              <mxPoint x="-375" y="-3540" />
              <mxPoint x="-306" y="-3540" />
            </Array>
          </mxGeometry>
        </mxCell>
        <mxCell id="RSxFT3Ya3_d7Uc0WyS-f-118" style="edgeStyle=orthogonalEdgeStyle;rounded=0;orthogonalLoop=1;jettySize=auto;html=1;dashed=1;labelBackgroundColor=#B3B3B3;fontColor=#000000;startArrow=classic;startFill=1;endArrow=classic;endFill=1;strokeWidth=1;" parent="1" source="RSxFT3Ya3_d7Uc0WyS-f-5" edge="1">
          <mxGeometry relative="1" as="geometry">
            <mxPoint x="-59.666666666666515" y="-3502.5" as="targetPoint" />
            <Array as="points">
              <mxPoint x="-375" y="-3541" />
              <mxPoint x="-60" y="-3541" />
            </Array>
          </mxGeometry>
        </mxCell>
        <mxCell id="RSxFT3Ya3_d7Uc0WyS-f-5" value="" style="sketch=0;html=1;aspect=fixed;strokeColor=none;shadow=0;align=center;verticalAlign=top;fillColor=#3B8DF1;shape=mxgraph.gcp2.phone_android" parent="1" vertex="1">
          <mxGeometry x="-403" y="-3691" width="56" height="100" as="geometry" />
        </mxCell>
        <mxCell id="RSxFT3Ya3_d7Uc0WyS-f-6" value="用户端" style="text;html=1;align=center;verticalAlign=middle;resizable=0;points=[];autosize=1;strokeColor=none;fillColor=none;fontStyle=1" parent="1" vertex="1">
          <mxGeometry x="-397" y="-3650" width="46" height="18" as="geometry" />
        </mxCell>
        <mxCell id="RSxFT3Ya3_d7Uc0WyS-f-116" style="edgeStyle=orthogonalEdgeStyle;rounded=0;orthogonalLoop=1;jettySize=auto;html=1;dashed=1;labelBackgroundColor=#B3B3B3;fontColor=#000000;startArrow=classic;startFill=1;endArrow=classic;endFill=1;strokeWidth=1;" parent="1" source="RSxFT3Ya3_d7Uc0WyS-f-7" edge="1">
          <mxGeometry relative="1" as="geometry">
            <mxPoint x="-306" y="-3502" as="targetPoint" />
            <Array as="points">
              <mxPoint x="-275" y="-3540" />
              <mxPoint x="-306" y="-3540" />
            </Array>
          </mxGeometry>
        </mxCell>
        <mxCell id="RSxFT3Ya3_d7Uc0WyS-f-119" style="edgeStyle=orthogonalEdgeStyle;rounded=0;orthogonalLoop=1;jettySize=auto;html=1;dashed=1;labelBackgroundColor=#B3B3B3;fontColor=#000000;startArrow=classic;startFill=1;endArrow=classic;endFill=1;strokeWidth=1;" parent="1" source="RSxFT3Ya3_d7Uc0WyS-f-7" edge="1">
          <mxGeometry relative="1" as="geometry">
            <mxPoint x="-58" y="-3504.1666666666665" as="targetPoint" />
            <Array as="points">
              <mxPoint x="-275" y="-3541" />
              <mxPoint x="-58" y="-3541" />
            </Array>
          </mxGeometry>
        </mxCell>
        <mxCell id="RSxFT3Ya3_d7Uc0WyS-f-7" value="" style="sketch=0;html=1;aspect=fixed;strokeColor=#d6b656;shadow=0;align=center;verticalAlign=top;fillColor=#fff2cc;shape=mxgraph.gcp2.phone_android" parent="1" vertex="1">
          <mxGeometry x="-303" y="-3691" width="56" height="100" as="geometry" />
        </mxCell>
        <mxCell id="RSxFT3Ya3_d7Uc0WyS-f-8" value="主播端" style="text;html=1;align=center;verticalAlign=middle;resizable=0;points=[];autosize=1;strokeColor=none;fillColor=none;fontStyle=1" parent="1" vertex="1">
          <mxGeometry x="-301" y="-3650" width="46" height="18" as="geometry" />
        </mxCell>
        <mxCell id="RSxFT3Ya3_d7Uc0WyS-f-117" style="edgeStyle=orthogonalEdgeStyle;rounded=0;orthogonalLoop=1;jettySize=auto;html=1;dashed=1;labelBackgroundColor=#B3B3B3;fontColor=#000000;startArrow=classic;startFill=1;endArrow=classic;endFill=1;strokeWidth=1;" parent="1" source="RSxFT3Ya3_d7Uc0WyS-f-9" edge="1">
          <mxGeometry relative="1" as="geometry">
            <mxPoint x="-305.5" y="-3502.5" as="targetPoint" />
            <Array as="points">
              <mxPoint x="-178" y="-3542" />
              <mxPoint x="-305" y="-3542" />
            </Array>
          </mxGeometry>
        </mxCell>
        <mxCell id="RSxFT3Ya3_d7Uc0WyS-f-120" style="edgeStyle=orthogonalEdgeStyle;rounded=0;orthogonalLoop=1;jettySize=auto;html=1;dashed=1;labelBackgroundColor=#B3B3B3;fontColor=#000000;startArrow=classic;startFill=1;endArrow=classic;endFill=1;strokeWidth=1;" parent="1" source="RSxFT3Ya3_d7Uc0WyS-f-9" edge="1">
          <mxGeometry relative="1" as="geometry">
            <mxPoint x="-58" y="-3501.6666666666665" as="targetPoint" />
            <Array as="points">
              <mxPoint x="-178" y="-3540" />
              <mxPoint x="-58" y="-3540" />
            </Array>
          </mxGeometry>
        </mxCell>
        <mxCell id="RSxFT3Ya3_d7Uc0WyS-f-9" value="" style="sketch=0;html=1;aspect=fixed;strokeColor=#b85450;shadow=0;align=center;verticalAlign=top;fillColor=#f8cecc;shape=mxgraph.gcp2.phone_android" parent="1" vertex="1">
          <mxGeometry x="-206" y="-3691" width="56" height="100" as="geometry" />
        </mxCell>
        <mxCell id="RSxFT3Ya3_d7Uc0WyS-f-10" value="客服端" style="text;html=1;align=center;verticalAlign=middle;resizable=0;points=[];autosize=1;strokeColor=none;fillColor=none;fontStyle=1" parent="1" vertex="1">
          <mxGeometry x="-204" y="-3650" width="46" height="18" as="geometry" />
        </mxCell>
        <mxCell id="RSxFT3Ya3_d7Uc0WyS-f-15" value="MySQL1" style="shape=datastore;whiteSpace=wrap;html=1;fontStyle=1;align=center;" parent="1" vertex="1">
          <mxGeometry x="-83" y="-2837" width="60" height="60" as="geometry" />
        </mxCell>
        <mxCell id="RSxFT3Ya3_d7Uc0WyS-f-16" value="MongoDB1" style="shape=datastore;whiteSpace=wrap;html=1;fontStyle=1;align=center;" parent="1" vertex="1">
          <mxGeometry x="-382" y="-2867" width="68" height="60" as="geometry" />
        </mxCell>
        <mxCell id="RSxFT3Ya3_d7Uc0WyS-f-108" style="edgeStyle=orthogonalEdgeStyle;rounded=0;orthogonalLoop=1;jettySize=auto;html=1;exitX=0.5;exitY=1;exitDx=0;exitDy=0;dashed=1;labelBackgroundColor=#B3B3B3;fontColor=#000000;startArrow=none;startFill=0;endArrow=classic;endFill=1;strokeWidth=1;" parent="1" source="RSxFT3Ya3_d7Uc0WyS-f-17" edge="1">
          <mxGeometry relative="1" as="geometry">
            <mxPoint x="-291.33333333333303" y="-2907" as="targetPoint" />
            <Array as="points">
              <mxPoint x="-153" y="-2932" />
              <mxPoint x="-291" y="-2932" />
            </Array>
          </mxGeometry>
        </mxCell>
        <mxCell id="RSxFT3Ya3_d7Uc0WyS-f-109" style="edgeStyle=orthogonalEdgeStyle;rounded=0;orthogonalLoop=1;jettySize=auto;html=1;exitX=0.5;exitY=1;exitDx=0;exitDy=0;dashed=1;labelBackgroundColor=#B3B3B3;fontColor=#000000;startArrow=none;startFill=0;endArrow=classic;endFill=1;strokeWidth=1;" parent="1" source="RSxFT3Ya3_d7Uc0WyS-f-17" edge="1">
          <mxGeometry relative="1" as="geometry">
            <mxPoint x="13" y="-2909" as="targetPoint" />
            <Array as="points">
              <mxPoint x="-153" y="-2931" />
              <mxPoint x="13" y="-2931" />
            </Array>
          </mxGeometry>
        </mxCell>
        <mxCell id="RSxFT3Ya3_d7Uc0WyS-f-110" style="edgeStyle=orthogonalEdgeStyle;rounded=0;orthogonalLoop=1;jettySize=auto;html=1;exitX=0.5;exitY=0;exitDx=0;exitDy=0;dashed=1;labelBackgroundColor=#B3B3B3;fontColor=#000000;startArrow=classic;startFill=1;endArrow=classic;endFill=1;strokeWidth=1;" parent="1" source="RSxFT3Ya3_d7Uc0WyS-f-17" edge="1">
          <mxGeometry relative="1" as="geometry">
            <mxPoint x="-149.66666666666652" y="-3015" as="targetPoint" />
          </mxGeometry>
        </mxCell>
        <mxCell id="RSxFT3Ya3_d7Uc0WyS-f-17" value="Redis" style="shape=datastore;whiteSpace=wrap;html=1;fontStyle=1;align=center;" parent="1" vertex="1">
          <mxGeometry x="-180" y="-2989" width="60" height="60" as="geometry" />
        </mxCell>
        <mxCell id="RSxFT3Ya3_d7Uc0WyS-f-121" style="edgeStyle=orthogonalEdgeStyle;rounded=0;orthogonalLoop=1;jettySize=auto;html=1;dashed=1;labelBackgroundColor=#B3B3B3;fontColor=#000000;startArrow=classic;startFill=1;endArrow=classic;endFill=1;strokeWidth=1;" parent="1" source="RSxFT3Ya3_d7Uc0WyS-f-18" edge="1">
          <mxGeometry relative="1" as="geometry">
            <mxPoint x="172" y="-3504.1666666666665" as="targetPoint" />
          </mxGeometry>
        </mxCell>
        <mxCell id="RSxFT3Ya3_d7Uc0WyS-f-18" value="浏览器" style="shape=image;html=1;verticalAlign=top;verticalLabelPosition=bottom;labelBackgroundColor=#ffffff;imageAspect=0;aspect=fixed;image=https://cdn2.iconfinder.com/data/icons/social-media-and-payment/64/-36-128.png;fontStyle=1" parent="1" vertex="1">
          <mxGeometry x="132" y="-3685" width="80" height="80" as="geometry" />
        </mxCell>
        <mxCell id="RSxFT3Ya3_d7Uc0WyS-f-101" style="edgeStyle=orthogonalEdgeStyle;rounded=0;orthogonalLoop=1;jettySize=auto;html=1;exitX=0;exitY=0.75;exitDx=0;exitDy=0;entryX=0.995;entryY=0.63;entryDx=0;entryDy=0;entryPerimeter=0;dashed=1;labelBackgroundColor=#B3B3B3;fontColor=#000000;startArrow=none;startFill=0;endArrow=classic;endFill=1;" parent="1" source="RSxFT3Ya3_d7Uc0WyS-f-20" target="RSxFT3Ya3_d7Uc0WyS-f-28" edge="1">
          <mxGeometry relative="1" as="geometry">
            <Array as="points">
              <mxPoint x="-30" y="-3425" />
              <mxPoint x="-30" y="-3140" />
            </Array>
          </mxGeometry>
        </mxCell>
        <mxCell id="RSxFT3Ya3_d7Uc0WyS-f-102" value="IM服务服务" style="edgeLabel;html=1;align=center;verticalAlign=middle;resizable=0;points=[];fontColor=#000000;" parent="RSxFT3Ya3_d7Uc0WyS-f-101" vertex="1" connectable="0">
          <mxGeometry x="0.7332" y="-3" relative="1" as="geometry">
            <mxPoint as="offset" />
          </mxGeometry>
        </mxCell>
        <mxCell id="RSxFT3Ya3_d7Uc0WyS-f-103" style="edgeStyle=orthogonalEdgeStyle;rounded=0;orthogonalLoop=1;jettySize=auto;html=1;exitX=0.5;exitY=1;exitDx=0;exitDy=0;entryX=0.5;entryY=1;entryDx=0;entryDy=0;entryPerimeter=0;dashed=1;labelBackgroundColor=#B3B3B3;fontColor=#000000;startArrow=none;startFill=0;endArrow=classic;endFill=1;" parent="1" source="RSxFT3Ya3_d7Uc0WyS-f-20" target="RSxFT3Ya3_d7Uc0WyS-f-62" edge="1">
          <mxGeometry relative="1" as="geometry">
            <Array as="points">
              <mxPoint x="49" y="-3392" />
              <mxPoint x="112" y="-3392" />
              <mxPoint x="112" y="-3092" />
              <mxPoint x="-213" y="-3092" />
            </Array>
          </mxGeometry>
        </mxCell>
        <mxCell id="RSxFT3Ya3_d7Uc0WyS-f-105" value="IM消息存储" style="edgeLabel;html=1;align=center;verticalAlign=middle;resizable=0;points=[];fontColor=#000000;labelBackgroundColor=#B3B3B3;" parent="RSxFT3Ya3_d7Uc0WyS-f-103" vertex="1" connectable="0">
          <mxGeometry x="-0.115" y="-2" relative="1" as="geometry">
            <mxPoint as="offset" />
          </mxGeometry>
        </mxCell>
        <mxCell id="RSxFT3Ya3_d7Uc0WyS-f-20" value="IM服务" style="rounded=1;whiteSpace=wrap;html=1;fillColor=#dae8fc;strokeColor=#6c8ebf;fontStyle=1" parent="1" vertex="1">
          <mxGeometry x="-11" y="-3470" width="120" height="60" as="geometry" />
        </mxCell>
        <mxCell id="RSxFT3Ya3_d7Uc0WyS-f-21" value="IM消息数据同步" style="rounded=1;whiteSpace=wrap;html=1;fillColor=#dae8fc;strokeColor=#6c8ebf;fontStyle=1" parent="1" vertex="1">
          <mxGeometry x="-11" y="-3350" width="120" height="60" as="geometry" />
        </mxCell>
        <mxCell id="RSxFT3Ya3_d7Uc0WyS-f-85" style="edgeStyle=orthogonalEdgeStyle;rounded=0;orthogonalLoop=1;jettySize=auto;html=1;exitX=0.5;exitY=1;exitDx=0;exitDy=0;labelBackgroundColor=#B3B3B3;fontColor=#000000;startArrow=none;startFill=0;endArrow=classic;endFill=1;dashed=1;entryX=1;entryY=0.5;entryDx=0;entryDy=0;entryPerimeter=0;" parent="1" source="RSxFT3Ya3_d7Uc0WyS-f-22" target="RSxFT3Ya3_d7Uc0WyS-f-62" edge="1">
          <mxGeometry relative="1" as="geometry">
            <mxPoint x="-271" y="-3128" as="targetPoint" />
            <Array as="points">
              <mxPoint x="220" y="-3234" />
              <mxPoint x="-167" y="-3234" />
              <mxPoint x="-167" y="-3146" />
            </Array>
          </mxGeometry>
        </mxCell>
        <mxCell id="RSxFT3Ya3_d7Uc0WyS-f-95" value="平台通知" style="edgeLabel;html=1;align=center;verticalAlign=middle;resizable=0;points=[];fontColor=#000000;labelBackgroundColor=#B3B3B3;" parent="RSxFT3Ya3_d7Uc0WyS-f-85" vertex="1" connectable="0">
          <mxGeometry x="0.066" y="-3" relative="1" as="geometry">
            <mxPoint as="offset" />
          </mxGeometry>
        </mxCell>
        <mxCell id="RSxFT3Ya3_d7Uc0WyS-f-90" style="edgeStyle=orthogonalEdgeStyle;rounded=0;orthogonalLoop=1;jettySize=auto;html=1;exitX=0.25;exitY=1;exitDx=0;exitDy=0;entryX=0.5;entryY=1;entryDx=0;entryDy=0;dashed=1;labelBackgroundColor=#B3B3B3;fontColor=#000000;startArrow=none;startFill=0;endArrow=classic;endFill=1;" parent="1" source="RSxFT3Ya3_d7Uc0WyS-f-22" target="RSxFT3Ya3_d7Uc0WyS-f-4" edge="1">
          <mxGeometry relative="1" as="geometry">
            <Array as="points">
              <mxPoint x="190" y="-3261" />
              <mxPoint x="-191" y="-3261" />
            </Array>
          </mxGeometry>
        </mxCell>
        <mxCell id="RSxFT3Ya3_d7Uc0WyS-f-96" value="分片上传" style="edgeLabel;html=1;align=center;verticalAlign=middle;resizable=0;points=[];fontColor=#000000;labelBackgroundColor=#B3B3B3;" parent="RSxFT3Ya3_d7Uc0WyS-f-90" vertex="1" connectable="0">
          <mxGeometry x="0.0716" y="1" relative="1" as="geometry">
            <mxPoint as="offset" />
          </mxGeometry>
        </mxCell>
        <mxCell id="RSxFT3Ya3_d7Uc0WyS-f-22" value="运营后台" style="rounded=1;whiteSpace=wrap;html=1;fillColor=#dae8fc;strokeColor=#6c8ebf;fontStyle=1" parent="1" vertex="1">
          <mxGeometry x="160" y="-3470" width="120" height="60" as="geometry" />
        </mxCell>
        <mxCell id="RSxFT3Ya3_d7Uc0WyS-f-49" value="" style="endArrow=none;dashed=1;html=1;rounded=0;fillColor=#e51400;strokeColor=#B20000;strokeWidth=2;" parent="1" edge="1">
          <mxGeometry width="50" height="50" relative="1" as="geometry">
            <mxPoint x="-444" y="-3064" as="sourcePoint" />
            <mxPoint x="-444" y="-3064" as="targetPoint" />
            <Array as="points">
              <mxPoint x="156" y="-3064" />
              <mxPoint x="156" y="-2759" />
              <mxPoint x="-444" y="-2759" />
            </Array>
          </mxGeometry>
        </mxCell>
        <mxCell id="RSxFT3Ya3_d7Uc0WyS-f-50" value="数据层" style="text;html=1;strokeColor=none;fillColor=#000000;align=center;verticalAlign=middle;whiteSpace=wrap;rounded=0;fontStyle=1;labelBackgroundColor=none;fontColor=#FFFFFF;" parent="1" vertex="1">
          <mxGeometry x="-180" y="-3046" width="60" height="30" as="geometry" />
        </mxCell>
        <mxCell id="RSxFT3Ya3_d7Uc0WyS-f-51" value="MongoDB2" style="shape=datastore;whiteSpace=wrap;html=1;fontStyle=1;align=center;" parent="1" vertex="1">
          <mxGeometry x="-273" y="-2867" width="68" height="60" as="geometry" />
        </mxCell>
        <mxCell id="RSxFT3Ya3_d7Uc0WyS-f-52" value="..." style="text;html=1;strokeColor=none;fillColor=none;align=center;verticalAlign=middle;whiteSpace=wrap;rounded=0;labelBackgroundColor=none;fontColor=#000000;fontStyle=1" parent="1" vertex="1">
          <mxGeometry x="-326" y="-2857" width="60" height="30" as="geometry" />
        </mxCell>
        <mxCell id="RSxFT3Ya3_d7Uc0WyS-f-53" value="MySQL2" style="shape=datastore;whiteSpace=wrap;html=1;fontStyle=1;align=center;" parent="1" vertex="1">
          <mxGeometry x="50" y="-2837" width="60" height="60" as="geometry" />
        </mxCell>
        <mxCell id="RSxFT3Ya3_d7Uc0WyS-f-54" value="..." style="text;html=1;strokeColor=none;fillColor=none;align=center;verticalAlign=middle;whiteSpace=wrap;rounded=0;labelBackgroundColor=none;fontColor=#000000;fontStyle=1" parent="1" vertex="1">
          <mxGeometry x="-20" y="-2817" width="60" height="30" as="geometry" />
        </mxCell>
        <mxCell id="RSxFT3Ya3_d7Uc0WyS-f-56" value="&lt;b&gt;中间件&lt;/b&gt;" style="sketch=0;aspect=fixed;pointerEvents=1;shadow=0;dashed=0;html=1;strokeColor=none;labelPosition=center;verticalLabelPosition=bottom;verticalAlign=top;align=center;fillColor=#00188D;shape=mxgraph.mscae.enterprise.gateway;rounded=0;labelBackgroundColor=none;fontColor=#000000;" parent="1" vertex="1">
          <mxGeometry x="-12" y="-2887" width="50" height="50" as="geometry" />
        </mxCell>
        <mxCell id="RSxFT3Ya3_d7Uc0WyS-f-57" value="" style="endArrow=none;dashed=1;html=1;rounded=0;" parent="1" edge="1">
          <mxGeometry width="50" height="50" relative="1" as="geometry">
            <mxPoint x="-400" y="-2907" as="sourcePoint" />
            <mxPoint x="-400" y="-2907" as="targetPoint" />
            <Array as="points">
              <mxPoint x="-190" y="-2907" />
              <mxPoint x="-190" y="-2787" />
              <mxPoint x="-400" y="-2787" />
            </Array>
          </mxGeometry>
        </mxCell>
        <mxCell id="RSxFT3Ya3_d7Uc0WyS-f-58" value="Mongodb集群" style="text;html=1;strokeColor=none;fillColor=#000000;align=center;verticalAlign=middle;whiteSpace=wrap;rounded=0;fontStyle=1;labelBackgroundColor=none;fontColor=#FFFFFF;" parent="1" vertex="1">
          <mxGeometry x="-391" y="-2897" width="82" height="20" as="geometry" />
        </mxCell>
        <mxCell id="RSxFT3Ya3_d7Uc0WyS-f-59" value="" style="endArrow=none;dashed=1;html=1;rounded=0;" parent="1" edge="1">
          <mxGeometry width="50" height="50" relative="1" as="geometry">
            <mxPoint x="-101" y="-2907" as="sourcePoint" />
            <mxPoint x="-101" y="-2907" as="targetPoint" />
            <Array as="points">
              <mxPoint x="120" y="-2907" />
              <mxPoint x="120" y="-2767" />
              <mxPoint x="109" y="-2767" />
              <mxPoint x="-101" y="-2767" />
            </Array>
          </mxGeometry>
        </mxCell>
        <mxCell id="RSxFT3Ya3_d7Uc0WyS-f-60" value="MySQL集群" style="text;html=1;strokeColor=none;fillColor=#000000;align=center;verticalAlign=middle;whiteSpace=wrap;rounded=0;fontStyle=1;labelBackgroundColor=none;fontColor=#FFFFFF;" parent="1" vertex="1">
          <mxGeometry x="-93" y="-2901" width="82" height="20" as="geometry" />
        </mxCell>
        <mxCell id="RSxFT3Ya3_d7Uc0WyS-f-91" style="edgeStyle=orthogonalEdgeStyle;rounded=0;orthogonalLoop=1;jettySize=auto;html=1;exitX=0;exitY=0.5;exitDx=0;exitDy=0;exitPerimeter=0;entryX=0.5;entryY=1;entryDx=0;entryDy=0;dashed=1;labelBackgroundColor=#B3B3B3;fontColor=#000000;startArrow=none;startFill=0;endArrow=classic;endFill=1;" parent="1" source="RSxFT3Ya3_d7Uc0WyS-f-62" target="RSxFT3Ya3_d7Uc0WyS-f-3" edge="1">
          <mxGeometry relative="1" as="geometry" />
        </mxCell>
        <mxCell id="RSxFT3Ya3_d7Uc0WyS-f-98" value="消费通知队列" style="edgeLabel;html=1;align=center;verticalAlign=middle;resizable=0;points=[];fontColor=#000000;labelBackgroundColor=#B3B3B3;" parent="RSxFT3Ya3_d7Uc0WyS-f-91" vertex="1" connectable="0">
          <mxGeometry x="-0.4648" y="1" relative="1" as="geometry">
            <mxPoint as="offset" />
          </mxGeometry>
        </mxCell>
        <mxCell id="RSxFT3Ya3_d7Uc0WyS-f-104" style="edgeStyle=orthogonalEdgeStyle;rounded=0;orthogonalLoop=1;jettySize=auto;html=1;exitX=0.5;exitY=0;exitDx=0;exitDy=0;exitPerimeter=0;entryX=0.5;entryY=0;entryDx=0;entryDy=0;dashed=1;labelBackgroundColor=#B3B3B3;fontColor=#000000;startArrow=none;startFill=0;endArrow=classic;endFill=1;" parent="1" source="RSxFT3Ya3_d7Uc0WyS-f-62" target="RSxFT3Ya3_d7Uc0WyS-f-21" edge="1">
          <mxGeometry relative="1" as="geometry">
            <Array as="points">
              <mxPoint x="-213" y="-3241" />
              <mxPoint x="-62" y="-3241" />
              <mxPoint x="-62" y="-3376" />
              <mxPoint x="49" y="-3376" />
            </Array>
          </mxGeometry>
        </mxCell>
        <mxCell id="RSxFT3Ya3_d7Uc0WyS-f-106" value="队列消费" style="edgeLabel;html=1;align=center;verticalAlign=middle;resizable=0;points=[];fontColor=#000000;labelBackgroundColor=#B3B3B3;" parent="RSxFT3Ya3_d7Uc0WyS-f-104" vertex="1" connectable="0">
          <mxGeometry x="0.7524" y="-1" relative="1" as="geometry">
            <mxPoint as="offset" />
          </mxGeometry>
        </mxCell>
        <mxCell id="RSxFT3Ya3_d7Uc0WyS-f-62" value="&lt;b&gt;Pulsar&lt;/b&gt;" style="verticalLabelPosition=bottom;html=1;verticalAlign=top;align=center;strokeColor=none;fillColor=#00BEF2;shape=mxgraph.azure.storage_queue;rounded=0;labelBackgroundColor=none;fontColor=#000000;" parent="1" vertex="1">
          <mxGeometry x="-238" y="-3168.5" width="50" height="45" as="geometry" />
        </mxCell>
        <mxCell id="RSxFT3Ya3_d7Uc0WyS-f-64" value="" style="group" parent="1" vertex="1" connectable="0">
          <mxGeometry x="-161" y="-3170" width="60" height="76.5" as="geometry" />
        </mxCell>
        <mxCell id="RSxFT3Ya3_d7Uc0WyS-f-28" value="" style="sketch=0;html=1;dashed=0;whitespace=wrap;fillColor=#2875E2;strokeColor=#ffffff;points=[[0.005,0.63,0],[0.1,0.2,0],[0.9,0.2,0],[0.5,0,0],[0.995,0.63,0],[0.72,0.99,0],[0.5,1,0],[0.28,0.99,0]];shape=mxgraph.kubernetes.icon;prIcon=etcd" parent="RSxFT3Ya3_d7Uc0WyS-f-64" vertex="1">
          <mxGeometry x="5" width="50" height="48" as="geometry" />
        </mxCell>
        <mxCell id="RSxFT3Ya3_d7Uc0WyS-f-63" value="ETCD" style="text;html=1;strokeColor=none;fillColor=none;align=center;verticalAlign=middle;whiteSpace=wrap;rounded=0;labelBackgroundColor=none;fontColor=#000000;fontStyle=1" parent="RSxFT3Ya3_d7Uc0WyS-f-64" vertex="1">
          <mxGeometry y="46.5" width="60" height="30" as="geometry" />
        </mxCell>
        <mxCell id="RSxFT3Ya3_d7Uc0WyS-f-75" value="" style="endArrow=none;dashed=1;html=1;rounded=0;fillColor=#dae8fc;strokeColor=#6c8ebf;strokeWidth=2;" parent="1" edge="1">
          <mxGeometry width="50" height="50" relative="1" as="geometry">
            <mxPoint x="-600" y="-3500" as="sourcePoint" />
            <mxPoint x="-600" y="-3500" as="targetPoint" />
            <Array as="points">
              <mxPoint x="-120" y="-3500" />
              <mxPoint x="-120" y="-3220" />
              <mxPoint x="-600" y="-3220" />
            </Array>
          </mxGeometry>
        </mxCell>
        <mxCell id="RSxFT3Ya3_d7Uc0WyS-f-76" value="服务端" style="text;html=1;strokeColor=none;fillColor=#000000;align=center;verticalAlign=middle;whiteSpace=wrap;rounded=0;fontStyle=1;labelBackgroundColor=none;fontColor=#FFFFFF;" parent="1" vertex="1">
          <mxGeometry x="-560" y="-3490" width="60" height="30" as="geometry" />
        </mxCell>
        <mxCell id="RSxFT3Ya3_d7Uc0WyS-f-78" value="" style="endArrow=none;dashed=1;html=1;rounded=0;fillColor=#60a917;strokeColor=#2D7600;strokeWidth=2;" parent="1" edge="1">
          <mxGeometry width="50" height="50" relative="1" as="geometry">
            <mxPoint x="-440" y="-3192.5" as="sourcePoint" />
            <mxPoint x="-440" y="-3192.5" as="targetPoint" />
            <Array as="points">
              <mxPoint x="160" y="-3192.5" />
              <mxPoint x="160" y="-3080" />
              <mxPoint x="-440" y="-3082.5" />
            </Array>
          </mxGeometry>
        </mxCell>
        <mxCell id="RSxFT3Ya3_d7Uc0WyS-f-79" value="中间件" style="text;html=1;strokeColor=none;fillColor=#000000;align=center;verticalAlign=middle;whiteSpace=wrap;rounded=0;fontStyle=1;labelBackgroundColor=none;fontColor=#FFFFFF;" parent="1" vertex="1">
          <mxGeometry x="-430" y="-3180" width="60" height="30" as="geometry" />
        </mxCell>
        <mxCell id="RSxFT3Ya3_d7Uc0WyS-f-80" value="" style="endArrow=none;dashed=1;html=1;rounded=0;fillColor=#d5e8d4;strokeColor=#82b366;strokeWidth=2;" parent="1" edge="1">
          <mxGeometry width="50" height="50" relative="1" as="geometry">
            <mxPoint x="-101" y="-3500" as="sourcePoint" />
            <mxPoint x="-101" y="-3500" as="targetPoint" />
            <Array as="points">
              <mxPoint x="119" y="-3500" />
              <mxPoint x="119" y="-3220" />
              <mxPoint x="-101" y="-3220" />
            </Array>
          </mxGeometry>
        </mxCell>
        <mxCell id="RSxFT3Ya3_d7Uc0WyS-f-81" value="IM层" style="text;html=1;strokeColor=none;fillColor=#000000;align=center;verticalAlign=middle;whiteSpace=wrap;rounded=0;fontStyle=1;labelBackgroundColor=none;fontColor=#FFFFFF;" parent="1" vertex="1">
          <mxGeometry x="-90" y="-3490" width="60" height="30" as="geometry" />
        </mxCell>
        <mxCell id="RSxFT3Ya3_d7Uc0WyS-f-82" value="" style="endArrow=none;dashed=1;html=1;rounded=0;fillColor=#fff2cc;strokeColor=#d6b656;strokeWidth=2;" parent="1" edge="1">
          <mxGeometry width="50" height="50" relative="1" as="geometry">
            <mxPoint x="136" y="-3502" as="sourcePoint" />
            <mxPoint x="136" y="-3502" as="targetPoint" />
            <Array as="points">
              <mxPoint x="356" y="-3502" />
              <mxPoint x="356" y="-3222" />
              <mxPoint x="136" y="-3222" />
            </Array>
          </mxGeometry>
        </mxCell>
        <mxCell id="RSxFT3Ya3_d7Uc0WyS-f-83" value="后台" style="text;html=1;strokeColor=none;fillColor=#000000;align=center;verticalAlign=middle;whiteSpace=wrap;rounded=0;fontStyle=1;labelBackgroundColor=none;fontColor=#FFFFFF;" parent="1" vertex="1">
          <mxGeometry x="288" y="-3497" width="60" height="30" as="geometry" />
        </mxCell>
        <mxCell id="RSxFT3Ya3_d7Uc0WyS-f-111" style="edgeStyle=orthogonalEdgeStyle;rounded=0;orthogonalLoop=1;jettySize=auto;html=1;dashed=1;labelBackgroundColor=#B3B3B3;fontColor=#000000;startArrow=classic;startFill=1;endArrow=classic;endFill=1;strokeWidth=1;entryX=0.25;entryY=1;entryDx=0;entryDy=0;" parent="1" target="RSxFT3Ya3_d7Uc0WyS-f-50" edge="1">
          <mxGeometry relative="1" as="geometry">
            <mxPoint x="-139.66666666666652" y="-3005" as="targetPoint" />
            <mxPoint x="-328" y="-2909" as="sourcePoint" />
            <Array as="points">
              <mxPoint x="-328" y="-2999" />
              <mxPoint x="-165" y="-2999" />
            </Array>
          </mxGeometry>
        </mxCell>
        <mxCell id="RSxFT3Ya3_d7Uc0WyS-f-112" style="edgeStyle=orthogonalEdgeStyle;rounded=0;orthogonalLoop=1;jettySize=auto;html=1;dashed=1;labelBackgroundColor=#B3B3B3;fontColor=#000000;startArrow=classic;startFill=1;endArrow=classic;endFill=1;strokeWidth=1;entryX=0.25;entryY=1;entryDx=0;entryDy=0;" parent="1" edge="1">
          <mxGeometry relative="1" as="geometry">
            <mxPoint x="-136" y="-3016" as="targetPoint" />
            <mxPoint x="82" y="-2909" as="sourcePoint" />
            <Array as="points">
              <mxPoint x="82" y="-2999" />
              <mxPoint x="-136" y="-2999" />
            </Array>
          </mxGeometry>
        </mxCell>
      </root>
    </mxGraphModel>
  </diagram>
</mxfile>
